<svg width="500" height="500" viewBox="0 0 500 500" fill="none" xmlns="http://www.w3.org/2000/svg">
<g clip-path="url(#clip0_20_666)">
<path d="M156.567 250.018C156.567 301.536 198.481 343.446 250 343.446C301.517 343.446 343.426 301.534 343.426 250.018C343.426 198.5 301.517 156.587 250 156.587C198.481 156.587 156.567 198.5 156.567 250.018Z" fill="#171717"/>
<path d="M465.136 126.69C465.864 125.41 465.85 123.838 465.098 122.57C443.336 85.918 412.365 55.2164 375.536 33.7852C337.577 11.6951 294.165 0.0196533 250 0.0196533C173.565 0.0196533 102.332 34.3213 54.5652 94.1295C53.5111 95.4475 53.3734 97.2754 54.2177 98.736L124.595 220.629C125.332 221.908 126.693 222.679 128.142 222.679C128.326 222.679 128.513 222.666 128.698 222.641C130.347 222.416 131.696 221.216 132.113 219.605C145.99 165.836 194.467 128.284 250 128.284C253.446 128.284 257.005 128.441 260.582 128.746C260.698 128.757 260.816 128.762 260.932 128.762H461.573C463.047 128.762 464.408 127.972 465.136 126.69Z" fill="#171717"/>
<path d="M286.943 368.748C285.925 367.431 284.216 366.866 282.605 367.311C272.02 370.259 261.051 371.752 250 371.752C203.048 371.752 159.774 344.215 139.752 301.598C139.703 301.493 139.649 301.392 139.592 301.29L39.1984 127.408C38.4672 126.138 37.1131 125.359 35.6492 125.359C35.6426 125.359 35.6344 125.359 35.6279 125.359C34.1557 125.367 32.8 126.162 32.0787 127.444C11.0934 164.682 0 207.067 0 250.018C0 310.272 21.7377 368.474 61.2082 413.902C100.287 458.877 154.087 488.475 212.702 497.246C212.905 497.277 213.108 497.29 213.31 497.29C214.757 497.29 216.118 496.52 216.857 495.241L287.252 373.31C288.085 371.867 287.962 370.064 286.943 368.748Z" fill="#171717"/>
<path d="M478.976 156.108H338.035C336.369 156.108 334.869 157.116 334.241 158.657C333.612 160.198 333.977 161.969 335.166 163.133C358.748 186.251 371.735 217.107 371.735 250.018C371.735 274.933 364.217 298.91 349.992 319.359C349.926 319.454 349.866 319.551 349.808 319.651L249.241 493.834C248.505 495.11 248.51 496.682 249.253 497.954C249.989 499.211 251.336 499.982 252.79 499.982C252.805 499.982 252.821 499.982 252.836 499.982C319.017 499.244 381.12 472.915 427.703 425.847C474.325 378.741 500 316.297 500 250.018C500 218.515 494.21 187.795 482.79 158.71C482.174 157.139 480.661 156.108 478.976 156.108Z" fill="#171717"/>
</g>
<defs>
<clipPath id="clip0_20_666">
<rect width="500" height="500" fill="white"/>
</clipPath>
</defs>
</svg>
