<svg width="500" height="500" viewBox="0 0 500 500" fill="none" xmlns="http://www.w3.org/2000/svg">
<g clip-path="url(#clip0_20_543)">
<path d="M320.79 149.533H322.497L321.643 148.571L381.41 81.2662V79.8239C331.035 29.826 261.45 12.519 196.987 34.1527C132.524 55.7864 83.0028 113.476 65.0728 186.55C65.9266 186.07 67.2073 185.589 68.488 185.589C90.6871 169.243 117.155 159.628 144.904 159.628C154.296 159.628 163.261 160.59 172.226 162.513C172.653 162.032 173.08 162.032 173.507 162.032C211.929 114.438 276.818 108.669 321.217 149.533H320.79Z" fill="#171717"/>
<path d="M438.189 185.589C428.37 144.725 407.878 107.707 379.276 79.3433L318.228 147.61C343.843 171.166 358.784 206.742 357.93 243.76V255.778C430.078 255.778 430.078 376.927 357.93 376.927H249.496V473.077H249.069L249.496 474.039H357.93C420.259 474.519 475.33 429.329 493.687 362.985C512.044 296.642 489.418 224.53 438.189 185.589Z" fill="#171717"/>
<path d="M143.197 474.519H255.473V377.408H143.197C135.085 377.408 127.401 375.485 120.144 372.12L55.2539 442.309V443.271C80.8683 463.943 111.606 475 143.624 475L143.197 474.519Z" fill="#171717"/>
<path d="M148.319 157.225C84.7103 157.705 28.3587 201.934 7.8672 266.835C-12.6243 332.217 7.8672 403.849 58.2421 446.155L124.84 374.523C88.1256 356.736 79.5875 304.815 107.763 274.527C135.939 243.76 183.753 253.374 200.402 292.796L266.999 221.164C238.824 181.262 194.852 157.705 148.319 158.186V157.225Z" fill="#171717"/>
</g>
<defs>
<clipPath id="clip0_20_543">
<rect width="500" height="500" fill="white"/>
</clipPath>
</defs>
</svg>
