<svg width="500" height="500" viewBox="0 0 500 500" fill="none" xmlns="http://www.w3.org/2000/svg">
<g clip-path="url(#clip0_20_577)">
<path d="M77.318 246.478H98.8203V290.552C92.1112 293.698 83.64 295.423 74.8342 295.423C39.1461 295.423 18.171 250.823 18.171 207.265C18.171 164.543 37.1434 134.577 63.6124 134.577C80.3616 134.577 90.1074 142.858 98.8264 154.393V168.772L115.175 144.913C104.834 134.703 89.8609 125 68.4587 125C21.4755 125 0 174.054 0 214.367C0 271.748 28.6386 306.315 64.6277 306.315C82.0779 306.315 97.5719 302.428 115.469 295.16V249.624C115.469 247.296 116.17 245.698 117.218 244.295L122.866 236.053H84.5145L77.318 246.478Z" fill="#171717"/>
<path d="M173.641 186.581C146.598 186.581 129.842 215.42 129.842 246.03C129.842 272.452 143.341 303.821 170.69 303.821C196.999 303.821 213.14 274.926 213.14 243.78C213.14 214.767 197.366 186.592 173.641 186.592V186.581ZM169.154 194.989C188.22 194.989 196.711 231.241 196.711 257.097C196.711 295.55 176.945 296.31 174.581 296.31C165.536 296.31 159.214 288.332 154.481 277.867C150.316 268.223 146.244 250.306 146.244 232.799C146.244 215.361 150.155 206.846 156.311 200.581C161.344 195.885 166.057 194.989 169.147 194.989H169.154Z" fill="#171717"/>
<path d="M350.42 186.572C326.801 186.572 314.024 208.395 314.024 232.76C314.024 251.31 323.13 272.236 341.915 272.236H346.667C346.667 272.236 345.373 276.825 345.366 281.258C345.366 287.796 346.975 291.468 350.392 297.118C318.069 299.992 305.078 319.019 305.078 339.469C305.078 357.376 316.828 375 341.52 375C370.753 375 385.893 351.315 385.893 328.071C385.893 311.684 380.299 302.702 366.134 287.211C361.968 282.486 361.16 279.477 361.16 275.941C361.16 270.875 363.236 267.522 363.997 266.256C365.339 264.191 367.662 261.833 368.53 260.703C373.29 254.819 380.012 246.11 380.012 228.729C380.012 216.804 376.614 206.546 368.871 196.94H378.323L385.426 186.574H350.42V186.572ZM343.905 194.327C348.191 194.327 351.768 196.538 355.547 201.127C359.738 206.641 366.435 221.459 366.435 239.794C366.435 259.581 355.901 264.998 350.2 264.998C347.41 264.998 344.066 263.858 341.235 261.033C334.946 255.081 328.704 239.239 328.704 220.387C328.704 203.377 335.647 194.327 343.905 194.327ZM353.258 304.63C355.059 304.63 356.355 304.845 356.355 304.845C356.355 304.845 360.607 309.278 363.578 312.589C370.494 320.568 374.806 326.667 374.806 337.531C374.806 352.466 365.313 364.176 349.939 364.176C333.064 364.176 320.166 352.709 320.166 333.985C320.166 318.475 329.004 305.126 353.258 304.63Z" fill="#171717"/>
<path d="M390.54 300.402H422.964L427.903 293.193L418.604 291.498C416.1 291.05 414.612 287.893 414.612 284.834V141.904C414.612 139.089 415.507 137.647 416.16 136.73L422.009 128.196H394.358L387.162 138.698H397.91V286.753C397.91 288.857 397.456 290.289 396.481 291.76L390.54 300.402Z" fill="#171717"/>
<path d="M466.895 186.581C448.791 186.581 429.559 206.719 429.559 242.873C429.559 272.732 443.357 303.821 469.139 303.821C475.567 303.821 480.861 302.614 485.821 299.292C491.142 295.717 496.262 289.91 499.999 282.613C492.944 287.806 487.189 291.216 479.545 291.216C465.019 291.216 451.013 275.92 446.113 247.804L497.429 217.534C494.465 202.112 486.107 186.581 466.902 186.581H466.895ZM463.544 194.853C473.257 194.853 480.28 206.514 480.28 215.643C480.28 218.595 479.012 220.154 476.501 221.596L444.959 240.213C444.959 240.213 444.105 234.417 444.105 228.152C444.105 201.877 457.122 194.853 463.544 194.853Z" fill="#171717"/>
<path d="M265.404 186.581C238.361 186.581 221.605 215.42 221.605 246.03C221.605 272.452 235.104 303.821 262.454 303.821C288.763 303.821 304.904 274.926 304.904 243.78C304.904 214.767 289.13 186.592 265.404 186.592V186.581ZM260.918 194.989C279.984 194.989 288.475 231.241 288.475 257.097C288.475 295.55 268.708 296.31 266.345 296.31C257.3 296.31 250.978 288.332 246.245 277.867C242.08 268.223 238.007 250.306 238.007 232.799C238.007 215.361 241.919 206.846 248.074 200.581C253.108 195.885 257.821 194.989 260.911 194.989H260.918Z" fill="#171717"/>
</g>
<defs>
<clipPath id="clip0_20_577">
<rect width="500" height="500" fill="white"/>
</clipPath>
</defs>
</svg>
