<svg width="500" height="500" viewBox="0 0 500 500" fill="none" xmlns="http://www.w3.org/2000/svg">
<g clip-path="url(#clip0_20_117)">
<path d="M250 374.945C319.036 374.945 375 318.98 375 249.945C375 180.909 319.036 124.945 250 124.945C180.964 124.945 125 180.909 125 249.945C125 318.98 180.964 374.945 250 374.945Z" fill="white"/>
<path d="M250 125H466.471C444.535 86.9935 412.98 55.4322 374.978 33.4896C336.976 11.547 293.866 -0.00354943 249.984 -0.000487673C206.101 0.00257409 162.993 11.5591 124.994 33.507C86.9948 55.455 55.4438 87.0207 33.5137 125.03L141.749 312.5L141.846 312.475C130.836 293.488 125.025 271.934 125 249.986C124.976 228.038 130.738 206.471 141.705 187.459C152.673 168.448 168.459 152.664 187.472 141.698C206.484 130.733 228.052 124.973 250 125Z" fill="url(#paint0_linear_20_117)"/>
<path d="M250 348.958C304.653 348.958 348.958 304.653 348.958 250C348.958 195.347 304.653 151.042 250 151.042C195.347 151.042 151.042 195.347 151.042 250C151.042 304.653 195.347 348.958 250 348.958Z" fill="#1A73E8"/>
<path d="M358.243 312.53L250.007 500C293.889 500.006 337 488.458 375.003 466.519C413.007 444.579 444.565 413.02 466.503 375.015C488.441 337.011 499.987 293.9 499.979 250.018C499.971 206.136 488.41 163.029 466.458 125.032H249.988L249.962 125.129C271.911 125.087 293.482 130.831 312.503 141.784C331.523 152.737 347.319 168.51 358.3 187.514C369.281 206.518 375.057 228.082 375.047 250.03C375.037 271.978 369.241 293.536 358.243 312.53Z" fill="url(#paint1_linear_20_117)"/>
<path d="M141.756 312.532L33.5209 125.062C11.5743 163.062 0.0192137 206.171 0.0175783 250.053C0.0159429 293.935 11.5678 337.045 33.5116 375.046C55.4554 413.048 87.0176 444.602 125.025 466.537C163.032 488.471 206.144 500.012 250.026 500L358.262 312.53L358.192 312.459C347.254 331.488 331.493 347.297 312.497 358.293C293.502 369.288 271.943 375.081 249.995 375.089C228.047 375.096 206.484 369.317 187.482 358.335C168.479 347.352 152.707 331.554 141.756 312.532Z" fill="url(#paint2_linear_20_117)"/>
</g>
<defs>
<linearGradient id="paint0_linear_20_117" x1="33.5137" y1="156.25" x2="466.471" y2="156.25" gradientUnits="userSpaceOnUse">
<stop stop-color="#D93025"/>
<stop offset="1" stop-color="#EA4335"/>
</linearGradient>
<linearGradient id="paint1_linear_20_117" x1="215.853" y1="496.657" x2="432.332" y2="121.705" gradientUnits="userSpaceOnUse">
<stop stop-color="#FCC934"/>
<stop offset="1" stop-color="#FBBC04"/>
</linearGradient>
<linearGradient id="paint2_linear_20_117" x1="277.064" y1="484.391" x2="60.5844" y2="109.437" gradientUnits="userSpaceOnUse">
<stop stop-color="#1E8E3E"/>
<stop offset="1" stop-color="#34A853"/>
</linearGradient>
<clipPath id="clip0_20_117">
<rect width="500" height="500" fill="white"/>
</clipPath>
</defs>
</svg>
