<svg width="500" height="500" viewBox="0 0 500 500" fill="none" xmlns="http://www.w3.org/2000/svg">
<path d="M317.271 148.916H332.522L375.984 100.311L378.119 79.675C353.221 55.0989 323.131 38.0267 290.693 30.0712C258.254 22.1157 224.538 23.5395 192.728 34.208C160.919 44.8766 132.066 64.4377 108.896 91.0436C85.7259 117.65 69.0034 150.422 60.3081 186.265C65.15 184.045 70.5137 183.685 75.5582 185.242L162.483 169.21C162.483 169.21 166.906 161.024 169.193 161.536C187.819 138.66 213.559 124.612 241.143 122.265C268.728 119.919 296.072 129.453 317.576 148.916H317.271Z" fill="#EA4335"/>
<path d="M437.901 186.265C427.91 145.123 407.399 108.138 378.883 79.8455L317.883 148.063C330.596 159.68 340.784 174.373 347.679 191.035C354.574 207.698 357.995 225.893 357.685 244.25V256.358C364.815 256.358 371.874 257.929 378.461 260.98C385.048 264.031 391.033 268.503 396.074 274.141C401.115 279.779 405.114 286.472 407.843 293.838C410.571 301.204 411.975 309.099 411.975 317.072C411.975 325.045 410.571 332.94 407.843 340.306C405.114 347.672 401.115 354.365 396.074 360.003C391.033 365.64 385.048 370.113 378.461 373.164C371.874 376.215 364.815 377.785 357.685 377.785H249.105L238.277 390.064V462.886L249.105 474.995H357.685C388.006 475.259 417.597 464.602 442.082 444.6C466.567 424.599 484.645 396.315 493.641 363.932C502.638 331.55 502.075 296.79 492.036 264.793C481.998 232.796 463.017 205.262 437.901 186.265Z" fill="#4285F4"/>
<path d="M140.372 474.313H248.953V377.103H140.372C132.636 377.101 124.991 375.24 117.955 371.646L102.705 376.933L58.937 425.538L55.1245 442.592C79.6684 463.318 109.617 474.462 140.372 474.313Z" fill="#34A853"/>
<path d="M140.372 158.978C110.952 159.175 82.3213 169.642 58.4791 188.919C34.6368 208.195 16.7736 235.318 7.3844 266.499C-2.00483 297.68 -2.45118 331.362 6.10768 362.841C14.6665 394.319 31.8032 422.022 55.1241 442.08L118.107 371.646C110.103 367.602 103.096 361.447 97.687 353.709C92.278 345.971 88.6285 336.88 87.0516 327.218C85.4747 317.556 86.0175 307.61 88.6334 298.234C91.2493 288.858 95.8602 280.331 102.071 273.386C108.281 266.441 115.905 261.285 124.289 258.359C132.674 255.434 141.567 254.827 150.207 256.59C158.847 258.354 166.976 262.435 173.895 268.484C180.815 274.533 186.319 282.369 189.935 291.32L252.917 220.885C239.698 201.559 222.66 185.914 203.135 175.174C183.611 164.434 162.13 158.891 140.372 158.978Z" fill="#FBBC05"/>
</svg>
