<svg width="500" height="500" viewBox="0 0 500 500" fill="none" xmlns="http://www.w3.org/2000/svg">
<g clip-path="url(#clip0_20_587)">
<path d="M490 255.682C490 237.954 488.409 220.909 485.455 204.545H250V301.364H384.545C378.636 332.5 360.909 358.864 334.318 376.591V439.545H415.455C462.727 395.909 490 331.818 490 255.682Z" fill="#4285F4"/>
<path d="M250.001 500C317.501 500 374.092 477.727 415.456 439.545L334.319 376.591C312.047 391.591 283.638 400.682 250.001 400.682C185.001 400.682 129.774 356.818 110.001 297.727H26.8193V362.273C67.9557 443.864 152.274 500 250.001 500Z" fill="#34A853"/>
<path d="M110 297.5C105 282.5 102.045 266.591 102.045 250C102.045 233.409 105 217.5 110 202.5V137.955H26.8182C9.77273 171.591 0 209.545 0 250C0 290.455 9.77273 328.409 26.8182 362.045L91.5909 311.591L110 297.5Z" fill="#FBBC05"/>
<path d="M250.001 99.5454C286.819 99.5454 319.547 112.273 345.683 136.818L417.274 65.2273C373.865 24.7727 317.501 0 250.001 0C152.274 0 67.9557 56.1364 26.8193 137.955L110.001 202.5C129.774 143.409 185.001 99.5454 250.001 99.5454Z" fill="#EA4335"/>
</g>
<defs>
<clipPath id="clip0_20_587">
<rect width="500" height="500" fill="white"/>
</clipPath>
</defs>
</svg>
