<svg width="500" height="500" viewBox="0 0 500 500" fill="none" xmlns="http://www.w3.org/2000/svg">
<path d="M266.593 246.248V319.708H250V138.033H293.142C303.65 138.033 313.606 143.562 321.35 153.831C329.093 163.31 332.965 177.528 332.965 192.536C332.965 207.543 329.093 220.972 321.35 231.24C313.606 241.509 304.204 247.038 293.142 247.038L266.593 246.248ZM266.593 160.15V223.341H294.248C300.332 223.341 306.416 220.182 310.288 213.863C319.137 202.014 319.137 182.267 310.841 170.419L310.288 169.629C305.863 163.31 300.332 159.36 294.248 160.15H266.593Z" fill="#171717"/>
<path d="M371.129 191.746C383.297 191.746 392.699 196.485 399.89 205.964C407.08 215.442 410.398 228.081 410.398 243.878V319.708H394.912V302.33H394.359C387.722 316.548 378.319 323.657 367.257 323.657C357.854 323.657 349.558 319.708 342.921 311.809C336.837 303.91 332.965 292.852 332.965 281.003C332.965 268.365 336.283 258.096 342.921 250.197C349.558 242.299 358.96 239.139 370.022 239.139C379.978 239.139 387.721 241.509 393.806 247.038V241.509C393.806 233.61 391.593 225.711 387.168 220.972C382.744 215.442 377.213 212.283 371.129 212.283C361.726 212.283 354.536 217.812 349.558 228.87L335.177 216.232C344.027 199.644 355.642 191.746 371.129 191.746ZM350.111 281.793C350.111 288.112 352.323 293.641 355.642 296.801C359.514 300.75 363.938 303.12 368.363 303.12C375 303.12 381.637 299.171 386.615 292.062C392.146 284.953 394.912 276.264 394.912 266.785C389.934 261.256 382.744 258.096 373.341 258.096C366.704 258.096 361.173 260.466 356.748 265.205C352.323 269.155 350.111 274.684 350.111 281.793Z" fill="#171717"/>
<path d="M500 195.695L445.243 375H428.65L449.115 312.599L413.164 196.485H430.863L456.858 285.742H457.411L482.854 196.485H500V195.695Z" fill="#171717"/>
<path d="M200 246.2C200 238.123 199.228 230.046 198.457 221.969H102.025V267.738H156.798C154.484 282.097 147.541 295.558 136.74 303.635V333.249H169.913C189.199 312.609 200 282.097 200 246.2Z" fill="#4285F4"/>
<path d="M102.025 361.967C129.797 361.967 152.941 351.198 169.913 333.249L136.741 303.634C127.483 310.814 115.911 315.301 102.025 315.301C75.7955 315.301 52.6518 294.66 44.9372 265.943H10.9932V296.455C28.7367 336.839 63.4522 361.967 102.025 361.967Z" fill="#34A853"/>
<path d="M44.9373 265.943C40.3086 251.584 40.3086 235.43 44.9373 220.174V189.662H10.9933C-3.66442 222.866 -3.66442 262.353 10.9933 296.455L44.9373 265.943Z" fill="#FBBC04"/>
<path d="M102.025 171.714C116.683 171.714 130.569 177.996 141.369 189.662L170.685 155.561C152.17 135.817 127.483 124.151 102.797 125.048C64.2237 125.048 28.7367 150.176 11.7646 190.56L45.7087 221.072C52.6518 192.355 75.7955 171.714 102.025 171.714Z" fill="#EA4335"/>
</svg>
