<svg width="150" height="150" viewBox="0 0 150 150" fill="none" xmlns="http://www.w3.org/2000/svg">
<rect width="150" height="150" fill="#E6130C"/>
<path d="M69.4846 120H38.6785V29.0909H70.1061C79.1319 29.0909 86.8852 30.9109 93.366 34.5508C99.8765 38.1611 104.878 43.3546 108.37 50.1314C111.862 56.9081 113.608 65.0166 113.608 74.4567C113.608 83.9264 111.847 92.0644 108.325 98.8707C104.833 105.677 99.7877 110.9 93.1885 114.54C86.6189 118.18 78.7176 120 69.4846 120ZM55.1469 105.751H68.6856C75.0185 105.751 80.3008 104.597 84.5326 102.289C88.7644 99.9509 91.9456 96.4737 94.0763 91.8572C96.2069 87.2112 97.2723 81.411 97.2723 74.4567C97.2723 67.5024 96.2069 61.7318 94.0763 57.1449C91.9456 52.5284 88.7939 49.0808 84.6214 46.8022C80.4784 44.494 75.3292 43.3398 69.1739 43.3398H55.1469V105.751Z" fill="#FBFFF8"/>
</svg>
