<svg width="500" height="500" viewBox="0 0 500 500" fill="none" xmlns="http://www.w3.org/2000/svg">
<path d="M484.745 335.886C482.204 333.564 478.477 333.109 475.442 334.711C388.541 380.802 281.892 350.145 232.684 264.911C183.476 179.679 210.237 72.0039 293.61 19.7774C296.524 17.9553 297.978 14.4922 297.238 11.1389C296.502 7.78004 293.736 5.24445 290.328 4.81088C236.307 -2.1318 182.812 8.60877 135.597 35.8745C78.4856 68.8317 37.6309 122.079 20.5623 185.781C3.49376 249.484 12.2531 316.018 45.2321 373.135C78.2057 430.251 131.448 471.106 195.15 488.175C216.423 493.872 238.008 496.693 259.456 496.693C302.237 496.693 344.464 485.475 382.503 463.51C429.708 436.256 465.766 395.291 486.764 345.04C488.093 341.868 487.28 338.207 484.745 335.886Z" fill="url(#paint0_linear_142_184)"/>
<defs>
<linearGradient id="paint0_linear_142_184" x1="-52.8081" y1="492.289" x2="174.283" y2="-75.4254" gradientUnits="userSpaceOnUse">
<stop stop-color="#FCC934"/>
<stop offset="1" stop-color="#FBBC04"/>
</linearGradient>
</defs>
</svg>
