<svg width="500" height="500" viewBox="0 0 500 500" fill="none" xmlns="http://www.w3.org/2000/svg">
<g clip-path="url(#clip0_39_198)">
<path d="M490.538 227.734L272.265 9.45296C269.279 6.4567 265.731 4.07932 261.825 2.45717C257.918 0.835016 253.73 0 249.5 0C245.27 0 241.082 0.835016 237.175 2.45717C233.269 4.07932 229.721 6.4567 226.735 9.45296L181.402 54.7877L238.894 112.282C245.674 109.975 252.965 109.618 259.937 111.253C266.91 112.888 273.282 116.449 278.33 121.53C283.377 126.611 286.895 133.007 288.484 139.99C290.073 146.973 289.668 154.262 287.316 161.027L342.666 216.378C350.939 213.536 359.937 213.615 368.159 216.601C376.382 219.588 383.333 225.302 387.854 232.791C392.375 240.281 394.193 249.093 393.006 257.761C391.818 266.428 387.697 274.427 381.328 280.424C374.959 286.421 366.727 290.055 358.005 290.72C349.282 291.385 340.595 289.04 333.391 284.077C326.187 279.114 320.901 271.832 318.414 263.445C315.927 255.058 316.389 246.071 319.723 237.983L268.033 186.292V322.296C275.863 326.176 282.128 332.621 285.783 340.559C289.439 348.496 290.265 357.446 288.123 365.918C285.982 374.391 281.003 381.874 274.015 387.121C267.027 392.368 258.452 395.062 249.719 394.755C240.986 394.448 232.622 391.158 226.02 385.434C219.417 379.709 214.976 371.895 213.434 363.293C211.893 354.692 213.345 345.821 217.549 338.16C221.753 330.499 228.454 324.51 236.538 321.189V183.935C231.861 182.017 227.611 179.192 224.031 175.623C220.451 172.054 217.613 167.813 215.679 163.143C213.746 158.472 212.756 153.465 212.765 148.411C212.775 143.356 213.785 138.353 215.737 133.69L159.137 77.0533L9.46159 226.788C6.46274 229.774 4.08319 233.323 2.45951 237.232C0.835829 241.14 0 245.33 0 249.563C0 253.795 0.835829 257.985 2.45951 261.893C4.08319 265.802 6.46274 269.351 9.46159 272.337L227.735 490.547C230.721 493.543 234.269 495.921 238.175 497.543C242.082 499.165 246.27 500 250.5 500C254.73 500 258.918 499.165 262.825 497.543C266.731 495.921 270.279 493.543 273.265 490.547L490.538 273.212C493.537 270.226 495.917 266.677 497.54 262.768C499.164 258.86 500 254.67 500 250.437C500 246.205 499.164 242.015 497.54 238.107C495.917 234.198 493.537 230.649 490.538 227.663" fill="#DD4C35"/>
<path d="M181.402 54.7876L238.894 112.282C245.673 109.975 252.964 109.618 259.937 111.253C266.909 112.888 273.282 116.449 278.329 121.53C283.376 126.611 286.894 133.007 288.483 139.99C290.072 146.973 289.668 154.262 287.316 161.027L342.665 216.378C350.939 213.536 359.936 213.615 368.159 216.601C376.381 219.588 383.332 225.302 387.853 232.791C392.374 240.281 394.193 249.093 393.005 257.761C391.818 266.428 387.696 274.427 381.327 280.424C374.958 286.421 366.727 290.055 358.004 290.72C349.281 291.385 340.594 289.04 333.39 284.077C326.186 279.114 320.9 271.832 318.413 263.445C315.926 255.058 316.388 246.071 319.722 237.983L268.032 186.292V322.296C275.863 326.176 282.127 332.621 285.783 340.559C289.438 348.496 290.264 357.446 288.123 365.918C285.981 374.391 281.002 381.874 274.014 387.121C267.026 392.368 258.452 395.062 249.719 394.755C240.986 394.448 232.621 391.158 226.019 385.434C219.417 379.709 214.975 371.895 213.434 363.293C211.892 354.691 213.345 345.821 217.548 338.16C221.752 330.499 228.454 324.51 236.537 321.189V183.935C231.861 182.017 227.61 179.192 224.03 175.623C220.45 172.054 217.612 167.813 215.679 163.142C213.745 158.472 212.755 153.465 212.765 148.411C212.775 143.356 213.784 138.353 215.736 133.69L159.137 77.0532" fill="white"/>
</g>
<defs>
<clipPath id="clip0_39_198">
<rect width="500" height="500" fill="white"/>
</clipPath>
</defs>
</svg>
