<svg width="500" height="500" viewBox="0 0 500 500" fill="none" xmlns="http://www.w3.org/2000/svg">
<g clip-path="url(#clip0_142_167)">
<path d="M249.661 341.855C223.874 341.855 202.174 333.05 184.56 315.44C166.95 297.826 158.145 276.126 158.145 250.339C158.145 224.548 166.95 202.735 184.56 184.899C202.174 167.063 223.874 158.145 249.661 158.145C275.452 158.145 297.265 167.063 315.101 184.899C332.937 202.735 341.855 224.548 341.855 250.339C341.855 276.126 332.937 297.826 315.101 315.44C297.265 333.05 275.452 341.855 249.661 341.855ZM87.396 250.404C87.396 255.927 82.9188 260.404 77.396 260.404H10C4.47715 260.404 0 255.927 0 250.404V249.596C0 244.073 4.47715 239.596 10 239.596H77.396C82.9188 239.596 87.396 244.073 87.396 249.596V250.404ZM500 250.404C500 255.927 495.523 260.404 490 260.404H422.604C417.081 260.404 412.604 255.927 412.604 250.404V249.596C412.604 244.073 417.081 239.596 422.604 239.596H490C495.523 239.596 500 244.073 500 249.596V250.404ZM249.596 87.396C244.073 87.396 239.596 82.9188 239.596 77.396V10C239.596 4.47715 244.073 0 249.596 0H250.404C255.927 0 260.404 4.47715 260.404 10V77.396C260.404 82.9188 255.927 87.396 250.404 87.396H249.596ZM249.596 500C244.073 500 239.596 495.523 239.596 490V422.604C239.596 417.081 244.073 412.604 249.596 412.604H250.404C255.927 412.604 260.404 417.081 260.404 422.604V490C260.404 495.523 255.927 500 250.404 500H249.596ZM135.934 134.823C132.172 139.098 125.595 139.343 121.525 135.362L81.3976 96.1069C77.476 92.2705 77.3774 85.9909 81.1767 82.0333L81.5169 81.6789C85.397 77.6372 91.8402 77.5714 95.8019 81.5331L135.5 121.232C139.207 124.939 139.397 130.887 135.934 134.823ZM418.395 418.097C414.575 422.249 408.078 422.421 404.044 418.477L364.709 380.016C360.899 376.29 360.679 370.231 364.21 366.24L364.577 365.825C368.381 361.525 375.016 361.304 379.098 365.341L418.231 404.038C422.058 407.823 422.203 413.958 418.558 417.919L418.395 418.097ZM364.675 135.487C360.634 131.607 360.568 125.163 364.53 121.202L404.038 81.6934C407.829 77.9027 413.934 77.7755 417.88 81.4052L418.054 81.5654C422.222 85.4005 422.376 91.9292 418.393 95.9566L379.104 135.682C375.261 139.568 369.011 139.649 365.069 135.864L364.675 135.487ZM81.0635 418.443C77.309 414.532 77.3547 408.342 81.1665 404.487L120.031 365.181C123.718 361.452 129.693 361.305 133.559 364.849C137.59 368.544 137.796 374.83 134.016 378.782L95.7983 418.737C91.8652 422.849 85.2986 422.855 81.358 418.75L81.0635 418.443Z" fill="url(#paint0_linear_142_167)"/>
</g>
<defs>
<linearGradient id="paint0_linear_142_167" x1="-68.2142" y1="495.543" x2="155.293" y2="-85.0558" gradientUnits="userSpaceOnUse">
<stop stop-color="#FCC934"/>
<stop offset="1" stop-color="#FBBC04"/>
</linearGradient>
<clipPath id="clip0_142_167">
<rect width="500" height="500" fill="white"/>
</clipPath>
</defs>
</svg>
