<svg xmlns="http://www.w3.org/2000/svg" width="500" height="500" fill="none" viewBox="0 0 500 500">
  <g class="no_image" clip-path="url(#a)">
    <path fill="#262626" d="M0 0h500v500H0z"/>
    <g class="Group">
      <path stroke="currentColor" stroke-width=".5" d="M55.556 0H0v55.556h55.556V0Zm55.555 0H55.556v55.556h55.555V0Zm55.556 0h-55.556v55.556h55.556V0Zm55.555 0h-55.555v55.556h55.555V0Zm55.556 0h-55.556v55.556h55.556V0Zm55.555 0h-55.555v55.556h55.555V0Zm55.556 0h-55.556v55.556h55.556V0Zm55.555 0h-55.555v55.556h55.555V0ZM500 0h-55.556v55.556H500V0Z" class="Vector"/>
      <path stroke="currentColor" stroke-width=".5" d="M55.556 55.556H0v55.555h55.556V55.555Zm55.555 0H55.556v55.555h55.555V55.555Zm55.556 0h-55.556v55.555h55.556V55.555Zm55.555 0h-55.555v55.555h55.555V55.555Zm55.556 0h-55.556v55.555h55.556V55.555Zm55.555 0h-55.555v55.555h55.555V55.555Zm55.556 0h-55.556v55.555h55.556V55.555Zm55.555 0h-55.555v55.555h55.555V55.555Zm55.556 0h-55.556v55.555H500V55.555ZM55.556 111.111H0v55.556h55.556v-55.556Zm55.555 0H55.556v55.556h55.555v-55.556Zm55.556 0h-55.556v55.556h55.556v-55.556Zm55.555 0h-55.555v55.556h55.555v-55.556Zm55.556 0h-55.556v55.556h55.556v-55.556Zm55.555 0h-55.555v55.556h55.555v-55.556Zm55.556 0h-55.556v55.556h55.556v-55.556Zm55.555 0h-55.555v55.556h55.555v-55.556Zm55.556 0h-55.556v55.556H500v-55.556ZM55.556 166.667H0v55.555h55.556v-55.555Zm55.555 0H55.556v55.555h55.555v-55.555Zm55.556 0h-55.556v55.555h55.556v-55.555Zm55.555 0h-55.555v55.555h55.555v-55.555Zm55.556 0h-55.556v55.555h55.556v-55.555Zm55.555 0h-55.555v55.555h55.555v-55.555Zm55.556 0h-55.556v55.555h55.556v-55.555Zm55.555 0h-55.555v55.555h55.555v-55.555Zm55.556 0h-55.556v55.555H500v-55.555ZM55.556 222.222H0v55.556h55.556v-55.556Zm55.555 0H55.556v55.556h55.555v-55.556Zm55.556 0h-55.556v55.556h55.556v-55.556Zm55.555 0h-55.555v55.556h55.555v-55.556Zm55.556 0h-55.556v55.556h55.556v-55.556Zm55.555 0h-55.555v55.556h55.555v-55.556Zm55.556 0h-55.556v55.556h55.556v-55.556Zm55.555 0h-55.555v55.556h55.555v-55.556Zm55.556 0h-55.556v55.556H500v-55.556ZM55.556 277.778H0v55.555h55.556v-55.555Zm55.555 0H55.556v55.555h55.555v-55.555Zm55.556 0h-55.556v55.555h55.556v-55.555Zm55.555 0h-55.555v55.555h55.555v-55.555Zm55.556 0h-55.556v55.555h55.556v-55.555Zm55.555 0h-55.555v55.555h55.555v-55.555Zm55.556 0h-55.556v55.555h55.556v-55.555Zm55.555 0h-55.555v55.555h55.555v-55.555Zm55.556 0h-55.556v55.555H500v-55.555ZM55.556 333.333H0v55.556h55.556v-55.556Zm55.555 0H55.556v55.556h55.555v-55.556Zm55.556 0h-55.556v55.556h55.556v-55.556Zm55.555 0h-55.555v55.556h55.555v-55.556Zm55.556 0h-55.556v55.556h55.556v-55.556Zm55.555 0h-55.555v55.556h55.555v-55.556Zm55.556 0h-55.556v55.556h55.556v-55.556Zm55.555 0h-55.555v55.556h55.555v-55.556Zm55.556 0h-55.556v55.556H500v-55.556ZM55.556 388.889H0v55.555h55.556v-55.555Zm55.555 0H55.556v55.555h55.555v-55.555Zm55.556 0h-55.556v55.555h55.556v-55.555Zm55.555 0h-55.555v55.555h55.555v-55.555Zm55.556 0h-55.556v55.555h55.556v-55.555Zm55.555 0h-55.555v55.555h55.555v-55.555Zm55.556 0h-55.556v55.555h55.556v-55.555Zm55.555 0h-55.555v55.555h55.555v-55.555Zm55.556 0h-55.556v55.555H500v-55.555ZM55.556 444.444H0V500h55.556v-55.556Zm55.555 0H55.556V500h55.555v-55.556Zm55.556 0h-55.556V500h55.556v-55.556Zm55.555 0h-55.555V500h55.555v-55.556Zm55.556 0h-55.556V500h55.556v-55.556Zm55.555 0h-55.555V500h55.555v-55.556Zm55.556 0h-55.556V500h55.556v-55.556Zm55.555 0h-55.555V500h55.555v-55.556Zm55.556 0h-55.556V500H500v-55.556Z" class="Vector"/>
    </g>
    <g class="Frame 1">
      <path fill="#262626" d="M56 167h388v166H56z"/>
      <path fill="#F8FAFC" d="M110.469 234v-45.5h10.906l12.563 25.594c.291.666.562 1.364.812 2.094.271.729.49 1.427.656 2.093h.188a72.728 72.728 0 0 1-.032-2.156V188.5h9.126V234H134l-12.812-25.75a44.03 44.03 0 0 1-.844-2 28.552 28.552 0 0 1-.656-2.031h-.188c.062.708.094 1.396.094 2.062V234h-9.125Zm39.5-21.469v-2.562c0-7.646 1.781-13.25 5.343-16.813 3.563-3.562 8.136-5.344 13.719-5.344 5.604 0 10.188 1.782 13.75 5.344 3.563 3.563 5.344 9.167 5.344 16.813v2.562c0 7.646-1.781 13.25-5.344 16.813-3.562 3.562-8.146 5.344-13.75 5.344-5.583 0-10.156-1.782-13.719-5.344-3.562-3.563-5.343-9.167-5.343-16.813Zm11.125 2.688c0 4.271.708 7.343 2.125 9.219 1.416 1.854 3.354 2.781 5.812 2.781 2.459 0 4.396-.927 5.813-2.781 1.416-1.876 2.125-4.948 2.125-9.219v-7.875c0-4.25-.709-7.302-2.125-9.156-1.417-1.855-3.354-2.782-5.813-2.782-2.458 0-4.396.927-5.812 2.782-1.417 1.854-2.125 4.906-2.125 9.156v7.875ZM208.719 234v-45.5h10.875V234h-10.875Zm17.375 0v-45.5h14.781l9.031 26.844c.229.708.438 1.406.625 2.094.188.666.354 1.385.5 2.156h.125c.146-.771.313-1.49.5-2.156.188-.688.396-1.386.625-2.094l9.031-26.844h14.813V234h-10.563v-27.188c0-.708.011-1.489.032-2.343.021-.875.062-1.667.125-2.375h-.188a59.309 59.309 0 0 1-.531 2.375 29.5 29.5 0 0 1-.625 2.343L255.562 234h-9.531l-8.875-27.188a51.058 51.058 0 0 1-.656-2.5c-.229-.958-.375-1.697-.438-2.218h-.187c.021.521.042 1.26.063 2.218.041.959.062 1.792.062 2.5V234h-9.906Zm52.75 0 14.937-45.562h11.875L320.406 234h-10.718l-9.376-31.062c-.229-.813-.427-1.532-.593-2.157a73.097 73.097 0 0 0-.407-1.719h-.124c-.126.5-.271 1.073-.438 1.719a168.46 168.46 0 0 1-.594 2.157L289.125 234h-10.281Zm8.531-9.25 1.656-7.219h20.75l1.75 7.219h-24.156Zm33.281-12.219v-2.562c0-7.25 1.74-12.75 5.219-16.5 3.479-3.771 8.187-5.657 14.125-5.657 5.354 0 9.469 1.313 12.344 3.938s4.323 6.042 4.344 10.25v1.25h-10.25v-.75c0-2.146-.573-3.812-1.719-5-1.125-1.208-2.834-1.812-5.125-1.812-2.438 0-4.354.968-5.75 2.906-1.396 1.937-2.094 4.927-2.094 8.968v7.532c0 3.937.75 6.927 2.25 8.968 1.521 2.021 3.625 3.032 6.312 3.032 1.355 0 2.521-.167 3.5-.5 1-.354 1.928-.896 2.782-1.625v-7.75h-6.875v-7.313l17.062-.031v18.563c-1.187 1.374-3.156 2.76-5.906 4.156-2.75 1.396-6.302 2.094-10.656 2.094-6 0-10.761-1.876-14.281-5.626-3.521-3.77-5.282-9.281-5.282-16.531ZM362.031 234v-45.5h29.594v8.438h-19.25v10.124h16.469v7.594h-16.469v11.125h19.687V234h-30.031ZM94.219 309l14.937-45.562h11.875L135.781 309h-10.719l-9.374-31.062c-.23-.813-.428-1.532-.594-2.157a85.27 85.27 0 0 0-.406-1.719h-.126c-.124.5-.27 1.073-.437 1.719a168.46 168.46 0 0 1-.594 2.157L104.5 309H94.219Zm8.531-9.25 1.656-7.219h20.75l1.75 7.219H102.75Zm29.188-36.25H143l8.938 29.406c.145.459.27.927.374 1.406l.376 1.376h.156c.104-.459.218-.938.344-1.438.145-.5.281-.948.406-1.344l8.937-29.406h10.407l-14.532 45.719h-11.937L131.938 263.5Zm37.218 45.5 14.938-45.562h11.875L210.719 309H200l-9.375-31.062a168.46 168.46 0 0 1-.594-2.157 78.946 78.946 0 0 0-.406-1.719h-.125c-.125.5-.271 1.073-.438 1.719-.166.625-.364 1.344-.593 2.157L179.438 309h-10.282Zm8.532-9.25 1.656-7.219h20.75l1.75 7.219h-24.156Zm35.781 9.25v-45.5h10.875V309h-10.875Zm17.375 0v-45.5h10.718v37.062h17.594V309h-28.312Zm29.062 0 14.938-45.562h11.875L301.469 309H290.75l-9.375-31.062a168.46 168.46 0 0 1-.594-2.157 78.946 78.946 0 0 0-.406-1.719h-.125c-.125.5-.271 1.073-.438 1.719-.166.625-.364 1.344-.593 2.157L270.188 309h-10.282Zm8.532-9.25 1.656-7.219h20.75l1.75 7.219h-24.156Zm35.656 9.25v-45.5h18.156c4.625 0 8.073 1 10.344 3 2.291 2 3.437 4.875 3.437 8.625 0 2.583-.552 4.729-1.656 6.437-1.104 1.688-2.542 2.844-4.313 3.469v.125c2.188.563 3.99 1.761 5.407 3.594 1.437 1.812 2.156 4.312 2.156 7.5 0 4-1.313 7.125-3.937 9.375-2.605 2.25-6.167 3.375-10.688 3.375h-18.906Zm10.468-7.188h6.157c2.083 0 3.614-.583 4.593-1.75 1-1.166 1.5-2.75 1.5-4.75 0-1.979-.5-3.562-1.5-4.75-.979-1.208-2.51-1.812-4.593-1.812h-6.157v13.062Zm0-18.937h5.532c2 0 3.448-.531 4.344-1.594.895-1.062 1.343-2.552 1.343-4.469 0-1.895-.448-3.343-1.343-4.343-.896-1-2.344-1.5-4.344-1.5h-5.532v11.906ZM342.219 309v-45.5h10.719v37.062h17.593V309h-28.312Zm32.312 0v-45.5h29.594v8.438h-19.25v10.124h16.469v7.594h-16.469v11.125h19.687V309h-30.031Z" class="NO IMAGE AVAILABLE"/>
    </g>
  </g>
  <defs>
    <clipPath id="a" class="a">
      <path fill="#fff" d="M0 0h500v500H0z"/>
    </clipPath>
  </defs>
</svg>
