<svg width="500" height="500" viewBox="0 0 500 500" fill="none" xmlns="http://www.w3.org/2000/svg">
<g clip-path="url(#clip0_142_152)">
<path d="M144.833 282.387H166.667V222.707H205.24C211.281 222.707 216.553 220.548 221.055 216.23C225.553 211.912 227.802 206.793 227.802 200.873V163.028C227.802 156.987 225.553 151.718 221.055 147.22C216.553 142.717 211.281 140.466 205.24 140.466H144.833V282.387ZM166.667 200.873V163.028H205.24V200.873H166.667ZM258.37 282.387H314.796C321.283 282.387 326.722 280.192 331.114 275.801C335.505 271.41 337.7 266.327 337.7 260.553V163.028C337.7 156.987 335.471 151.718 331.012 147.22C326.557 142.717 321.266 140.466 315.138 140.466H258.37V282.387ZM280.204 260.553V163.028H315.138V260.553H280.204ZM375.546 282.387H397.38V222.707H440.32V200.873H397.38V163.028H440.32V140.466H375.546V282.387ZM128.093 420.67C114.44 420.67 102.899 415.878 93.4716 406.296C84.0442 396.713 79.3304 385.25 79.3304 371.907V48.7627C79.3304 35.4197 84.0442 23.9568 93.4716 14.3741C102.899 4.79136 114.44 0 128.093 0H451.237C464.58 0 476.043 4.79136 485.626 14.3741C495.209 23.9568 500 35.4197 500 48.7627V371.907C500 385.25 495.209 396.713 485.626 406.296C476.043 415.878 464.58 420.67 451.237 420.67H128.093ZM48.8792 500C35.148 500 23.5687 495.209 14.1412 485.626C4.71373 476.043 0 464.541 0 451.121V102.62H25.4731V451.237C25.4731 457.06 27.8991 462.397 32.7511 467.249C37.6031 472.101 42.9403 474.527 48.7627 474.527H397.38V500H48.8792Z" fill="url(#paint0_linear_142_152)"/>
</g>
<defs>
<linearGradient id="paint0_linear_142_152" x1="0" y1="250" x2="500" y2="250" gradientUnits="userSpaceOnUse">
<stop stop-color="#D93025"/>
<stop offset="1" stop-color="#EA4335"/>
</linearGradient>
<clipPath id="clip0_142_152">
<rect width="500" height="500" fill="white"/>
</clipPath>
</defs>
</svg>
