<svg width="500" height="500" viewBox="0 0 500 500" fill="none" xmlns="http://www.w3.org/2000/svg">
<g clip-path="url(#clip0_141_120)">
<path d="M261.905 175.914V98.9912H178.231V76.9231H261.905V0H285.714V76.9231H368.027V98.9912H285.714V175.914H261.905ZM143.34 500C131.916 500 122.404 496.417 114.803 489.25C107.202 482.079 103.401 473.201 103.401 462.617C103.401 452.65 107.268 444.094 115 436.948C122.737 429.802 132.315 426.229 143.735 426.229C155.159 426.229 164.671 429.863 172.272 437.131C179.873 444.399 183.673 453.121 183.673 463.298C183.673 473.474 179.807 482.135 172.075 489.281C164.338 496.427 154.76 500 143.34 500ZM401.844 500C390.61 500 381.258 496.417 373.789 489.25C366.32 482.079 362.585 473.201 362.585 462.617C362.585 452.65 366.383 444.094 373.98 436.948C381.576 429.802 390.986 426.229 402.211 426.229C413.435 426.229 422.902 429.863 430.612 437.131C438.322 444.399 442.177 453.121 442.177 463.298C442.177 473.474 438.311 482.135 430.578 489.281C422.841 496.427 413.263 500 401.844 500ZM0 47.2888V25.2207H63.9456L177.551 245.271H358.891C362.973 245.271 366.601 244.325 369.776 242.434C372.95 240.542 375.671 237.915 377.939 234.552L472.789 76.9231H500L397.959 249.054C394.095 254.561 388.936 259.3 382.483 263.272C376.025 267.245 369.213 269.231 362.048 269.231H164.626L132.653 324.086C129.025 329.13 128.798 334.594 131.973 340.479C135.147 346.364 140.363 349.306 147.619 349.306H442.177V371.375H141.497C126.685 371.375 115.726 365.7 108.619 354.351C101.512 343.001 101.134 331.442 107.483 319.672L150.34 247.793L48.9796 47.2888H0Z" fill="#171717"/>
</g>
<defs>
<clipPath id="clip0_141_120">
<rect width="500" height="500" fill="white"/>
</clipPath>
</defs>
</svg>
