<svg width="500" height="500" viewBox="0 0 500 500" fill="none" xmlns="http://www.w3.org/2000/svg">
<g clip-path="url(#clip0_100_148)">
<path d="M115.036 155.093L62.2547 189.043C57.7435 192.644 52.5105 193.709 46.5557 192.238C40.6009 190.761 36.5859 186.867 34.5108 180.556L2.70673 118.056C0 111.883 -0.676682 106.096 0.676682 100.694C2.03004 95.2932 5.20142 91.0648 10.1908 88.0093L139.396 0H171.2C177.11 0 181.633 1.71552 184.768 5.14659C187.903 8.58281 189.471 13.5545 189.471 20.0617V25.463C189.471 45.0103 195.223 61.3426 206.726 74.4599C218.23 87.5772 232.553 94.1358 249.695 94.1358C266.838 94.1358 281.274 87.5772 293.003 74.4599C304.732 61.3426 310.597 45.0103 310.597 25.463V20.0617C310.597 13.5545 312.101 8.58281 315.11 5.14659C318.124 1.71552 322.484 0 328.191 0H359.995L489.843 88.0093C494.855 91.0648 498.038 95.2932 499.391 100.694C500.744 106.096 499.842 111.883 496.684 118.056L464.697 180.278C462.564 186.636 458.339 190.715 452.023 192.515C445.708 194.316 440.52 193.416 436.46 189.815L383.678 153.549V476.08C383.678 482.768 381.648 488.426 377.588 493.056C373.528 497.685 368.64 500 362.925 500H135.79C130.074 500 125.186 497.685 121.126 493.056C117.066 488.426 115.036 482.768 115.036 476.08V155.093ZM138.72 108.796V472.994H359.995V108.796L445.933 163.58L474.354 108.025L359.318 30.0926H332.927C332.476 55.8128 324.13 77.4177 307.89 94.9074C291.65 112.397 272.252 121.142 249.695 121.142C226.237 121.142 206.726 112.397 191.163 94.9074C175.599 77.4177 167.366 55.8128 166.464 30.0926H140.75L25.0372 108.025L53.4578 163.58L138.72 108.796Z" fill="#171717"/>
</g>
<defs>
<clipPath id="clip0_100_148">
<rect width="500" height="500" fill="white"/>
</clipPath>
</defs>
</svg>
