<svg width="500" height="500" viewBox="0 0 500 500" fill="none" xmlns="http://www.w3.org/2000/svg">
<g clip-path="url(#clip0_217_128)">
<path d="M107.477 390.966H295.95V363.707H107.477V390.966ZM107.477 263.24H392.523V235.981H107.477V263.24ZM107.477 135.514H392.523V108.255H107.477V135.514ZM52.1807 500C37.9024 500 25.636 494.873 15.3816 484.618C5.12721 474.364 0 462.098 0 447.819V52.1807C0 37.9024 5.12721 25.636 15.3816 15.3816C25.636 5.12721 37.9024 0 52.1807 0H447.819C462.098 0 474.364 5.12721 484.618 15.3816C494.873 25.636 500 37.9024 500 52.1807V447.819C500 462.098 494.873 474.364 484.618 484.618C474.364 494.873 462.098 500 447.819 500H52.1807ZM52.1807 472.741H447.819C454.05 472.741 459.761 470.145 464.953 464.953C470.145 459.761 472.741 454.05 472.741 447.819V52.1807C472.741 45.9502 470.145 40.2388 464.953 35.0467C459.761 29.8546 454.05 27.2586 447.819 27.2586H52.1807C45.9502 27.2586 40.2388 29.8546 35.0467 35.0467C29.8546 40.2388 27.2586 45.9502 27.2586 52.1807V447.819C27.2586 454.05 29.8546 459.761 35.0467 464.953C40.2388 470.145 45.9502 472.741 52.1807 472.741Z" fill="#171717"/>
</g>
<defs>
<clipPath id="clip0_217_128">
<rect width="500" height="500" fill="white"/>
</clipPath>
</defs>
</svg>
