<svg width="500" height="500" viewBox="0 0 500 500" fill="none" xmlns="http://www.w3.org/2000/svg">
<g clip-path="url(#clip0_139_132)">
<path d="M251.202 450C201.923 450 159.555 431.469 124.099 394.408C88.6418 357.346 69.7115 312.281 67.3077 259.211V205.921L14.4231 264.474L0 248.026L78.125 161.842L156.851 248.026L142.428 264.474L88.9423 205.263V258.553C90.5449 305.044 106.871 344.737 137.921 377.632C168.97 410.526 206.731 426.974 251.202 426.974C261.218 426.974 271.434 425.877 281.851 423.684C292.268 421.491 301.683 418.64 310.096 415.132L325.12 431.579C313.101 437.281 300.982 441.776 288.762 445.066C276.542 448.355 264.022 450 251.202 450ZM421.274 336.184L342.548 250L356.971 234.211L410.457 292.763V240.789C408.454 194.737 391.927 155.263 360.877 122.368C329.828 89.4737 292.468 73.0263 248.798 73.0263C237.981 73.0263 227.464 74.0132 217.248 75.9868C207.031 77.9605 197.716 80.7018 189.303 84.2105L174.88 67.7632C186.098 62.0614 197.917 57.6754 210.337 54.6053C222.756 51.5351 235.577 50 248.798 50C297.676 50 339.744 68.4211 375 105.263C410.256 142.105 429.087 187.281 431.49 240.789V292.763L484.976 234.868L500 250L421.274 336.184Z" fill="#171717"/>
</g>
<defs>
<clipPath id="clip0_139_132">
<rect width="500" height="500" fill="white"/>
</clipPath>
</defs>
</svg>
