<svg width="500" height="500" viewBox="0 0 500 500" fill="none" xmlns="http://www.w3.org/2000/svg">
<g clip-path="url(#clip0_59_120)">
<path d="M117.232 189.32L235.169 0L353.107 189.32H117.232ZM393.008 500C363.583 500 338.748 489.81 318.503 469.431C298.258 449.048 288.136 424.216 288.136 394.938C288.136 366.043 298.258 341.655 318.503 321.775C338.748 301.896 363.583 291.956 393.008 291.956C422.825 291.956 448.112 301.896 468.87 321.775C489.623 341.655 500 366.158 500 395.284C500 424.411 489.623 449.145 468.87 469.487C448.112 489.829 422.825 500 393.008 500ZM0 483.356V305.132H181.497V483.356H0ZM393.482 475.728C416 475.728 435.264 467.998 451.271 452.538C467.279 437.074 475.282 418.118 475.282 395.673C475.282 373.222 467.265 354.369 451.229 339.112C435.198 323.856 415.805 316.227 393.051 316.227C370.297 316.227 351.241 323.865 335.883 339.14C320.53 354.42 312.853 373.352 312.853 395.936C312.853 418.155 320.567 437.009 335.996 452.497C351.424 467.984 370.586 475.728 393.482 475.728ZM24.7175 459.085H156.78V329.404H24.7175V459.085ZM161.017 165.049H310.734L235.169 47.8502L161.017 165.049Z" fill="#171717"/>
</g>
<defs>
<clipPath id="clip0_59_120">
<rect width="500" height="500" fill="white"/>
</clipPath>
</defs>
</svg>
