<svg width="500" height="500" viewBox="0 0 500 500" fill="none" xmlns="http://www.w3.org/2000/svg">
<g clip-path="url(#clip0_139_129)">
<path d="M465.432 500L392.84 419.595H110.494C79.7407 419.595 53.6379 407.98 32.1852 384.75C10.7284 361.516 0 333.041 0 299.324C0 265.541 10.9054 237.162 32.716 214.189C54.5267 191.216 79.0123 179.505 106.173 179.054C105.486 172.824 106.755 163.836 109.981 152.088C113.204 140.336 117.284 131.081 122.222 124.324L24.0741 16.8919L39.5062 0L480.864 483.108L465.432 500ZM110.494 395.946H370.988L138.889 142.568C133.951 149.806 130.041 159.041 127.16 170.27C124.28 181.5 122.84 192.536 122.84 203.378H110.34C85.7593 203.378 64.8251 212.5 47.537 230.743C30.249 248.986 21.6049 271.658 21.6049 298.757C21.6049 325.851 30.2654 348.824 47.5864 367.676C64.9033 386.523 85.8724 395.946 110.494 395.946ZM470.37 397.297L454.321 379.73C462.14 372.523 468.107 364.554 472.222 355.824C476.337 347.09 478.395 337.266 478.395 326.351C478.395 307.698 472.113 291.525 459.549 277.831C446.99 264.137 432.3 257.291 415.481 257.291H375.759V202.986C375.759 164.698 363.551 132.106 339.136 105.209C314.716 78.3131 285.01 64.8649 250.019 64.8649C238.64 64.8649 227.15 66.6667 215.549 70.2703C203.949 73.8739 193.21 79.0541 183.333 85.8108L168.519 67.5676C183.745 57.6577 197.428 50.7883 209.568 46.9595C221.708 43.1306 234.979 41.2162 249.383 41.2162C289.412 41.2162 323.494 56.0495 351.63 85.7162C379.761 115.387 395.062 151.905 397.531 195.27V234.459H417.284C440.741 235.811 460.391 245.045 476.235 262.162C492.078 279.279 500 300.676 500 326.351C500 338.514 497.737 350.901 493.21 363.514C488.683 376.126 481.07 387.387 470.37 397.297Z" fill="#171717"/>
</g>
<defs>
<clipPath id="clip0_139_129">
<rect width="500" height="500" fill="white"/>
</clipPath>
</defs>
</svg>
