<svg width="500" height="500" viewBox="0 0 500 500" fill="none" xmlns="http://www.w3.org/2000/svg">
<g clip-path="url(#clip0_139_131)">
<path d="M111.111 450C80.1646 450 53.9095 437.663 32.3457 412.989C10.7819 388.316 0 358.134 0 322.445C0 290.167 10.0823 261.307 30.2469 235.866C50.4115 210.424 74.8971 197.232 103.704 196.29C108.642 154.358 125.113 119.494 153.117 91.6961C181.121 63.8987 213.621 50 250.617 50C289.712 50 323.354 65.6655 351.543 96.9965C379.733 128.327 395.062 166.843 397.531 212.544V254.947H417.284C440.741 255.889 460.391 265.43 476.235 283.569C492.078 301.708 500 324.441 500 351.767C500 379.013 491.65 402.198 474.951 421.322C458.247 440.441 437.996 450 414.198 450H111.111ZM111.37 425.265H414.198C431.72 425.265 446.8 418.031 459.438 403.562C472.076 389.093 478.395 371.828 478.395 351.767C478.395 332.134 472.08 315.069 459.451 300.572C446.825 286.075 431.757 278.827 414.247 278.827H375.759V221.322C375.759 180.803 363.496 146.243 338.969 117.64C314.438 89.0365 284.502 74.735 249.16 74.735C214.23 74.735 184.475 89.0271 159.895 117.611C135.311 146.196 123.019 180.728 123.019 221.208H110.648C85.9856 221.208 64.9794 231.015 47.6296 250.629C30.2798 270.243 21.6049 294.532 21.6049 323.498C21.6049 351.767 30.393 375.795 47.9691 395.583C65.5453 415.371 86.679 425.265 111.37 425.265Z" fill="#171717"/>
</g>
<defs>
<clipPath id="clip0_139_131">
<rect width="500" height="500" fill="white"/>
</clipPath>
</defs>
</svg>
