<svg width="500" height="500" viewBox="0 0 500 500" fill="none" xmlns="http://www.w3.org/2000/svg">
<g clip-path="url(#clip0_99_123)">
<path d="M249.703 500C197.904 500 151.246 484.298 109.727 452.894C68.2088 421.49 38.5528 381.158 20.7592 331.897V418.103H0V291.256H122.183V312.808H34.9941C49.6244 360.837 77.0067 400.452 117.141 431.65C157.276 462.849 201.463 478.448 249.703 478.448C278.569 478.448 305.666 473.253 330.996 462.863C356.331 452.469 378.869 437.691 398.612 418.528C418.359 399.362 434.46 376.8 446.916 350.844C459.371 324.887 466.785 296.609 469.158 266.01H489.917C487.94 299.261 480.229 330.152 466.785 358.682C453.341 387.213 435.943 411.946 414.591 432.882C393.238 453.818 368.365 470.238 339.97 482.143C311.572 494.048 281.483 500 249.703 500ZM238.434 415.64V384.748C222.618 380.712 208.778 374.179 196.916 365.148C185.053 356.117 175.366 343.186 167.853 326.355L186.833 318.35C193.555 333.539 202.748 345.341 214.413 353.756C226.077 362.172 239.027 366.379 253.262 366.379C268.288 366.379 282.127 362.383 294.781 354.39C307.434 346.398 313.76 333.563 313.76 315.887C313.76 301.564 309.312 290.285 300.415 282.05C291.518 273.82 274.021 264.368 247.924 253.695C221.827 243.842 203.242 233.477 192.171 222.599C181.099 211.72 175.563 197.087 175.563 178.701C175.563 162.716 181 148.539 191.874 136.17C202.748 123.797 218.664 116.174 239.62 113.3V84.3596H260.973V113.337C273.626 114.134 285.192 118.227 295.67 125.616C306.149 133.005 314.749 142.857 321.471 155.172L303.084 163.177C297.153 153.736 290.083 146.244 281.874 140.702C273.662 135.16 263.333 132.389 250.89 132.389C234.701 132.389 221.56 136.905 211.465 145.936C201.37 154.967 196.323 165.835 196.323 178.541C196.323 192.067 200.178 202.432 207.888 209.637C215.599 216.841 232.612 225.575 258.926 235.837C287.574 246.921 307.236 258.366 317.912 270.172C328.588 281.979 333.926 297.223 333.926 315.905C333.926 327.798 331.752 337.849 327.402 346.059C323.053 354.269 317.418 361.248 310.498 366.995C303.578 372.742 295.797 377.198 287.153 380.363C278.509 383.528 269.387 385.435 259.786 386.084V415.64H238.434ZM9.48992 233.99C12.2578 199.097 20.5793 167.326 34.4543 138.676C48.3294 110.027 66.0498 85.4208 87.6157 64.8584C109.185 44.2919 133.855 28.3415 161.625 17.0074C189.391 5.66913 218.75 0 249.703 0C299.525 0 345.987 15.5993 389.087 46.798C432.187 77.9967 462.238 119.253 479.241 170.567V81.2808H500V208.128H377.817V186.576H465.006C450.376 140.189 422.894 101.088 382.562 69.2734C342.23 37.4589 297.944 21.5517 249.703 21.5517C222.42 21.5517 196.113 26.5415 170.783 36.5209C145.449 46.5045 122.811 60.8723 102.871 79.6244C82.9261 98.3805 66.4294 120.737 53.3808 146.693C40.3321 172.65 32.6216 201.749 30.2491 233.99H9.48992Z" fill="#171717"/>
</g>
<defs>
<clipPath id="clip0_99_123">
<rect width="500" height="500" fill="white"/>
</clipPath>
</defs>
</svg>
