<svg width="500" height="500" viewBox="0 0 500 500" fill="none" xmlns="http://www.w3.org/2000/svg">
<path d="M141.844 46.7011L141.847 46.6993C183.221 22.8069 229.61 12.2875 276.829 15.9786C195.787 73.9276 171.339 183.656 221.859 271.161C272.379 358.667 379.65 392.354 470.344 351.143C449.93 393.88 417.618 428.802 376.253 452.685L376.253 452.685C340.104 473.558 300.032 484.193 259.456 484.193C239.106 484.193 218.608 481.516 198.383 476.1C137.884 459.889 87.3729 421.13 56.0572 366.885L56.0567 366.884C24.7355 312.639 16.4254 249.517 32.6359 189.017C48.8466 128.516 87.6065 78 141.844 46.7011Z" stroke="#171717" stroke-width="25"/>
</svg>
