<svg width="500" height="500" viewBox="0 0 500 500" fill="none" xmlns="http://www.w3.org/2000/svg">
<path d="M125.485 500C112.434 500 101.295 494.88 92.067 484.64C82.8348 474.405 78.2187 462.05 78.2187 447.574V50.0782H50V22.6917H161.464V0H338.536V22.6917H450V50.0782H421.781V447.574C421.781 461.92 417.137 474.244 407.848 484.546C398.56 494.849 387.449 500 374.515 500H125.485ZM397.09 50.0782H102.91V447.574C102.91 454.877 105.144 460.876 109.612 465.571C114.08 470.266 119.371 472.613 125.485 472.613H374.515C380.159 472.613 385.332 470.005 390.035 464.789C394.738 459.572 397.09 453.834 397.09 447.574V50.0782ZM188.977 407.668H213.668V113.459H188.977V407.668ZM287.037 407.668H311.728V113.459H287.037V407.668Z" fill="#171717"/>
</svg>
