<svg width="500" height="500" viewBox="0 0 500 500" fill="none" xmlns="http://www.w3.org/2000/svg">
<g clip-path="url(#clip0_97_119)">
<path d="M236.883 471.607V256.925L27.0062 147.507V350.402C27.0062 354.095 28.035 357.558 30.0926 360.789C32.1502 364.021 35.2366 366.791 39.3519 369.1L236.883 471.607ZM263.889 471.607L460.648 369.1C464.763 366.791 467.85 364.021 469.907 360.789C471.965 357.558 472.994 354.095 472.994 350.402V148.199L263.889 256.828V471.607ZM250 236.842L456.79 128.809L262.346 27.7008C258.23 25.8541 254.115 24.9307 250 24.9307C245.885 24.9307 241.77 25.8541 237.654 27.7008L43.2099 128.809L250 236.842ZM26.2346 390.582C17.3611 386.228 10.7716 380.388 6.46605 373.061C2.15535 365.734 0 358.186 0 350.416V149.584C0 141.814 2.15535 134.266 6.46605 126.939C10.7716 119.612 17.3611 113.772 26.2346 109.418L224.537 6.23269C232.716 2.07756 241.191 0 249.961 0C258.732 0 267.49 2.07756 276.235 6.23269L473.765 109.418C482.124 113.772 488.588 119.612 493.156 126.939C497.719 134.266 500 141.814 500 149.584V350.416C500 358.186 497.719 365.734 493.156 373.061C488.588 380.388 482.124 386.228 473.765 390.582L276.235 493.767C267.32 497.922 258.477 500 249.707 500C240.936 500 232.546 497.922 224.537 493.767L26.2346 390.582Z" fill="#171717"/>
</g>
<defs>
<clipPath id="clip0_97_119">
<rect width="500" height="500" fill="white"/>
</clipPath>
</defs>
</svg>
