<svg width="500" height="500" viewBox="0 0 500 500" fill="none" xmlns="http://www.w3.org/2000/svg">
<g clip-path="url(#clip0_33_130)">
<path d="M47.1167 500C33.924 500 22.7731 495.003 13.6638 485.008C4.55461 475.013 0 462.778 0 448.302V51.6975C0 37.5514 4.55461 25.3987 13.6638 15.2392C22.7731 5.07973 33.924 0 47.1167 0H408.579C421.472 0 432.548 5.07973 441.807 15.2392C451.067 25.3987 455.696 37.5514 455.696 51.6975V118.056H500V145.062H455.696V236.883H500V263.889H455.696V356.481H500V383.488H455.696V448.302C455.696 462.778 451.067 475.013 441.807 485.008C432.548 495.003 421.472 500 408.579 500H47.1167ZM47.1167 472.994H408.579C414.205 472.994 419.362 470.422 424.051 465.278C428.739 460.134 431.083 454.475 431.083 448.302V51.6975C431.083 45.5247 428.739 39.8663 424.051 34.7222C419.362 29.5782 414.205 27.0062 408.579 27.0062H47.1167C41.4909 27.0062 36.3338 29.5782 31.6456 34.7222C26.9573 39.8663 24.6132 45.5247 24.6132 51.6975V448.302C24.6132 454.475 26.9573 460.134 31.6456 465.278C36.3338 470.422 41.4909 472.994 47.1167 472.994ZM107.595 383.488H224.332V289.352H107.595V383.488ZM264.416 177.469H349.508V118.056H264.416V177.469ZM107.595 245.37H224.332V118.056H107.595V245.37ZM264.416 383.488H349.508V221.451H264.416V383.488Z" fill="#171717"/>
</g>
<defs>
<clipPath id="clip0_33_130">
<rect width="500" height="500" fill="white"/>
</clipPath>
</defs>
</svg>
