<svg width="500" height="500" viewBox="0 0 500 500" fill="none" xmlns="http://www.w3.org/2000/svg">
<path d="M91.358 500C80.0412 500 70.3189 494.92 62.1914 484.761C54.0638 474.601 50 462.449 50 448.302V361.111H71.6049V448.302C71.6049 454.475 73.6626 460.134 77.7778 465.278C81.893 470.422 86.4198 472.994 91.358 472.994H408.642C413.58 472.994 418.107 470.422 422.222 465.278C426.337 460.134 428.395 454.475 428.395 448.302V51.6975C428.395 45.5247 426.337 39.8663 422.222 34.7222C418.107 29.5782 413.58 27.0062 408.642 27.0062H91.358C86.4198 27.0062 81.893 29.5782 77.7778 34.7222C73.6626 39.8663 71.6049 45.5247 71.6049 51.6975V138.117H50V51.6975C50 37.5514 54.0638 25.3987 62.1914 15.2392C70.3189 5.07973 80.0412 0 91.358 0H408.642C419.959 0 429.681 5.07973 437.809 15.2392C445.936 25.3987 450 37.5514 450 51.6975V448.302C450 462.449 445.936 474.601 437.809 484.761C429.681 494.92 419.959 500 408.642 500H91.358ZM222.222 372.685L206.173 351.852L277.16 263.117H50V236.111H277.16L206.173 147.377L222.222 127.315L319.753 249.228L222.222 372.685Z" fill="#171717"/>
</svg>
