<svg width="500" height="500" viewBox="0 0 500 500" fill="none" xmlns="http://www.w3.org/2000/svg">
<g clip-path="url(#clip0_211_117)">
<path d="M51.6975 500C37.5514 500 25.3987 494.92 15.2392 484.761C5.07973 474.601 0 462.449 0 448.302V361.111H27.0062V448.302C27.0062 454.475 29.5782 460.134 34.7222 465.278C39.8663 470.422 45.5247 472.994 51.6975 472.994H448.302C454.475 472.994 460.134 470.422 465.278 465.278C470.422 460.134 472.994 454.475 472.994 448.302V51.6975C472.994 45.5247 470.422 39.8663 465.278 34.7222C460.134 29.5782 454.475 27.0062 448.302 27.0062H51.6975C45.5247 27.0062 39.8663 29.5782 34.7222 34.7222C29.5782 39.8663 27.0062 45.5247 27.0062 51.6975V138.117H0V51.6975C0 37.5514 5.07973 25.3987 15.2392 15.2392C25.3987 5.07973 37.5514 0 51.6975 0H448.302C462.449 0 474.601 5.07973 484.761 15.2392C494.92 25.3987 500 37.5514 500 51.6975V448.302C500 462.449 494.92 474.601 484.761 484.761C474.601 494.92 462.449 500 448.302 500H51.6975ZM215.278 372.685L195.216 351.852L283.951 263.117H0V236.111H283.951L195.216 147.377L215.278 127.315L337.191 249.228L215.278 372.685Z" fill="#171717"/>
</g>
<defs>
<clipPath id="clip0_211_117">
<rect width="500" height="500" fill="white"/>
</clipPath>
</defs>
</svg>
