<svg width="500" height="500" viewBox="0 0 500 500" fill="none" xmlns="http://www.w3.org/2000/svg">
<g clip-path="url(#clip0_100_150)">
<path d="M322.351 307.305C312.446 282.536 293.239 264.903 264.729 254.408C236.219 243.913 205.984 238.665 174.025 238.665C142.267 238.665 111.785 243.913 82.5775 254.408C53.3656 264.903 34.6684 282.536 26.4858 307.305H322.351ZM0 329.345C0 291.142 18.1072 262.804 54.3217 244.332C90.5362 225.861 130.353 216.625 173.773 216.625C217.7 216.625 257.644 225.861 293.605 244.332C329.565 262.804 347.545 291.142 347.545 329.345H0ZM0 413.728V391.688H347.545V413.728H0ZM395.349 500V477.96H437.985L475.452 115.239H270.026L233.85 93.199H354.651V0H377.261V93.199H500L460.594 479.219C459.673 485.399 456.86 490.407 452.158 494.244C447.459 498.081 441.658 500 434.755 500H395.349ZM10.9819 500C7.87252 500 5.26486 498.974 3.15891 496.921C1.05297 494.868 0 492.326 0 489.295V477.96H347.545V489.414C347.545 492.483 346.604 495.015 344.722 497.009C342.836 499.003 340.116 500 336.563 500H10.9819Z" fill="#171717"/>
</g>
<defs>
<clipPath id="clip0_100_150">
<rect width="500" height="500" fill="white"/>
</clipPath>
</defs>
</svg>
