<svg width="500" height="500" viewBox="0 0 500 500" fill="none" xmlns="http://www.w3.org/2000/svg">
<g clip-path="url(#clip0_34_142)">
<path fill-rule="evenodd" clip-rule="evenodd" d="M-100 -100H600V600H-100V-100ZM322.879 267.634C322.879 263.058 319.643 260.156 315.402 258.817L288.393 251.674L295.871 218.75H385.379V388.058C385.379 390.032 385.11 391.466 384.909 392.535C384.45 394.971 384.349 395.507 388.616 396.205L406.138 399.107V427.121H291.629V399.107L314.397 396.205C320.201 395.536 322.879 394.308 322.879 388.058V267.634ZM383.705 187.165L391.853 179.018L381.808 141.964L386.074 137.25L386.076 137.248L406.25 114.955L402.344 104.241H371.429L354.129 72.9911H343.75L326.451 104.241H295.536L291.629 114.955L315.96 141.964L305.915 179.018L314.062 187.165L348.884 168.638L383.705 187.165ZM0 500V0H500V500H0ZM239.621 427.121V399.107L191.071 394.531C186.802 394.039 186.881 393.365 187.222 390.466C187.319 389.638 187.438 388.628 187.482 387.388C187.493 387.069 187.5 386.735 187.5 386.384V260.379H249.665L262.054 218.75H186.83C184.975 218.75 185.467 218.017 186.224 216.886C186.42 216.594 186.635 216.274 186.83 215.934C187.197 215.296 187.5 214.585 187.5 213.839V187.835C187.5 186.501 187.503 185.206 187.516 183.952C187.521 183.391 187.528 182.838 187.538 182.293C187.578 180.1 187.656 178.04 187.808 176.116C188.389 168.806 190.046 163.473 194.738 160.379C195.398 159.945 196.117 159.554 196.902 159.208C199.55 158.042 202.942 157.388 207.286 157.273C207.588 157.265 207.894 157.259 208.205 157.257C208.371 157.255 208.537 157.254 208.705 157.254C209.597 157.254 210.452 157.276 211.272 157.323C215.409 157.558 218.643 158.431 221.069 160.379C222.661 161.657 223.905 163.398 224.828 165.725C225.663 167.828 226.236 170.412 226.567 173.566C226.652 174.377 226.721 175.227 226.774 176.116C226.898 178.169 226.937 180.432 226.897 182.924L283.482 176.116C283.482 175.033 283.466 173.969 283.434 172.924C283.417 172.384 283.397 171.85 283.372 171.321C283.088 165.291 282.261 159.909 280.955 155.109C278.63 146.565 274.786 139.865 269.78 134.638C267.445 132.2 264.858 130.082 262.054 128.247C261.191 127.683 260.309 127.145 259.406 126.634C252.264 122.58 243.904 120.134 234.851 118.75C232.23 118.349 229.551 118.038 226.827 117.802C224.265 117.58 221.662 117.425 219.03 117.326C219.021 117.326 219.013 117.326 219.005 117.326C216.452 117.23 213.871 117.188 211.272 117.188C210.41 117.188 209.555 117.193 208.705 117.203C201.194 117.297 194.173 117.804 187.649 118.75C187.645 118.751 187.64 118.751 187.635 118.752C187.366 118.791 187.098 118.831 186.83 118.871C185.728 119.039 184.64 119.218 183.566 119.411C156.469 124.273 138.549 137.299 130.279 160.379C130.212 160.565 130.146 160.752 130.081 160.939C127.356 168.745 125.719 177.686 125.19 187.835C125.063 190.258 125 192.75 125 195.312V218.75H93.75V260.491H118.527C121.763 260.491 125 260.491 125 263.058V387.388C125 393.638 123.326 395.536 117.522 396.205L93.75 398.438V427.121H239.621Z" fill="#171717"/>
</g>
<defs>
<clipPath id="clip0_34_142">
<rect width="500" height="500" fill="white"/>
</clipPath>
</defs>
</svg>
