<svg width="500" height="500" viewBox="0 0 500 500" fill="none" xmlns="http://www.w3.org/2000/svg">
<g clip-path="url(#clip0_39_188)">
<path d="M249.856 245.879C231.637 245.879 215.774 239.107 202.266 225.563C188.759 212.019 182.005 196.14 182.005 177.926C182.005 159.505 188.777 143.562 202.321 130.096C215.865 116.625 231.745 109.89 249.959 109.89C268.379 109.89 284.322 116.639 297.788 130.137C311.259 143.64 317.995 159.604 317.995 178.029C317.995 196.248 311.245 212.111 297.747 225.618C284.245 239.125 268.281 245.879 249.856 245.879ZM249.76 227.335C263.656 227.335 275.412 222.5 285.027 212.83C294.643 203.155 299.451 191.587 299.451 178.125C299.451 164.228 294.677 152.473 285.131 142.857C275.584 133.242 263.679 128.434 249.416 128.434C236.069 128.434 224.588 133.207 214.973 142.754C205.357 152.301 200.549 164.206 200.549 178.468C200.549 191.815 205.385 203.297 215.055 212.912C224.73 222.527 236.298 227.335 249.76 227.335ZM99.5879 386.676V348.551C99.5879 340.25 101.886 332.814 106.484 326.243C111.081 319.668 117.177 314.21 124.773 309.87C143.624 299.068 163.784 291.083 185.254 285.913C206.724 280.744 228.262 278.159 249.869 278.159C271.477 278.159 293.04 280.792 314.56 286.058C336.081 291.323 356.456 299.222 375.687 309.753C383.118 314.345 389.098 319.938 393.626 326.532C398.15 333.13 400.412 340.543 400.412 348.771V386.676H99.5879ZM250 296.703C229.144 296.703 207.447 300.023 184.911 306.662C162.37 313.301 140.11 323.26 118.132 336.538V368.819H381.868V335.852C360.348 322.573 338.203 312.729 315.433 306.319C292.667 299.908 270.856 296.703 250 296.703ZM250 368.819H381.868H118.132H250ZM46.2431 500C33.5005 500 22.6076 495.478 13.5646 486.435C4.52152 477.392 0 466.5 0 453.757V361.951H24.0385V453.984C24.0385 459.478 26.3278 464.515 30.9066 469.093C35.4853 473.672 40.522 475.962 46.0165 475.962H138.049V500H46.2431ZM0 138.049V46.2431C0 33.5005 4.52152 22.6076 13.5646 13.5646C22.6076 4.52152 33.5005 0 46.2431 0H138.049V24.0385H46.0165C40.522 24.0385 35.4853 26.3278 30.9066 30.9066C26.3278 35.4853 24.0385 40.522 24.0385 46.0165V138.049H0ZM361.951 500V475.962H453.984C459.478 475.962 464.515 473.672 469.093 469.093C473.672 464.515 475.962 459.478 475.962 453.984V361.951H500V453.757C500 466.5 495.478 477.392 486.435 486.435C477.392 495.478 466.5 500 453.757 500H361.951ZM475.962 138.049V46.0165C475.962 40.522 473.672 35.4853 469.093 30.9066C464.515 26.3278 459.478 24.0385 453.984 24.0385H361.951V0H453.757C466.5 0 477.392 4.52152 486.435 13.5646C495.478 22.6076 500 33.5005 500 46.2431V138.049H475.962Z" fill="#171717"/>
</g>
<defs>
<clipPath id="clip0_39_188">
<rect width="500" height="500" fill="white"/>
</clipPath>
</defs>
</svg>
