<svg width="500" height="500" viewBox="0 0 500 500" fill="none" xmlns="http://www.w3.org/2000/svg">
<g clip-path="url(#clip0_100_151)">
<path d="M27.4725 500V218.016H0V100.522H146.291C139.94 96.0357 135.49 90.4439 132.94 83.7467C130.394 77.0452 129.121 69.7998 129.121 62.0104C128.663 45.1131 134.863 30.5527 147.72 18.329C160.581 6.10967 176.131 0 194.368 0C204.689 0 214.48 2.61097 223.743 7.8329C233.006 13.0548 240.614 19.3647 246.566 26.7624C252.518 19.3647 260.24 13.0548 269.732 7.8329C279.224 2.61097 289.359 0 300.137 0C317.766 0 332.933 6.02917 345.639 18.0875C358.345 30.1458 364.698 44.7868 364.698 62.0104C364.698 69.8433 363.439 77.1018 360.92 83.7859C358.402 90.47 354.167 96.0487 348.214 100.522H500V218.016H472.527V500H27.4725ZM299.657 22.1932C287.843 22.1932 277.988 26.0574 270.089 33.7859C262.191 41.5144 258.242 51.0379 258.242 62.3564C258.242 73.675 262.154 82.9743 269.979 90.2546C277.804 97.5348 287.502 101.175 299.073 101.175C310.836 101.175 320.822 97.4891 329.032 90.1175C337.241 82.7502 341.346 73.6184 341.346 62.7219C341.346 51.3251 337.351 41.7211 329.361 33.9099C321.371 26.0988 311.47 22.1932 299.657 22.1932ZM152.473 62.0039C152.473 73.1049 156.305 82.4086 163.97 89.9151C171.635 97.4217 181.422 101.175 193.331 101.175C205.24 101.175 215.259 97.4565 223.386 90.0196C231.513 82.5827 235.577 73.3029 235.577 62.1802C235.577 50.879 231.55 41.3882 223.496 33.7076C215.442 26.0313 205.63 22.1932 194.059 22.1932C182.296 22.1932 172.424 26.0531 164.444 33.7728C156.463 41.4926 152.473 50.903 152.473 62.0039ZM24.0385 123.368V195.17H238.324V123.368H24.0385ZM238.324 477.154V218.016H50.1374V477.154H238.324ZM262.363 477.154H449.863V218.016H262.363V477.154ZM475.962 195.17V123.368H262.363V195.17H475.962Z" fill="#171717"/>
</g>
<defs>
<clipPath id="clip0_100_151">
<rect width="500" height="500" fill="white"/>
</clipPath>
</defs>
</svg>
