<svg width="500" height="500" viewBox="0 0 500 500" fill="none" xmlns="http://www.w3.org/2000/svg">
<g clip-path="url(#clip0_39_253)">
<path fill-rule="evenodd" clip-rule="evenodd" d="M268.729 12.9884L268.723 12.9823C266.202 10.4522 263.206 8.44465 259.907 7.07488C256.609 5.7051 253.072 5 249.5 5C245.928 5 242.392 5.7051 239.093 7.07488C235.794 8.44466 232.798 10.4522 230.277 12.9823L230.271 12.9884L188.473 54.7877L240.321 106.637C247.102 104.872 254.227 104.778 261.079 106.385C268.963 108.234 276.17 112.261 281.877 118.006C287.584 123.752 291.563 130.984 293.359 138.881C294.919 145.737 294.78 152.853 292.976 159.615L344.086 210.727C352.574 208.493 361.569 208.888 369.866 211.902C379.163 215.278 387.023 221.739 392.134 230.207C397.246 238.675 399.302 248.639 397.96 258.439C396.617 268.239 391.957 277.283 384.756 284.064C377.555 290.845 368.247 294.954 358.385 295.705C348.522 296.457 338.7 293.806 330.554 288.195C322.409 282.583 316.432 274.35 313.62 264.867C311.131 256.471 311.254 247.545 313.931 239.263L273.033 198.364V319.323C280.59 323.782 286.634 330.452 290.325 338.467C294.459 347.442 295.392 357.563 292.971 367.144C290.55 376.724 284.919 385.186 277.017 391.119C269.115 397.052 259.419 400.099 249.544 399.752C239.668 399.405 230.21 395.685 222.744 389.211C215.278 382.738 210.256 373.902 208.513 364.175C206.77 354.448 208.412 344.418 213.166 335.755C217.371 328.092 223.786 321.907 231.538 317.983V187.143C227.467 185.085 223.741 182.394 220.501 179.164C216.454 175.13 213.245 170.335 211.06 165.055C208.874 159.775 207.754 154.115 207.766 148.401C207.774 143.826 208.508 139.288 209.933 134.956L159.137 84.1262L12.9897 230.331C10.4573 232.853 8.44798 235.85 7.07689 239.15C5.7058 242.45 5 245.989 5 249.563C5 253.136 5.7058 256.675 7.07689 259.975C8.44797 263.275 10.4573 266.272 12.9896 268.794L12.9966 268.801L231.277 487.018C233.798 489.548 236.794 491.555 240.093 492.925C243.392 494.295 246.928 495 250.5 495C254.072 495 257.608 494.295 260.907 492.925C264.206 491.555 267.202 489.548 269.723 487.018L269.729 487.012L487.01 269.669C489.543 267.147 491.552 264.15 492.923 260.85C494.294 257.55 495 254.011 495 250.437C495 246.864 494.294 243.325 492.923 240.025C491.557 236.737 489.558 233.75 487.039 231.234L487.003 231.27L268.729 12.9884ZM490.538 227.734V227.663C490.55 227.675 490.562 227.687 490.574 227.699C493.556 230.677 495.923 234.214 497.541 238.107C499.164 242.015 500 246.205 500 250.437C500 254.67 499.164 258.86 497.541 262.768C495.917 266.677 493.537 270.226 490.538 273.212L273.265 490.547C270.279 493.543 266.731 495.921 262.825 497.543C258.918 499.165 254.73 500 250.5 500C246.27 500 242.082 499.165 238.175 497.543C234.269 495.921 230.721 493.543 227.735 490.547L9.46159 272.337C6.46275 269.351 4.08319 265.802 2.45951 261.893C0.835829 257.985 0 253.795 0 249.563C0 245.33 0.835829 241.14 2.45951 237.232C4.08319 233.323 6.46275 229.774 9.46159 226.788L159.138 77.0533L215.737 133.69C213.785 138.353 212.775 143.356 212.766 148.411C212.756 153.465 213.746 158.472 215.679 163.143C217.613 167.813 220.451 172.054 224.031 175.623C227.611 179.192 231.861 182.017 236.538 183.935V321.189C228.455 324.51 221.753 330.499 217.549 338.16C213.345 345.821 211.893 354.691 213.434 363.293C214.976 371.895 219.417 379.709 226.02 385.434C232.622 391.158 240.986 394.448 249.719 394.755C258.452 395.062 267.027 392.368 274.015 387.121C281.003 381.874 285.982 374.391 288.123 365.918C290.265 357.446 289.439 348.496 285.783 340.559C282.128 332.621 275.863 326.176 268.033 322.296V186.292L319.723 237.983C316.389 246.071 315.927 255.058 318.414 263.445C320.901 271.832 326.187 279.114 333.391 284.077C340.595 289.04 349.282 291.385 358.005 290.72C366.728 290.055 374.959 286.421 381.328 280.424C387.697 274.427 391.818 266.428 393.006 257.761C394.193 249.093 392.375 240.281 387.854 232.791C383.333 225.302 376.382 219.588 368.159 216.601C359.937 213.615 350.939 213.536 342.666 216.378L287.316 161.027C289.668 154.262 290.073 146.973 288.484 139.99C286.895 133.007 283.377 126.611 278.33 121.53C273.283 116.449 266.91 112.888 259.938 111.253C252.965 109.618 245.674 109.975 238.894 112.282L181.402 54.7877L226.735 9.45296C229.721 6.4567 233.269 4.07932 237.175 2.45717C241.082 0.835016 245.27 0 249.5 0C253.73 0 257.918 0.835016 261.825 2.45717C265.731 4.07932 269.279 6.4567 272.265 9.45296L490.538 227.734Z" fill="#171717"/>
<path d="M181.402 54.7877L238.894 112.282C245.673 109.975 252.964 109.618 259.937 111.253C266.909 112.888 273.282 116.449 278.329 121.53C283.376 126.611 286.894 133.007 288.483 139.99C290.072 146.973 289.668 154.263 287.316 161.027L342.665 216.378C350.939 213.536 359.936 213.615 368.159 216.601C376.381 219.588 383.332 225.302 387.853 232.791C392.374 240.281 394.193 249.093 393.005 257.761C391.818 266.428 387.696 274.427 381.327 280.424C374.958 286.421 366.727 290.055 358.004 290.72C349.281 291.385 340.594 289.04 333.39 284.077C326.186 279.114 320.9 271.833 318.413 263.445C315.926 255.058 316.388 246.072 319.722 237.983L268.032 186.292V322.296C275.863 326.176 282.127 332.621 285.783 340.559C289.438 348.496 290.264 357.446 288.123 365.919C285.981 374.391 281.002 381.874 274.014 387.121C267.026 392.368 258.452 395.062 249.719 394.755C240.986 394.448 232.621 391.159 226.019 385.434C219.417 379.709 214.975 371.895 213.434 363.293C211.892 354.692 213.345 345.821 217.548 338.16C221.752 330.499 228.454 324.51 236.537 321.189V183.935C231.861 182.017 227.61 179.192 224.03 175.623C220.45 172.055 217.612 167.813 215.679 163.143C213.745 158.472 212.755 153.466 212.765 148.411C212.775 143.356 213.784 138.353 215.736 133.69L159.137 77.0533" fill="#171717"/>
</g>
<defs>
<clipPath id="clip0_39_253">
<rect width="500" height="500" fill="white"/>
</clipPath>
</defs>
</svg>
