<svg width="500" height="500" viewBox="0 0 500 500" fill="none" xmlns="http://www.w3.org/2000/svg">
<g clip-path="url(#clip0_27_155)">
<path d="M250.206 500C215.728 500 183.265 493.475 152.816 480.426C122.367 467.376 95.696 449.519 72.8022 426.854C49.9084 404.19 32.0513 377.644 19.2308 347.218C6.41026 316.793 0 284.05 0 248.99C0 214.865 6.41026 182.463 19.2308 151.786C32.0513 121.108 49.9084 94.6657 72.8022 72.4588C95.696 50.2518 122.356 32.6236 152.782 19.5742C183.207 6.52473 215.721 0 250.323 0C284.448 0 316.735 6.52473 347.184 19.5742C377.633 32.6236 404.304 50.2518 427.198 72.4588C450.092 94.6657 467.949 121.14 480.769 151.882C493.59 182.624 500 215.101 500 249.313C500 284.295 493.59 316.964 480.769 347.321C467.949 377.679 450.092 404.19 427.198 426.854C404.304 449.519 377.58 467.376 347.026 480.426C316.477 493.475 284.203 500 250.206 500ZM250 476.648C268.773 455.586 283.654 434.066 294.643 412.088C305.632 390.11 314.789 365.156 322.115 337.225H177.885C185.668 366.987 195.19 392.779 206.449 414.602C217.713 436.424 232.23 457.106 250 476.648ZM226.648 474.588C211.996 459.936 198.519 440.057 186.216 414.952C173.908 389.851 164.721 363.942 158.654 337.225H40.522C57.4634 376.516 82.1886 407.972 114.698 431.593C147.207 455.22 184.524 469.551 226.648 474.588ZM274.038 474.588C313.874 470.925 350.389 456.731 383.585 432.005C416.781 407.28 442.308 375.687 460.165 337.225H342.129C333.823 364.698 323.489 390.797 311.126 415.522C298.764 440.247 286.401 459.936 274.038 474.588ZM35.0549 318.681H155.22C152.93 306.319 151.328 294.299 150.412 282.624C149.496 270.948 149.038 259.844 149.038 249.313C149.038 238.782 149.496 227.793 150.412 216.346C151.328 204.899 152.93 193.223 155.22 181.319H35.0549C31.3736 190.934 28.6172 201.694 26.7857 213.599C24.9542 225.504 24.0385 237.408 24.0385 249.313C24.0385 261.676 24.9542 273.81 26.7857 285.714C28.6172 297.619 31.3736 308.608 35.0549 318.681ZM173.784 318.681H326.236C328.526 305.861 330.128 293.956 331.044 282.967C331.96 271.978 332.418 260.76 332.418 249.313C332.418 238.324 331.96 227.45 331.044 216.69C330.128 205.929 328.519 194.139 326.216 181.319H173.764C171.474 194.139 169.872 205.929 168.956 216.69C168.04 227.45 167.582 238.324 167.582 249.313C167.582 260.76 168.04 271.978 168.956 282.967C169.872 293.956 171.481 305.861 173.784 318.681ZM345.467 318.681H465.659C468.864 308.608 471.383 297.619 473.214 285.714C475.046 273.81 475.962 261.676 475.962 249.313C475.962 237.408 475.046 225.504 473.214 213.599C471.383 201.694 468.864 190.934 465.659 181.319H346.154C347.527 195.055 348.672 207.456 349.588 218.523C350.504 229.595 350.962 239.858 350.962 249.313C350.962 259.844 350.504 270.833 349.588 282.28C348.672 293.727 347.299 305.861 345.467 318.681ZM342.129 162.775H460.165C442.308 122.94 417.353 91.0027 385.302 66.9643C353.251 42.9258 315.934 28.6172 273.352 24.0385C288.004 41.4377 301.397 62.2711 313.53 86.5385C325.664 110.806 335.197 136.218 342.129 162.775ZM177.885 162.775H322.802C315.018 135.43 305.288 109.936 293.613 86.2912C281.937 62.6465 267.399 40.9799 250 21.2912C233.516 39.6062 219.551 59.9817 208.104 82.4176C196.658 104.853 186.584 131.639 177.885 162.775ZM40.522 162.775H158.53C165.481 136.218 174.794 110.92 186.47 86.8819C198.146 62.8434 211.31 41.8956 225.962 24.0385C183.379 29.0751 146.062 43.3837 114.011 66.9643C81.9597 90.5449 57.4634 122.482 40.522 162.775Z" fill="#171717"/>
</g>
<defs>
<clipPath id="clip0_27_155">
<rect width="500" height="500" fill="white"/>
</clipPath>
</defs>
</svg>
