<svg width="500" height="500" viewBox="0 0 500 500" fill="none" xmlns="http://www.w3.org/2000/svg">
<path d="M149.155 160.448H286.62V110.697C286.62 89.5522 279.931 71.4138 266.552 56.2811C253.174 41.1484 236.93 33.5821 217.82 33.5821C198.71 33.5821 182.488 41.1484 169.155 56.2811C155.822 71.4138 149.155 89.5522 149.155 110.697V160.448ZM233.662 481.343H98.4507C84.6554 481.343 73.1324 476.235 63.8817 466.02C54.6272 455.808 50 443.089 50 427.861V213.93C50 198.706 54.6272 185.987 63.8817 175.771C73.1324 165.556 84.6554 160.448 98.4507 160.448H118.732V110.697C118.732 79.83 128.346 53.665 147.572 32.2015C166.798 10.7338 190.237 0 217.887 0C245.538 0 268.977 10.7338 288.203 32.2015C307.429 53.665 317.042 79.83 317.042 110.697V160.448H337.324C351.116 160.448 362.639 165.556 371.893 175.771C381.147 185.987 385.775 198.706 385.775 213.93V236.318C381.643 234.66 376.988 233.624 371.808 233.209C366.629 232.794 361.144 232.587 355.352 232.587V213.93C355.352 208.126 353.662 203.358 350.282 199.627C346.901 195.896 342.582 194.03 337.324 194.03H98.4507C93.1925 194.03 88.8732 195.896 85.493 199.627C82.1127 203.358 80.4225 208.126 80.4225 213.93V427.861C80.4225 433.665 82.1127 438.433 85.493 442.164C88.8732 445.896 93.1925 447.761 98.4507 447.761H218.451C219.202 454.395 220.892 460.199 223.521 465.174C226.15 470.149 229.531 475.539 233.662 481.343ZM350.845 500C323.427 500 300.047 489.324 280.704 467.973C261.362 446.621 251.69 420.813 251.69 390.547C251.69 360.282 261.362 334.473 280.704 313.122C300.047 291.77 323.427 281.095 350.845 281.095C378.263 281.095 401.643 291.77 420.986 313.122C440.329 334.473 450 360.282 450 390.547C450 420.813 440.329 446.621 420.986 467.973C401.643 489.324 378.263 500 350.845 500ZM388.028 447.761L401.549 432.836L359.859 386.816V304.726H340.704V395.522L388.028 447.761ZM80.4225 380.597V447.761V194.03V380.597Z" fill="#171717"/>
</svg>
