<svg width="500" height="500" viewBox="0 0 500 500" fill="none" xmlns="http://www.w3.org/2000/svg">
<g clip-path="url(#clip0_27_125)">
<path d="M107.718 500C91.1633 500 77.4049 494.724 66.443 484.173C55.481 473.622 50 460.379 50 444.444V222.222C50 206.288 55.481 193.045 66.443 182.494C77.4049 171.942 91.1633 166.667 107.718 166.667H131.879V114.987C131.879 82.6873 143.331 55.4479 166.235 33.2687C189.139 11.0896 217.06 0 250 0C282.94 0 310.861 11.0896 333.765 33.2687C356.669 55.4479 368.121 82.6873 368.121 114.987V166.667H392.282C408.837 166.667 422.595 171.942 433.557 182.494C444.519 193.045 450 206.288 450 222.222V444.444C450 460.379 444.519 473.622 433.557 484.173C422.595 494.724 408.837 500 392.282 500H107.718ZM107.718 465.116H392.282C398.546 465.116 403.691 463.178 407.718 459.302C411.745 455.426 413.758 450.474 413.758 444.444V222.222C413.758 216.193 411.745 211.24 407.718 207.364C403.691 203.488 398.546 201.55 392.282 201.55H107.718C101.454 201.55 96.3087 203.488 92.2819 207.364C88.255 211.24 86.2416 216.193 86.2416 222.222V444.444C86.2416 450.474 88.255 455.426 92.2819 459.302C96.3087 463.178 101.454 465.116 107.718 465.116ZM250.107 378.553C263.011 378.553 273.826 374.32 282.55 365.853C291.275 357.386 295.638 346.942 295.638 334.522C295.638 322.102 291.239 311.693 282.443 303.295C273.647 294.897 262.796 290.698 249.893 290.698C236.989 290.698 226.175 294.931 217.45 303.398C208.725 311.865 204.362 322.308 204.362 334.729C204.362 347.149 208.761 357.558 217.557 365.956C226.353 374.354 237.204 378.553 250.107 378.553ZM168.121 166.667H331.879V114.987C331.879 93.0233 323.911 74.1817 307.973 58.4625C292.036 42.7433 272.685 34.8837 249.919 34.8837C227.154 34.8837 207.83 42.7433 191.946 58.4625C176.063 74.1817 168.121 93.0233 168.121 114.987V166.667Z" fill="#171717"/>
</g>
<defs>
<clipPath id="clip0_27_125">
<rect width="500" height="500" fill="white"/>
</clipPath>
</defs>
</svg>
