<svg width="500" height="500" viewBox="0 0 500 500" fill="none" xmlns="http://www.w3.org/2000/svg">
<g clip-path="url(#clip0_100_152)">
<path d="M26.0078 26.9646V0H291.287V26.9646H26.0078ZM130.689 406.78H187.256V329.738H252.276V262.712H187.256V185.67H130.689V262.712H65.6697V329.738H130.689V406.78ZM43.5631 500C31.6428 500 21.4023 494.928 12.8414 484.784C4.28045 474.64 0 462.506 0 448.382V144.838C0 130.714 4.28045 118.58 12.8414 108.436C21.4023 98.2922 31.6428 93.2203 43.5631 93.2203H273.732C285.652 93.2203 295.893 98.2922 304.454 108.436C313.015 118.58 317.295 130.714 317.295 144.838V448.382C317.295 462.506 313.015 474.64 304.454 484.784C295.893 494.928 285.652 500 273.732 500H43.5631ZM43.5631 473.035H273.732C278.934 473.035 283.702 470.467 288.036 465.331C292.371 460.195 294.538 454.545 294.538 448.382V144.838C294.538 138.675 292.371 133.025 288.036 127.889C283.702 122.753 278.934 120.185 273.732 120.185H43.5631C38.3615 120.185 33.5934 122.753 29.2588 127.889C24.9241 133.025 22.7568 138.675 22.7568 144.838V448.382C22.7568 454.545 24.9241 460.195 29.2588 465.331C33.5934 470.467 38.3615 473.035 43.5631 473.035ZM425.228 302.612C409.623 293.988 397.052 280.401 387.516 261.849C377.98 243.297 373.212 222.26 373.212 198.737C373.212 168.85 379.428 143.79 391.86 123.559C404.296 103.333 419.25 93.2203 436.723 93.2203C454.2 93.2203 469.116 103.341 481.469 123.582C493.823 143.824 500 168.77 500 198.421C500 222.155 495.232 243.297 485.696 261.849C476.16 280.401 463.589 293.988 447.984 302.612V486.133C447.984 490.216 446.864 493.549 444.623 496.132C442.378 498.711 439.738 500 436.704 500C433.548 500 430.845 498.711 428.596 496.132C426.35 493.549 425.228 490.216 425.228 486.133V302.612ZM436.704 278.12C445.091 278.12 453.945 270.914 463.264 256.502C472.583 242.09 477.243 222.848 477.243 198.775C477.243 175.334 472.529 156.376 463.101 141.903C453.669 127.424 444.913 120.185 436.834 120.185C428.229 120.185 419.267 127.422 409.948 141.895C400.629 156.369 395.969 175.452 395.969 199.145C395.969 222.838 400.661 241.923 410.046 256.402C419.434 270.881 428.32 278.12 436.704 278.12Z" fill="#171717"/>
</g>
<defs>
<clipPath id="clip0_100_152">
<rect width="500" height="500" fill="white"/>
</clipPath>
</defs>
</svg>
