<svg width="500" height="500" viewBox="0 0 500 500" fill="none" xmlns="http://www.w3.org/2000/svg">
<g clip-path="url(#clip0_100_147)">
<path d="M143.74 500C103.555 500 69.5518 485.983 41.7311 457.948C13.9104 429.913 0 395.833 0 355.71C0 339.249 2.70479 323.045 8.11437 307.099C13.524 291.152 21.8959 276.749 33.2303 263.889L146.059 129.63L80.3709 0H418.856L354.714 129.63L466.77 263.889C478.104 276.749 486.476 291.152 491.886 307.099C497.295 323.045 500 339.249 500 355.71C500 395.833 486.09 429.913 458.269 457.948C430.448 485.983 396.703 500 357.032 500H143.74ZM249.614 354.167C237.249 354.167 226.687 349.794 217.929 341.049C209.171 332.305 204.791 321.502 204.791 308.642C204.791 295.782 209.171 284.979 217.929 276.235C226.687 267.49 237.249 263.117 249.614 263.117C262.494 263.117 273.442 267.49 282.457 276.235C291.473 284.979 295.981 295.782 295.981 308.642C295.981 321.502 291.473 332.305 282.457 341.049C273.442 349.794 262.494 354.167 249.614 354.167ZM170.015 118.056H330.757L376.352 26.2346H122.875L170.015 118.056ZM143.74 472.994H356.26C389.232 472.994 417.053 461.548 439.722 438.657C462.391 415.766 473.725 388.117 473.725 355.71C473.725 341.821 471.406 328.575 466.77 315.972C462.133 303.369 455.435 291.667 446.677 280.864L333.076 144.29H166.924L54.0958 280.864C44.8223 292.695 37.8671 304.655 33.2303 316.744C28.5935 328.832 26.2751 341.821 26.2751 355.71C26.2751 388.117 37.8671 415.766 61.051 438.657C84.2349 461.548 111.798 472.994 143.74 472.994Z" fill="#171717"/>
</g>
<defs>
<clipPath id="clip0_100_147">
<rect width="500" height="500" fill="white"/>
</clipPath>
</defs>
</svg>
