<svg width="500" height="500" viewBox="0 0 500 500" fill="none" xmlns="http://www.w3.org/2000/svg">
<g clip-path="url(#clip0_41_116)">
<path d="M405.024 500C378.43 500 355.952 490.317 337.59 470.952C319.228 451.587 310.047 427.881 310.047 399.834C310.047 371.788 319.228 348.082 337.59 328.717C355.952 309.352 378.43 299.669 405.024 299.669C431.617 299.669 454.095 309.352 472.457 328.717C490.819 348.082 500 371.788 500 399.834C500 427.881 490.819 451.587 472.457 470.952C454.095 490.317 431.617 500 405.024 500ZM404.945 455.298C419.126 455.298 431.449 449.807 441.915 438.824C452.381 427.842 457.614 414.873 457.614 399.917C457.614 384.961 452.407 371.965 441.994 360.927C431.58 349.89 419.283 344.371 405.102 344.371C390.921 344.371 378.598 349.862 368.132 360.844C357.666 371.827 352.433 384.796 352.433 399.752C352.433 414.708 357.64 427.704 368.053 438.742C378.467 449.779 390.764 455.298 404.945 455.298ZM15.6986 422.185V377.483H232.339V422.185H15.6986ZM94.9764 200.331C68.383 200.331 45.9053 190.648 27.5432 171.283C9.18105 151.918 0 128.212 0 100.166C0 72.1192 9.18105 48.4134 27.5432 29.048C45.9053 9.68269 68.383 0 94.9764 0C121.57 0 144.048 9.68269 162.41 29.048C180.772 48.4134 189.953 72.1192 189.953 100.166C189.953 128.212 180.772 151.918 162.41 171.283C144.048 190.648 121.57 200.331 94.9764 200.331ZM94.898 155.629C109.079 155.629 121.402 150.138 131.868 139.156C142.334 128.173 147.567 115.204 147.567 100.248C147.567 85.2925 142.36 72.2958 131.947 61.2583C121.533 50.2208 109.236 44.702 95.0549 44.702C80.8739 44.702 68.5505 50.1932 58.0848 61.1755C47.619 72.1579 42.3862 85.127 42.3862 100.083C42.3862 115.039 47.5929 128.035 58.0063 139.073C68.4197 150.11 80.7169 155.629 94.898 155.629ZM268.446 122.517V77.8146H484.301V122.517H268.446Z" fill="#171717"/>
</g>
<defs>
<clipPath id="clip0_41_116">
<rect width="500" height="500" fill="white"/>
</clipPath>
</defs>
</svg>
