<svg width="500" height="500" viewBox="0 0 500 500" fill="none" xmlns="http://www.w3.org/2000/svg">
<g clip-path="url(#clip0_35_149)">
<path d="M144.833 282.387H166.667V222.707H205.24C211.329 222.707 216.613 220.56 221.092 216.266C225.565 211.972 227.802 206.841 227.802 200.873V163.028C227.802 156.938 225.565 151.657 221.092 147.183C216.613 142.705 211.329 140.466 205.24 140.466H144.833V282.387ZM166.667 200.873V163.028H205.24V200.873H166.667ZM258.37 282.387H314.796C321.332 282.387 326.783 280.204 331.15 275.837C335.517 271.47 337.7 266.376 337.7 260.553V163.028C337.7 156.938 335.483 151.657 331.048 147.183C326.613 142.705 321.31 140.466 315.138 140.466H258.37V282.387ZM280.204 260.553V163.028H315.138V260.553H280.204ZM375.546 282.387H397.38V222.707H440.32V200.873H397.38V163.028H440.32V140.466H375.546V282.387ZM128.093 420.67C114.44 420.67 102.899 415.878 93.4716 406.295C84.0441 396.713 79.3304 385.25 79.3304 371.907V48.7627C79.3304 35.4197 84.0441 23.9568 93.4716 14.3741C102.899 4.79136 114.44 0 128.093 0H451.237C464.58 0 476.043 4.79136 485.626 14.3741C495.209 23.9568 500 35.4197 500 48.7627V371.907C500 385.25 495.209 396.713 485.626 406.295C476.043 415.878 464.58 420.67 451.237 420.67H128.093ZM128.093 395.197H451.237C457.06 395.197 462.397 392.77 467.249 387.918C472.101 383.066 474.527 377.729 474.527 371.907V48.7627C474.527 42.9403 472.101 37.6031 467.249 32.7511C462.397 27.8991 457.06 25.4731 451.237 25.4731H128.093C122.271 25.4731 116.934 27.8991 112.082 32.7511C107.23 37.6031 104.803 42.9403 104.803 48.7627V371.907C104.803 377.729 107.23 383.066 112.082 387.918C116.934 392.77 122.271 395.197 128.093 395.197ZM48.7627 500C35.1092 500 23.5687 495.209 14.1412 485.626C4.71373 476.043 0 464.58 0 451.237V102.62H25.4731V451.237C25.4731 457.06 27.8991 462.397 32.7511 467.249C37.6031 472.101 42.9403 474.527 48.7627 474.527H397.38V500H48.7627Z" fill="#171717"/>
</g>
<defs>
<clipPath id="clip0_35_149">
<rect width="500" height="500" fill="white"/>
</clipPath>
</defs>
</svg>
