<svg width="500" height="500" viewBox="0 0 500 500" fill="none" xmlns="http://www.w3.org/2000/svg">
<g clip-path="url(#clip0_27_154)">
<path d="M250.02 500C215.509 500 183.065 493.421 152.688 480.262C122.307 467.104 95.8804 449.247 73.4073 426.694C50.9386 404.135 33.0869 377.679 19.8521 347.325C6.61738 316.971 0 284.536 0 250.02C0 215.509 6.5793 183.065 19.7379 152.688C32.8965 122.307 50.7527 95.8804 73.3065 73.4072C95.8647 50.9386 122.321 33.0869 152.675 19.8521C183.029 6.61737 215.464 0 249.98 0C284.491 0 316.935 6.5793 347.312 19.7379C377.693 32.8965 404.12 50.7527 426.593 73.3065C449.061 95.8647 466.913 122.321 480.148 152.675C493.383 183.029 500 215.464 500 249.98C500 284.491 493.421 316.935 480.262 347.312C467.104 377.693 449.247 404.12 426.694 426.593C404.135 449.061 377.679 466.913 347.325 480.148C316.971 493.383 284.536 500 250.02 500ZM221.774 475.134V420.027C205.569 420.027 192.108 414.592 181.391 403.723C170.679 392.854 165.323 379.348 165.323 363.206V334.677L28.8979 198.253C27.5538 206.093 26.3217 214.509 25.2016 223.501C24.0815 232.498 23.5215 241.402 23.5215 250.215C23.5215 307.419 42.3387 357.527 79.9731 400.538C117.608 443.548 164.875 468.414 221.774 475.134ZM417.339 402.554C426.877 392.567 435.305 381.599 442.621 369.651C449.937 357.697 456.149 345.19 461.257 332.13C466.36 319.075 470.172 305.589 472.695 291.673C475.217 277.762 476.479 263.625 476.479 249.261C476.479 202.823 463.802 160.188 438.448 121.358C413.094 82.5269 378.504 54.6192 334.677 37.6344V50.625C334.677 66.6062 329.373 80.0851 318.763 91.0618C308.159 102.039 294.646 107.527 278.226 107.527H221.774V164.651C221.774 172.903 219.086 179.559 213.71 184.617C208.333 189.675 201.691 192.204 193.784 192.204H136.425V249.328H307.413C314.948 249.328 321.375 252.144 326.694 257.776C332.016 263.407 334.677 269.888 334.677 277.218V363.575H362.762C375.401 363.575 386.743 367.198 396.788 374.442C406.832 381.687 413.683 391.057 417.339 402.554Z" fill="#171717"/>
</g>
<defs>
<clipPath id="clip0_27_154">
<rect width="500" height="500" fill="white"/>
</clipPath>
</defs>
</svg>
