<svg width="500" height="500" viewBox="0 0 500 500" fill="none" xmlns="http://www.w3.org/2000/svg">
<g clip-path="url(#clip0_139_127)">
<path d="M19.1781 285.252L0 271.669L115.753 101.552L196.575 184.994L303.425 27.8137L384.247 135.834L478.767 0L497.26 13.5834L384.247 172.704L304.795 65.9767L202.055 219.276L120.548 137.128L19.1781 285.252ZM339.733 425.615C363.016 425.615 382.763 418.174 398.973 403.292C415.183 388.407 423.288 369.972 423.288 347.988C423.288 326 415.18 307.352 398.966 292.044C382.747 276.736 362.998 269.082 339.719 269.082C316.436 269.082 296.918 276.846 281.164 292.374C265.411 307.906 257.534 326.449 257.534 348.001C257.534 369.989 265.413 388.422 281.171 403.299C296.934 418.176 316.454 425.615 339.733 425.615ZM483.562 500L405.479 426.261C396.804 432.73 386.872 438.012 375.685 442.109C364.498 446.205 352.511 448.254 339.726 448.254C309.932 448.254 284.79 438.59 264.301 419.263C243.808 399.931 233.562 376.214 233.562 348.111C233.562 320.436 243.795 296.68 264.26 276.843C284.731 257.007 309.845 247.089 339.603 247.089C369.365 247.089 394.635 256.979 415.411 276.759C436.187 296.544 446.575 320.289 446.575 347.995C446.575 360.069 444.406 371.604 440.068 382.6C435.731 393.596 430.137 403.191 423.288 411.384L500 484.476L483.562 500Z" fill="#171717"/>
</g>
<defs>
<clipPath id="clip0_139_127">
<rect width="500" height="500" fill="white"/>
</clipPath>
</defs>
</svg>
