<svg width="500" height="500" viewBox="0 0 500 500" fill="none" xmlns="http://www.w3.org/2000/svg">
<g clip-path="url(#clip0_141_121)">
<path d="M205.442 130.81V107.57H340.816V130.81H205.442ZM143.34 500C131.916 500 122.404 496.226 114.803 488.679C107.202 481.127 103.401 471.777 103.401 460.631C103.401 450.135 107.268 441.124 115 433.599C122.737 426.073 132.315 422.311 143.735 422.311C155.159 422.311 164.671 426.138 172.272 433.792C179.873 441.445 183.673 450.631 183.673 461.348C183.673 472.065 179.807 481.186 172.075 488.712C164.338 496.237 154.76 500 143.34 500ZM401.844 500C390.61 500 381.258 496.226 373.789 488.679C366.32 481.127 362.585 471.777 362.585 460.631C362.585 450.135 366.383 441.124 373.98 433.599C381.576 426.073 390.986 422.311 402.211 422.311C413.435 422.311 422.902 426.138 430.612 433.792C438.322 441.445 442.177 450.631 442.177 461.348C442.177 472.065 438.311 481.186 430.578 488.712C422.841 496.237 413.263 500 401.844 500ZM0 23.2404V0H63.9456L177.551 231.74H358.891C362.973 231.74 366.601 230.744 369.776 228.752C372.95 226.76 375.671 223.993 377.939 220.452L472.789 54.4489H500L397.959 235.724C394.095 241.523 388.946 246.514 382.51 250.697C376.075 254.88 369.254 256.972 362.048 256.972H164.626L132.653 314.741C129.025 320.053 128.798 325.808 131.973 332.005C135.147 338.203 140.363 341.301 147.619 341.301H442.177V364.542H141.497C126.685 364.542 115.726 358.566 108.619 346.614C101.512 334.661 101.134 322.488 107.483 310.093L150.34 234.396L48.9796 23.2404H0Z" fill="#171717"/>
</g>
<defs>
<clipPath id="clip0_141_121">
<rect width="500" height="500" fill="white"/>
</clipPath>
</defs>
</svg>
