<svg width="500" height="500" viewBox="0 0 500 500" fill="none" xmlns="http://www.w3.org/2000/svg">
<path d="M237.654 347.418H262.346V190.141L325.838 262.911L343.474 243.349L249.647 140.063L156.526 243.349L174.162 262.911L237.654 190.141V347.418ZM125.485 500C112.551 500 101.44 494.849 92.1517 484.546C82.863 474.244 78.2187 461.92 78.2187 447.574V50.0782H50V22.6917H161.464V0H338.536V22.6917H450V50.0782H421.781V447.574C421.781 461.92 417.137 474.244 407.848 484.546C398.56 494.849 387.449 500 374.515 500H125.485ZM397.09 50.0782H102.91V447.574C102.91 453.834 105.262 459.572 109.965 464.789C114.668 470.005 119.841 472.613 125.485 472.613H374.515C380.159 472.613 385.332 470.005 390.035 464.789C394.738 459.572 397.09 453.834 397.09 447.574V50.0782Z" fill="#171717"/>
</svg>
