<svg width="500" height="500" viewBox="0 0 500 500" fill="none" xmlns="http://www.w3.org/2000/svg">
<g clip-path="url(#clip0_217_127)">
<path d="M161 360C155.439 360 150.549 357.884 146.33 353.651C142.11 349.416 140 344.519 140 338.962C140 333.72 142.116 328.989 146.349 324.769C150.584 320.549 155.481 318.439 161.038 318.439C166.28 318.439 171.011 320.556 175.231 324.788C179.451 329.024 181.561 333.761 181.561 339C181.561 344.56 179.444 349.451 175.212 353.67C170.976 357.89 166.239 360 161 360ZM415.637 360C415.637 322.102 408.454 286.409 394.088 252.922C379.718 219.438 359.995 190.158 334.919 165.081C309.912 139.887 280.688 120.135 247.245 105.826C213.806 91.5175 178.057 84.3631 140 84.3631V60C181.72 60 220.732 67.9236 257.038 83.7707C293.347 99.6147 325.035 120.99 352.102 147.898C378.86 175.067 400.199 206.839 416.119 243.215C432.04 279.591 440 318.519 440 360H415.637ZM298.121 360C298.121 338.025 294.008 317.417 285.782 298.175C277.556 278.93 266.223 262.118 251.783 247.739C237.134 233.089 220.33 221.624 201.371 213.344C182.416 205.064 161.959 200.924 140 200.924V176.561C165.911 176.561 189.72 181.35 211.427 190.93C233.134 200.51 252.314 213.561 268.967 230.083C285.782 247.038 298.906 266.494 308.339 288.449C317.769 310.401 322.484 334.252 322.484 360H298.121Z" fill="#171717"/>
<path d="M128.093 420.67C114.44 420.67 102.899 415.878 93.4716 406.296C84.0441 396.713 79.3304 385.25 79.3304 371.907V48.7627C79.3304 35.4197 84.0441 23.9568 93.4716 14.3741C102.899 4.79136 114.44 0 128.093 0H451.237C464.58 0 476.043 4.79136 485.626 14.3741C495.209 23.9568 500 35.4197 500 48.7627V371.907C500 385.25 495.209 396.713 485.626 406.296C476.043 415.878 464.58 420.67 451.237 420.67H128.093ZM128.093 395.197H451.237C457.06 395.197 462.397 392.771 467.249 387.918C472.101 383.066 474.527 377.729 474.527 371.907V48.7627C474.527 42.9403 472.101 37.6031 467.249 32.7511C462.397 27.8991 457.06 25.4731 451.237 25.4731H128.093C122.271 25.4731 116.934 27.8991 112.082 32.7511C107.229 37.6031 104.803 42.9403 104.803 48.7627V371.907C104.803 377.729 107.229 383.066 112.082 387.918C116.934 392.771 122.271 395.197 128.093 395.197ZM48.7627 500C35.1092 500 23.5687 495.209 14.1412 485.626C4.71373 476.043 0 464.58 0 451.237V102.62H25.4731V451.237C25.4731 457.06 27.8991 462.397 32.7511 467.249C37.6031 472.101 42.9403 474.527 48.7627 474.527H397.38V500H48.7627Z" fill="#171717"/>
</g>
<defs>
<clipPath id="clip0_217_127">
<rect width="500" height="500" fill="white"/>
</clipPath>
</defs>
</svg>
