<svg width="500" height="500" viewBox="0 0 500 500" fill="none" xmlns="http://www.w3.org/2000/svg">
<g clip-path="url(#clip0_141_122)">
<path d="M485.616 311.554L310.959 486.933C306.279 491.518 301.071 494.842 295.336 496.905C289.6 498.968 283.849 500 278.082 500C272.315 500 266.662 498.968 261.123 496.905C255.584 494.842 250.507 491.518 245.89 486.933L14.3836 255.158C9.40183 251.119 5.75799 246.323 3.45206 240.77C1.15069 235.213 0 229.005 0 222.146V46.7675C0 33.9707 4.48174 22.9757 13.4452 13.7827C22.4041 4.59421 33.4475 0 46.5753 0H221.233C227.274 0 232.941 1.08895 238.233 3.26685C243.521 5.44475 248.813 8.7116 254.11 13.0674L485.616 244.842C490.201 249.464 493.744 254.72 496.247 260.612C498.749 266.508 500 272.446 500 278.425C500 284.574 498.694 290.44 496.082 296.025C493.475 301.614 489.986 306.79 485.616 311.554ZM294.521 469.739L469.178 294.36C473.744 289.775 476.027 284.388 476.027 278.198C476.027 272.008 473.744 266.621 469.178 262.036L230.226 24.7593H46.5753C40.1826 24.7593 34.8174 26.8226 30.4795 30.9491C26.1416 35.0757 23.9726 40.3485 23.9726 46.7675V221.678C23.9726 224.429 24.4292 227.295 25.3425 230.275C26.2557 233.255 27.8539 235.663 30.137 237.497L262.329 469.739C266.895 473.865 272.26 475.928 278.425 475.928C284.589 475.928 289.954 473.865 294.521 469.739ZM100.164 126.547C107.553 126.547 113.71 123.886 118.637 118.563C123.564 113.244 126.027 107.045 126.027 99.9656C126.027 92.469 123.591 86.199 118.719 81.1554C113.852 76.1119 107.84 73.5901 100.685 73.5901C93.1507 73.5901 86.7009 76.0752 81.3356 81.0454C75.9703 86.0156 73.2877 92.1481 73.2877 99.4429C73.2877 106.93 75.9772 113.32 81.3562 118.611C86.7306 123.902 93 126.547 100.164 126.547Z" fill="#171717"/>
</g>
<defs>
<clipPath id="clip0_141_122">
<rect width="500" height="500" fill="white"/>
</clipPath>
</defs>
</svg>
