<svg width="500" height="500" viewBox="0 0 500 500" fill="none" xmlns="http://www.w3.org/2000/svg">
<g clip-path="url(#clip0_48_128)">
<path d="M191.689 500L180.965 421.916C174.263 419.729 166.046 416.131 156.314 411.122C146.582 406.109 138.713 400.739 132.708 395.013L57.6408 425.853L0 323.491L61.6622 276.903C61.2154 272.559 60.6568 267.966 59.9866 263.123C59.3164 258.281 58.9812 253.688 58.9812 249.344C58.9812 245.665 59.3164 241.619 59.9866 237.205C60.6568 232.791 61.2154 227.651 61.6622 221.785L0 176.509L57.6408 76.7717L129.357 105.643C136.953 99.5188 145.442 93.9414 154.826 88.9108C164.209 83.8801 172.922 79.8338 180.965 76.7717L191.689 0H308.311L318.365 78.084C327.748 82.021 336.349 86.0674 344.169 90.2231C351.988 94.3788 359.92 99.7375 367.962 106.299L442.359 76.7717L500 176.509L434.316 225.066C435.657 229.878 436.439 234.471 436.662 238.845C436.886 243.22 436.997 247.157 436.997 250.656C436.997 253.718 436.774 257.437 436.327 261.811C435.88 266.185 435.433 271.435 434.987 277.559L497.989 323.491L440.349 425.853L364.611 394.357C357.015 400.481 349.531 405.731 342.158 410.105C334.786 414.479 327.078 417.979 319.035 420.604L308.311 500H191.689ZM222.52 464.567H275.369L285.523 392.388C299.374 388.889 311.865 384.06 322.996 377.9C334.131 371.737 345.769 363.005 357.909 351.706L423.592 379.265L451.072 334.646L393.432 291.339C395.666 283.465 397.23 276.196 398.123 269.534C399.017 262.872 399.464 256.201 399.464 249.521C399.464 242.404 399.129 236.002 398.458 230.315C397.788 224.628 396.336 217.41 394.102 208.661L452.413 165.354L426.273 120.735L357.909 147.638C350.313 138.889 339.278 130.405 324.806 122.185C310.328 113.961 297.011 108.666 284.853 106.299L277.48 35.4331H221.85L215.147 104.987C199.955 108.049 186.327 112.97 174.263 119.751C162.198 126.531 150.357 135.827 138.74 147.638L73.7265 120.735L46.2466 165.354L102.547 208.005C100.313 215.442 98.7489 222.66 97.8552 229.659C96.9616 236.658 96.5147 243.311 96.5147 249.619C96.5147 255.122 96.9616 261.374 97.8552 268.373C98.7489 275.372 100.089 283.246 101.877 291.995L46.2466 334.646L73.7265 379.265L138.74 352.362C151.251 363.736 163.427 372.594 175.268 378.937C187.109 385.28 200.179 390.201 214.477 393.701L222.52 464.567ZM246.649 325.459C268.365 325.459 286.752 318.088 301.81 303.346C316.868 288.605 324.397 270.604 324.397 249.344C324.397 228.084 316.868 210.083 301.81 195.341C286.752 180.599 268.365 173.228 246.649 173.228C225.201 173.228 206.881 180.599 191.689 195.341C176.497 210.083 168.901 228.084 168.901 249.344C168.901 270.604 176.497 288.605 191.689 303.346C206.881 318.088 225.201 325.459 246.649 325.459Z" fill="#171717"/>
</g>
<defs>
<clipPath id="clip0_48_128">
<rect width="500" height="500" fill="white"/>
</clipPath>
</defs>
</svg>
