<svg width="500" height="500" viewBox="0 0 500 500" fill="none" xmlns="http://www.w3.org/2000/svg">
<g clip-path="url(#clip0_141_119)">
<path d="M150.522 500C139.042 500 129.481 496.288 121.84 488.863C114.194 481.438 110.371 472.241 110.371 461.27C110.371 450.299 114.248 441.157 122.003 433.843C129.757 426.529 139.37 422.872 150.841 422.872C162.312 422.872 171.995 426.585 179.891 434.009C187.787 441.434 191.735 450.632 191.735 461.602C191.735 472.573 187.785 481.715 179.884 489.029C171.984 496.343 162.196 500 150.522 500ZM419.376 500C407.895 500 398.334 496.288 390.693 488.863C383.047 481.438 379.225 472.241 379.225 461.27C379.225 450.299 383.102 441.157 390.856 433.843C398.61 426.529 408.223 422.872 419.694 422.872C431.17 422.872 440.853 426.585 448.744 434.009C456.64 441.434 460.588 450.632 460.588 461.602C460.588 472.573 456.638 481.715 448.737 489.029C440.837 496.343 431.05 500 419.376 500ZM106.834 76.4628L186.075 232.713H374.272C378.517 232.713 382.408 231.715 385.946 229.721C389.483 227.726 392.196 224.956 394.082 221.41L468.371 95.0798C471.201 90.2039 471.436 85.8821 469.078 82.1144C466.72 78.3466 462.711 76.4628 457.051 76.4628H106.834ZM94.0986 53.1915H466.956C479.46 53.1915 488.836 57.9566 495.086 67.4867C501.331 77.0168 501.624 86.8794 495.963 97.0745L415.562 234.894C411.591 241.02 406.204 246.066 399.403 250.033C392.601 254 385.453 255.984 377.958 255.984H172.632L138.672 313.83C135.37 319.149 135.37 324.911 138.672 331.117C141.973 337.323 147.162 340.426 154.237 340.426H461.296V363.697H148.577C132.068 363.697 120.276 357.824 113.201 346.077C106.126 334.331 106.126 322.03 113.201 309.176L157.774 233.378L51.6481 23.2713H0V0H67.2133L94.0986 53.1915Z" fill="#171717"/>
</g>
<defs>
<clipPath id="clip0_141_119">
<rect width="500" height="500" fill="white"/>
</clipPath>
</defs>
</svg>
