<svg width="500" height="500" viewBox="0 0 500 500" fill="none" xmlns="http://www.w3.org/2000/svg">
<path d="M97.1831 500C84.2723 500 73.1808 495.478 63.9085 486.435C54.6361 477.392 50 466.575 50 453.984V157.967C50 145.375 54.6361 134.558 63.9085 125.515C73.1808 116.472 84.2723 111.951 97.1831 111.951H153.521V92.033C153.521 65.9341 162.85 44.0705 181.507 26.4423C200.164 8.8141 222.977 0 249.944 0C276.911 0 299.859 8.8141 318.789 26.4423C337.718 44.0705 347.183 65.9341 347.183 92.033V111.951H402.817C415.728 111.951 426.819 116.472 436.092 125.515C445.364 134.558 450 145.375 450 157.967V453.984C450 466.575 445.364 477.392 436.092 486.435C426.819 495.478 415.728 500 402.817 500H97.1831ZM97.1831 475.962H402.817C408.451 475.962 413.615 473.672 418.31 469.093C423.005 464.515 425.352 459.478 425.352 453.984V157.967C425.352 152.473 423.005 147.436 418.31 142.857C413.615 138.278 408.451 135.989 402.817 135.989H347.183V206.044C347.183 209.579 345.899 212.523 343.331 214.876C340.763 217.23 337.777 218.407 334.373 218.407C331.162 218.407 328.387 217.23 326.049 214.876C323.707 212.523 322.535 209.579 322.535 206.044V135.989H178.169V206.044C178.169 209.579 176.885 212.523 174.317 214.876C171.749 217.23 168.763 218.407 165.359 218.407C162.153 218.407 159.378 217.23 157.035 214.876C154.692 212.523 153.521 209.579 153.521 206.044V135.989H97.1831C91.5493 135.989 86.385 138.278 81.6901 142.857C76.9953 147.436 74.6479 152.473 74.6479 157.967V453.984C74.6479 459.478 76.9953 464.515 81.6901 469.093C86.385 473.672 91.5493 475.962 97.1831 475.962ZM178.169 111.951H322.535V92.033C322.535 72.8022 315.474 56.6621 301.352 43.6126C287.23 30.5632 270.094 24.0385 249.944 24.0385C229.793 24.0385 212.793 30.5632 198.944 43.6126C185.094 56.6621 178.169 72.8022 178.169 92.033V111.951Z" fill="#171717"/>
</svg>
