<svg width="500" height="500" viewBox="0 0 500 500" fill="none" xmlns="http://www.w3.org/2000/svg">
<g clip-path="url(#clip0_43_125)">
<path d="M63.2353 500C45.2304 500 30.1912 493.961 18.1176 481.882C6.03922 469.809 0 454.77 0 436.765V63.2353C0 45.2353 6.03922 30.1961 18.1176 18.1177C30.1912 6.03923 45.2304 0 63.2353 0H436.765C454.765 0 469.804 6.03923 481.882 18.1177C493.961 30.1961 500 45.2353 500 63.2353V436.765C500 454.77 493.961 469.809 481.882 481.882C469.804 493.961 454.765 500 436.765 500H63.2353ZM250 460.294H436.765C442.647 460.294 448.039 457.843 452.941 452.941C457.843 448.039 460.294 442.647 460.294 436.765V63.2353C460.294 57.3529 457.843 51.9608 452.941 47.0588C448.039 42.1569 442.647 39.7059 436.765 39.7059H250V460.294Z" fill="#171717"/>
</g>
<defs>
<clipPath id="clip0_43_125">
<rect width="500" height="500" fill="white"/>
</clipPath>
</defs>
</svg>
