<svg width="500" height="500" viewBox="0 0 500 500" fill="none" xmlns="http://www.w3.org/2000/svg">
<g clip-path="url(#clip0_37_173)">
<path d="M119.668 0H384.766V318.508L219.401 500L210.273 490.56C207.734 488.183 205.799 485.098 204.466 481.306C203.138 477.508 202.474 473.62 202.474 469.641V467.001L229.167 318.508H43.6198C32.4219 318.508 22.3524 313.582 13.4115 303.73C4.47049 293.879 0 282.783 0 270.445V230.05C0 226.851 0.651042 224.055 1.95313 221.664L74.6419 32.4605C78.3529 23.1253 84.6029 15.3826 93.3919 9.23242C102.177 3.07747 110.935 0 119.668 0ZM361.979 25.1076H121.094C116.319 25.1076 111.437 26.5423 106.445 29.4118C101.454 32.2812 97.6563 37.0636 95.0521 43.759L22.7865 233.142V270.445C22.7865 276.662 24.7396 282.042 28.6458 286.585C32.5521 291.129 37.5434 293.4 43.6198 293.4H257.813L227.214 457.676L361.979 307.747V25.1076ZM384.766 318.508V293.4H477.214V25.1076H384.766V0H500V318.508H384.766Z" fill="#171717"/>
</g>
<defs>
<clipPath id="clip0_37_173">
<rect width="500" height="500" fill="white"/>
</clipPath>
</defs>
</svg>
