<svg width="500" height="500" viewBox="0 0 500 500" fill="none" xmlns="http://www.w3.org/2000/svg">
<g clip-path="url(#clip0_37_175)">
<path d="M380.234 500H115.234V181.492L279.948 0L289.642 9.44044C292.242 11.8173 294.206 14.902 295.534 18.6944C296.862 22.4916 297.526 26.1406 297.526 29.6413V32.9986L270.182 181.492H456.38C467.578 181.492 477.648 186.418 486.589 196.27C495.53 206.121 500 217.217 500 229.555V261.298C500 263.867 499.892 266.75 499.674 269.95C499.457 273.149 498.698 275.945 497.396 278.336L425.358 467.539C421.061 476.951 414.557 484.715 405.846 490.832C397.135 496.944 388.598 500 380.234 500ZM138.021 474.892H378.906C383.247 474.892 388.021 473.458 393.229 470.588C398.438 467.719 402.344 462.936 404.948 456.241L477.214 266.858V229.555C477.214 223.338 475.152 217.958 471.029 213.415C466.905 208.871 462.023 206.6 456.38 206.6H242.188L272.786 41.6069L138.021 192.253V474.892ZM115.234 181.492V206.6H22.7865V474.892H115.234V500H0V181.492H115.234Z" fill="#171717"/>
</g>
<defs>
<clipPath id="clip0_37_175">
<rect width="500" height="500" fill="white"/>
</clipPath>
</defs>
</svg>
