<svg width="500" height="500" viewBox="0 0 500 500" fill="none" xmlns="http://www.w3.org/2000/svg">
<g clip-path="url(#clip0_27_153)">
<path d="M240.765 500C207.784 499.104 176.561 492.16 147.098 479.167C117.634 466.174 92.1284 448.253 70.5805 425.403C49.0325 402.554 31.8821 376.16 19.1293 346.223C6.37643 316.281 0 284.196 0 249.966C0 215.491 6.51055 183.105 19.5317 152.809C32.5528 122.509 50.1143 96.0999 72.2164 73.582C94.3184 51.0596 120.237 33.1653 149.974 19.8992C179.71 6.63305 211.513 0 245.383 0C309.85 0 365.325 21.9534 411.807 65.8602C458.289 109.767 484.389 163.978 490.106 228.495H467.018C463.342 185.905 449.23 147.48 424.683 113.219C400.136 78.9583 368.074 53.7634 328.496 37.6344V50.4032C328.496 66.5323 323.219 80.0851 312.665 91.0618C302.111 102.039 288.918 107.527 273.087 107.527H217.678V164.651C217.678 172.527 215.04 179.088 209.763 184.335C204.485 189.581 197.889 192.204 189.974 192.204H133.905V249.328H184.037V333.333H162.269L28.3641 198.253C27.0449 206.317 25.8355 214.756 24.7361 223.569C23.6368 232.377 23.0871 241.25 23.0871 250.188C23.0871 311.443 44.0853 364.247 86.0818 408.602C128.078 452.957 179.639 475.582 240.765 476.479V500ZM482.85 481.855L389.182 387.769C381.266 394.041 372.911 398.522 364.116 401.21C355.321 403.898 346.62 405.242 338.015 405.242C313.788 405.242 293.283 396.716 276.497 379.664C259.712 362.612 251.319 341.779 251.319 317.164C251.319 292.549 259.688 271.617 276.425 254.368C293.162 237.119 313.61 228.495 337.77 228.495C361.931 228.495 382.476 237.11 399.406 254.341C416.337 271.573 424.802 292.623 424.802 317.493C424.802 326.709 423.373 336.022 420.515 345.43C417.656 354.839 412.709 363.383 405.673 371.062L500 465.054L482.85 481.855ZM337.639 381.72C355.264 381.72 370.35 375.426 382.896 362.836C395.442 350.246 401.715 335.067 401.715 317.298C401.715 299.341 395.471 283.972 382.982 271.19C370.493 258.407 355.431 252.016 337.797 252.016C320.163 252.016 305.189 258.378 292.876 271.102C280.563 283.826 274.406 299.171 274.406 317.137C274.406 335.103 280.585 350.358 292.942 362.903C305.299 375.448 320.198 381.72 337.639 381.72Z" fill="#171717"/>
</g>
<defs>
<clipPath id="clip0_27_153">
<rect width="500" height="500" fill="white"/>
</clipPath>
</defs>
</svg>
