<svg width="500" height="500" viewBox="0 0 500 500" fill="none" xmlns="http://www.w3.org/2000/svg">
<g clip-path="url(#clip0_98_120)">
<path d="M0 500V0H500V500H0ZM69.3681 331.276H142.26C147.695 331.276 152.587 327.97 156.937 321.358C161.287 314.753 163.462 307.555 163.462 299.763V230.298C163.462 222.754 161.255 215.919 156.841 209.794C152.431 203.676 147.541 200.617 142.17 200.617H92.033V137.86H163.462V103.909H69.3681V234.568H140.797V297.325H69.3681V331.276ZM245.192 384.774H423.764V380.658C423.764 358.285 415.888 340.861 400.137 328.385C384.386 315.909 362.5 309.671 334.478 309.671C306.09 309.671 284.112 315.909 268.544 328.385C252.976 340.861 245.192 358.285 245.192 380.658V384.774ZM334.135 234.568C345.568 234.568 355.009 228.762 362.459 217.15C369.904 205.538 373.626 191.739 373.626 175.751C373.626 159.084 369.876 145.171 362.376 134.012C354.876 122.86 345.577 117.284 334.478 117.284C322.816 117.284 313.375 122.918 306.154 134.187C298.938 145.456 295.33 159.427 295.33 176.101C295.33 192.082 298.938 205.823 306.154 217.325C313.375 228.82 322.701 234.568 334.135 234.568ZM24.0385 463.992H475.962V36.0082H24.0385V463.992Z" fill="#171717"/>
</g>
<defs>
<clipPath id="clip0_98_120">
<rect width="500" height="500" fill="white"/>
</clipPath>
</defs>
</svg>
