<svg width="500" height="500" viewBox="0 0 500 500" fill="none" xmlns="http://www.w3.org/2000/svg">
<path d="M250.218 332.7C274.948 332.7 296.124 324.553 313.744 308.26C331.364 291.964 340.174 272.477 340.174 249.8C340.174 227.12 331.291 207.7 313.526 191.54C295.757 175.38 274.509 167.3 249.782 167.3C225.052 167.3 203.876 175.447 186.256 191.74C168.636 208.036 159.826 227.523 159.826 250.2C159.826 272.88 168.709 292.3 186.474 308.46C204.243 324.62 225.491 332.7 250.218 332.7ZM249.67 312.738C230.819 312.738 214.76 306.553 201.493 294.184C188.226 281.816 181.592 266.987 181.592 249.698C181.592 232.409 188.335 217.681 201.822 205.513C215.309 193.346 231.478 187.262 250.33 187.262C269.181 187.262 285.24 193.447 298.507 205.816C311.774 218.184 318.408 233.013 318.408 250.302C318.408 267.591 311.665 282.319 298.178 294.487C284.691 306.654 268.522 312.738 249.67 312.738ZM250.087 400C196.132 400 146.663 386.407 101.679 359.221C56.6957 332.034 22.8027 295.627 0 250C22.8027 204.373 56.6667 167.966 101.592 140.779C146.513 113.593 195.954 100 249.913 100C303.868 100 353.337 113.593 398.321 140.779C443.304 167.966 477.197 204.373 500 250C477.197 295.627 443.333 332.034 398.408 359.221C353.487 386.407 304.046 400 250.087 400ZM249.894 380.038C298.887 380.038 343.464 368.426 383.626 345.202C423.787 321.977 454.701 290.243 476.368 250C454.701 209.757 423.823 178.023 383.731 154.798C343.64 131.574 299.098 119.962 250.106 119.962C201.113 119.962 156.432 131.574 116.063 154.798C75.6944 178.023 44.8839 209.757 23.6318 250C44.8839 290.243 75.6592 321.977 115.958 345.202C156.256 368.426 200.902 380.038 249.894 380.038Z" fill="#171717"/>
</svg>
