<svg width="500" height="500" viewBox="0 0 500 500" fill="none" xmlns="http://www.w3.org/2000/svg">
<g clip-path="url(#clip0_36_164)">
<path d="M43.8482 447.075C31.8499 447.075 21.5423 442.491 12.9254 433.322C4.30846 424.153 0 413.185 0 400.418V130.919C0 118.152 4.30846 107.184 12.9254 98.0153C21.5423 88.8463 31.8499 84.2618 43.8482 84.2618H158.377V46.6574C158.377 33.4912 162.685 22.4234 171.302 13.454C179.919 4.48468 190.227 0 202.225 0H274.215C286.213 0 296.52 4.48468 305.137 13.454C313.754 22.4234 318.063 33.4912 318.063 46.6574V84.2618H432.592C444.59 84.2618 454.897 88.8463 463.514 98.0153C472.131 107.184 476.44 118.152 476.44 130.919V252.089C473.294 249.229 469.673 246.541 465.576 244.025C461.475 241.509 457.461 239.322 453.534 237.465V130.919C453.534 124.42 451.571 119.081 447.644 114.903C443.717 110.724 438.7 108.635 432.592 108.635H43.8482C37.74 108.635 32.7225 110.724 28.7958 114.903C24.8691 119.081 22.9058 124.42 22.9058 130.919V400.418C22.9058 406.917 24.8691 412.256 28.7958 416.435C32.7225 420.613 37.74 422.702 43.8482 422.702H245.419C246.291 427.344 247.491 431.639 249.018 435.585C250.545 439.531 252.4 443.361 254.581 447.075H43.8482ZM181.283 84.2618H295.157V46.6574C295.157 40.1578 293.194 34.8189 289.267 30.6407C285.34 26.4624 280.323 24.3733 274.215 24.3733H202.225C196.117 24.3733 191.099 26.4624 187.173 30.6407C183.246 34.8189 181.283 40.1578 181.283 46.6574V84.2618ZM395.288 500C366.056 500 341.296 489.206 321.008 467.618C300.72 446.031 290.576 419.684 290.576 388.579C290.576 357.474 300.72 331.128 321.008 309.54C341.296 287.953 366.056 277.159 395.288 277.159C424.52 277.159 449.28 287.953 469.568 309.54C489.856 331.128 500 357.474 500 388.579C500 419.684 489.856 446.031 469.568 467.618C449.28 489.206 424.52 500 395.288 500ZM404.45 385.794V299.443H384.162V393.726L439.791 451.95L454.188 436.63L404.45 385.794Z" fill="#171717"/>
</g>
<defs>
<clipPath id="clip0_36_164">
<rect width="500" height="500" fill="white"/>
</clipPath>
</defs>
</svg>
