<svg width="500" height="500" viewBox="0 0 500 500" fill="none" xmlns="http://www.w3.org/2000/svg">
<g clip-path="url(#clip0_59_119)">
<path d="M117.232 189.32L235.169 0L353.107 189.32H117.232ZM393.404 500C363.63 500 338.642 489.776 318.439 469.327C298.237 448.879 288.136 424.387 288.136 395.853C288.136 366.241 298.272 341.523 318.545 321.699C338.818 301.87 363.771 291.956 393.404 291.956C423.037 291.956 448.211 301.854 468.927 321.65C489.642 341.452 500 366.234 500 395.999C500 424.838 489.677 449.383 469.032 469.632C448.383 489.877 423.173 500 393.404 500ZM0 483.356V305.132H181.497V483.356H0Z" fill="#171717"/>
</g>
<defs>
<clipPath id="clip0_59_119">
<rect width="500" height="500" fill="white"/>
</clipPath>
</defs>
</svg>
