<svg width="500" height="500" viewBox="0 0 500 500" fill="none" xmlns="http://www.w3.org/2000/svg">
<g clip-path="url(#clip0_214_119)">
<path d="M239.011 375H263.049V263.049H375V239.011H263.049V125H239.011V239.011H125V263.049H239.011V375ZM249.986 500C215.147 500 182.695 493.381 152.63 480.144C122.562 466.907 96.234 449.006 73.647 426.442C51.0554 403.878 33.1342 377.534 19.8832 347.411C6.62775 317.287 0 284.741 0 249.773C0 215.314 6.63233 182.91 19.897 152.562C33.1616 122.218 51.1401 95.6891 73.8324 72.9739C96.5293 50.2587 122.857 32.4176 152.816 19.4506C182.77 6.48352 215.137 0 249.918 0C284.409 0 316.898 6.47663 347.383 19.4299C377.869 32.3786 404.418 50.1992 427.033 72.8915C449.647 95.5884 467.461 122.166 480.474 152.624C493.491 183.081 500 215.563 500 250.069C500 285.037 493.523 317.438 480.57 347.273C467.621 377.109 449.803 403.34 427.115 425.968C404.428 448.592 377.859 466.587 347.411 479.952C316.962 493.317 284.487 500 249.986 500Z" fill="#171717"/>
</g>
<defs>
<clipPath id="clip0_214_119">
<rect width="500" height="500" fill="white"/>
</clipPath>
</defs>
</svg>
