<svg width="500" height="500" viewBox="0 0 500 500" fill="none" xmlns="http://www.w3.org/2000/svg">
<g clip-path="url(#clip0_100_142)">
<path d="M115.036 155.093L62.2547 189.043C57.7435 192.644 52.5556 193.673 46.691 192.13C40.8265 190.586 36.7664 186.728 34.5108 180.556L2.70673 118.056C0 111.883 -0.676682 106.096 0.676682 100.694C2.03004 95.2932 5.18789 91.0494 10.1502 87.963L139.396 0H171.2C177.065 0 181.576 1.67181 184.734 5.01543C187.892 8.35905 189.471 13.3745 189.471 20.0617V25.463C189.471 45.0103 195.223 61.3426 206.726 74.4599C218.23 87.5772 232.553 94.1358 249.695 94.1358C266.838 94.1358 281.274 87.5772 293.003 74.4599C304.732 61.3426 310.597 45.0103 310.597 25.463V20.0617C310.597 13.3745 312.063 8.35905 314.995 5.01543C317.928 1.67181 322.326 0 328.191 0H359.995L489.917 87.963C494.88 91.0494 498.038 95.2932 499.391 100.694C500.744 106.096 499.842 111.883 496.684 118.056L464.88 180.556C462.625 186.728 458.339 190.715 452.023 192.515C445.708 194.316 440.52 193.416 436.46 189.815L383.678 153.549V476.08C383.678 482.768 381.648 488.426 377.588 493.056C373.528 497.685 368.566 500 362.701 500H136.013C130.148 500 125.186 497.685 121.126 493.056C117.066 488.426 115.036 482.768 115.036 476.08V155.093Z" fill="#171717"/>
</g>
<defs>
<clipPath id="clip0_100_142">
<rect width="500" height="500" fill="white"/>
</clipPath>
</defs>
</svg>
