<svg width="500" height="500" viewBox="0 0 500 500" fill="none" xmlns="http://www.w3.org/2000/svg">
<g clip-path="url(#clip0_217_126)">
<path d="M52.1807 500C37.9024 500 25.636 494.873 15.3816 484.618C5.12721 474.364 0 462.098 0 447.819V52.1807C0 37.9024 5.12721 25.636 15.3816 15.3816C25.636 5.12721 37.9024 0 52.1807 0H447.819C462.098 0 474.364 5.12721 484.618 15.3816C494.873 25.636 500 37.9024 500 52.1807V447.819C500 462.098 494.873 474.364 484.618 484.618C474.364 494.873 462.098 500 447.819 500H52.1807ZM107.477 390.966H295.95V363.707H107.477V390.966ZM107.477 263.24H392.523V235.981H107.477V263.24ZM107.477 135.514H392.523V108.255H107.477V135.514Z" fill="#171717"/>
</g>
<defs>
<clipPath id="clip0_217_126">
<rect width="500" height="500" fill="white"/>
</clipPath>
</defs>
</svg>
