<svg width="500" height="500" viewBox="0 0 500 500" fill="none" xmlns="http://www.w3.org/2000/svg">
<g clip-path="url(#clip0_139_128)">
<path d="M465.432 500L392.593 419.595H110.494C79.6296 419.595 53.4979 407.996 32.0988 384.797C10.6996 361.599 0 333.108 0 299.324C0 265.541 10.9054 237.162 32.716 214.189C54.5267 191.216 79.0123 179.505 106.173 179.054C105.35 172.748 106.584 163.739 109.877 152.027C113.169 140.315 117.284 131.081 122.222 124.324L24.0741 16.8919L39.5062 0L480.864 483.108L465.432 500ZM470.37 397.297L168.519 67.5676C183.745 57.6577 197.428 50.7883 209.568 46.9595C221.708 43.1306 234.979 41.2162 249.383 41.2162C289.3 41.2162 323.354 56.0811 351.543 85.8108C379.733 115.541 395.062 152.027 397.531 195.27V234.459H417.284C440.741 235.811 460.391 245.045 476.235 262.162C492.078 279.279 500 300.676 500 326.351C500 338.514 497.737 350.901 493.21 363.514C488.683 376.126 481.07 387.387 470.37 397.297Z" fill="#171717"/>
</g>
<defs>
<clipPath id="clip0_139_128">
<rect width="500" height="500" fill="white"/>
</clipPath>
</defs>
</svg>
