<svg width="500" height="500" viewBox="0 0 500 500" fill="none" xmlns="http://www.w3.org/2000/svg">
<g clip-path="url(#clip0_139_130)">
<path d="M111.111 450C80.3292 450 54.1152 437.663 32.4691 412.989C10.823 388.316 0 358.134 0 322.445C0 290.167 10.0823 261.307 30.2469 235.866C50.4115 210.424 74.8971 197.232 103.704 196.29C108.642 154.358 125.113 119.494 153.117 91.6961C181.121 63.8987 213.621 50 250.617 50C289.712 50 323.354 65.6655 351.543 96.9965C379.733 128.327 395.062 166.843 397.531 212.544V254.947H417.284C440.741 255.889 460.391 265.43 476.235 283.569C492.078 301.708 500 324.441 500 351.767C500 379.173 491.683 402.396 475.049 421.435C458.42 440.478 438.136 450 414.198 450H111.111Z" fill="#171717"/>
</g>
<defs>
<clipPath id="clip0_139_130">
<rect width="500" height="500" fill="white"/>
</clipPath>
</defs>
</svg>
