<svg width="500" height="500" viewBox="0 0 500 500" fill="none" xmlns="http://www.w3.org/2000/svg">
<g clip-path="url(#clip0_217_125)">
<path d="M48.7627 500C34.9345 500 23.3503 495.209 14.0102 485.626C4.67006 476.043 0 464.58 0 451.237V102.62H25.4731V451.237C25.4731 457.06 27.8991 462.397 32.7511 467.249C37.6031 472.101 42.9403 474.527 48.7627 474.527H397.38V500H48.7627ZM128.093 420.67C114.265 420.67 102.681 415.878 93.3406 406.295C84.0005 396.713 79.3304 385.25 79.3304 371.907V48.7627C79.3304 35.4197 84.0005 23.9568 93.3406 14.3741C102.681 4.79136 114.265 0 128.093 0H451.237C464.58 0 476.043 4.79136 485.626 14.3741C495.209 23.9568 500 35.4197 500 48.7627V371.907C500 385.25 495.209 396.713 485.626 406.295C476.043 415.878 464.58 420.67 451.237 420.67H128.093ZM299.127 204.512L357.351 170.306L414.847 204.512V25.4731H299.127V204.512Z" fill="#171717"/>
</g>
<defs>
<clipPath id="clip0_217_125">
<rect width="500" height="500" fill="white"/>
</clipPath>
</defs>
</svg>
