<svg width="500" height="500" viewBox="0 0 500 500" fill="none" xmlns="http://www.w3.org/2000/svg">
<g clip-path="url(#clip0_100_143)">
<path d="M220.159 488.506V305.591L256.684 175.583C257.091 174.017 257.878 172.961 259.045 172.414C260.208 171.866 261.835 171.593 263.926 171.593H456.897C457.953 171.593 459.324 171.866 461.008 172.414C462.688 172.961 463.749 174.02 464.191 175.591L500 305.542V488.391C500 491.877 499.122 494.685 497.367 496.814C495.612 498.938 493.492 500 491.008 500H490.544C488.227 500 486.13 498.996 484.251 496.987C482.372 494.973 481.432 492.146 481.432 488.506V441.708H238.727V488.103C238.727 491.782 237.739 494.685 235.763 496.814C233.786 498.938 231.777 500 229.735 500H229.271C226.954 500 224.856 498.996 222.977 496.987C221.099 494.973 220.159 492.146 220.159 488.506ZM244.032 284.893H476.127L450.928 192.118H269.702L244.032 284.893ZM281.24 389.163C287.394 389.163 292.787 386.264 297.42 380.468C302.058 374.666 304.377 367.956 304.377 360.337C304.377 353.265 302.036 346.861 297.354 341.125C292.668 335.383 287.248 332.512 281.094 332.512C274.94 332.512 269.547 335.41 264.914 341.207C260.276 347.009 257.958 353.446 257.958 360.517C257.958 368.136 260.298 374.814 264.98 380.55C269.666 386.292 275.086 389.163 281.24 389.163ZM439.728 389.163C445.44 389.163 450.723 386.264 455.577 380.468C460.435 374.666 462.865 367.956 462.865 360.337C462.865 353.265 460.413 346.861 455.511 341.125C450.603 335.383 445.294 332.512 439.582 332.512C433.428 332.512 428.035 335.41 423.402 341.207C418.764 347.009 416.446 353.446 416.446 360.517C416.446 368.136 418.786 374.814 423.468 380.55C428.154 386.292 433.574 389.163 439.728 389.163ZM53.7135 490.969V490.148L106.101 425.287C79.5756 425.287 55.2608 418.82 33.1565 405.887C11.0522 392.958 0 372.619 0 344.869V56.092C0 36.2124 12.931 21.8938 38.7931 13.1363C64.6552 4.37876 104.332 0 157.825 0C207.781 0 246.574 4.92611 274.204 14.7783C301.835 24.6305 315.65 38.3142 315.65 55.8292V108.374H297.745V55.0082H17.9045V299.672H169.098V490.969H53.7135ZM62.4072 372.742C68.5566 372.742 73.95 369.844 78.5875 364.048C83.225 358.246 85.5438 351.809 85.5438 344.737C85.5438 337.118 83.2029 330.441 78.5212 324.704C73.8351 318.963 68.4151 316.092 62.2613 316.092C56.5539 316.092 51.3815 318.99 46.744 324.787C42.1065 330.588 39.7878 337.299 39.7878 344.918C39.7878 351.99 42.1286 358.394 46.8103 364.13C51.4965 369.871 56.6954 372.742 62.4072 372.742Z" fill="#171717"/>
</g>
<defs>
<clipPath id="clip0_100_143">
<rect width="500" height="500" fill="white"/>
</clipPath>
</defs>
</svg>
