<svg width="500" height="500" viewBox="0 0 500 500" fill="none" xmlns="http://www.w3.org/2000/svg">
<path d="M484.744 335.886C482.203 333.564 478.477 333.109 475.442 334.711C388.54 380.802 281.892 350.145 232.684 264.911C183.476 179.678 210.237 72.0039 293.609 19.7774C296.524 17.9553 297.978 14.4922 297.237 11.1388C296.502 7.78001 293.736 5.24442 290.327 4.81085C236.306 -2.13183 182.812 8.60874 135.596 35.8745C78.4851 68.8316 37.6304 122.079 20.5618 185.781C3.49327 249.484 12.2526 316.018 45.2316 373.135C78.2052 430.251 131.447 471.106 195.15 488.175C216.422 493.872 238.008 496.693 259.456 496.693C302.237 496.693 344.464 485.475 382.503 463.51C429.708 436.256 465.766 395.291 486.764 345.04C488.092 341.868 487.28 338.207 484.744 335.886Z" fill="#171717"/>
</svg>
