<svg width="500" height="500" viewBox="0 0 500 500" fill="none" xmlns="http://www.w3.org/2000/svg">
<g clip-path="url(#clip0_97_120)">
<path d="M224.537 493.767L26.2346 390.582C17.3611 386.228 10.7716 380.388 6.46605 373.061C2.15535 365.734 0 358.186 0 350.416V149.584C0 141.814 2.15535 134.266 6.46605 126.939C10.7716 119.612 17.3611 113.772 26.2346 109.418L224.537 6.23269C232.716 2.07756 241.191 0 249.961 0C258.732 0 267.49 2.07756 276.235 6.23269L473.765 109.418C482.124 113.772 488.588 119.612 493.156 126.939C497.719 134.266 500 141.814 500 149.584V350.416C500 358.186 497.719 365.734 493.156 373.061C488.588 380.388 482.124 386.228 473.765 390.582L276.235 493.767C267.32 497.922 258.477 500 249.707 500C240.936 500 232.546 497.922 224.537 493.767ZM236.883 256.925V471.607L239.198 472.992C242.798 474.838 246.399 475.762 250 475.762C253.601 475.762 257.202 474.838 260.802 472.992L263.889 471.607V257.057L472.994 148.199V145.36C472.994 143.052 472.351 140.743 471.065 138.435C469.779 136.127 467.85 134.28 465.278 132.895L456.79 128.809L250 236.842L43.2099 128.809L34.7222 132.652C32.1502 134.037 30.2212 135.884 28.9352 138.193C27.6492 140.501 27.0062 142.809 27.0062 145.118V147.507L236.883 256.925Z" fill="#171717"/>
</g>
<defs>
<clipPath id="clip0_97_120">
<rect width="500" height="500" fill="white"/>
</clipPath>
</defs>
</svg>
