<svg width="500" height="500" viewBox="0 0 500 500" fill="none" xmlns="http://www.w3.org/2000/svg">
<g clip-path="url(#clip0_100_144)">
<path d="M0 329.345C0 291.142 18.0879 262.804 54.2636 244.332C90.4393 225.861 130.276 216.625 173.773 216.625C217.7 216.625 257.644 225.861 293.605 244.332C329.565 262.804 347.545 291.142 347.545 329.345H0ZM0 414.358V391.058H347.545V414.358H0ZM20.6718 500C15.1809 500 10.3639 497.951 6.22093 493.854C2.07364 489.761 0 485.12 0 479.931V476.7H347.545V479.931C347.545 485.12 345.584 489.761 341.66 493.854C337.737 497.951 333.023 500 327.519 500H20.6718ZM395.349 500V326.826C395.349 294.311 384.259 266.031 362.08 241.984C339.901 217.941 313.092 200.252 281.654 188.917L233.85 93.199H354.651V0H377.261V93.199H500L461.886 461.587C460.448 473.165 455.661 482.462 447.526 489.477C439.391 496.492 429.75 500 418.605 500H395.349Z" fill="#171717"/>
</g>
<defs>
<clipPath id="clip0_100_144">
<rect width="500" height="500" fill="white"/>
</clipPath>
</defs>
</svg>
