<svg width="500" height="500" viewBox="0 0 500 500" fill="none" xmlns="http://www.w3.org/2000/svg">
<g clip-path="url(#clip0_34_136)">
<path d="M0 0V500H500V0H0ZM208.705 157.254C188.17 157.254 187.5 168.304 187.5 187.835V213.839C187.5 216.518 183.594 218.75 186.83 218.75H262.054L249.665 260.379H187.5V386.384C187.5 392.857 185.268 393.862 191.071 394.531L239.621 399.107V427.121H93.75V398.438L117.522 396.205C123.326 395.536 125 393.638 125 387.388V263.058C125 260.491 121.763 260.491 118.527 260.491H93.75V218.75H125V195.313C125 139.955 154.576 117.188 211.272 117.188C249.33 117.188 283.482 126.339 283.482 176.116L226.897 182.924C227.232 162.054 221.987 157.254 208.705 157.254ZM291.629 427.121V399.107L314.397 396.205C320.201 395.536 322.879 394.308 322.879 388.058V267.634C322.879 263.058 319.643 260.156 315.402 258.817L288.393 251.674L295.871 218.75H385.379V388.058C385.379 394.531 382.478 395.201 388.616 396.205L406.138 399.107V427.121H291.629ZM381.808 141.964L391.853 179.018L383.705 187.165L348.884 168.638L314.063 187.165L305.915 179.018L315.96 141.964L291.629 114.955L295.536 104.241H326.451L343.75 72.9911H354.129L371.429 104.241H402.344L406.25 114.955L381.808 141.964Z" fill="#171717"/>
</g>
<defs>
<clipPath id="clip0_34_136">
<rect width="500" height="500" fill="white"/>
</clipPath>
</defs>
</svg>
