<svg width="500" height="500" viewBox="0 0 500 500" fill="none" xmlns="http://www.w3.org/2000/svg">
<g clip-path="url(#clip0_39_189)">
<path d="M46.0165 500C33.4249 500 22.6076 495.478 13.5646 486.435C4.52152 477.392 0 466.575 0 453.984V361.951H24.0385V453.984C24.0385 459.478 26.3278 464.515 30.9066 469.093C35.4853 473.672 40.522 475.962 46.0165 475.962H138.049V500H46.0165ZM0 138.049V46.0165C0 33.4249 4.52152 22.6076 13.5646 13.5646C22.6076 4.52152 33.4249 0 46.0165 0H138.049V24.0385H46.0165C40.522 24.0385 35.4853 26.3278 30.9066 30.9066C26.3278 35.4853 24.0385 40.522 24.0385 46.0165V138.049H0ZM361.951 500V475.962H453.984C459.478 475.962 464.515 473.672 469.093 469.093C473.672 464.515 475.962 459.478 475.962 453.984V361.951H500V453.984C500 466.575 495.478 477.392 486.435 486.435C477.392 495.478 466.575 500 453.984 500H361.951ZM475.962 138.049V46.0165C475.962 40.522 473.672 35.4853 469.093 30.9066C464.515 26.3278 459.478 24.0385 453.984 24.0385H361.951V0H453.984C466.575 0 477.392 4.52152 486.435 13.5646C495.478 22.6076 500 33.4249 500 46.0165V138.049H475.962ZM249.938 245.879C231.664 245.879 215.774 239.107 202.266 225.563C188.759 212.019 182.005 196.113 182.005 177.843C182.005 159.478 188.777 143.562 202.321 130.096C215.865 116.625 231.772 109.89 250.041 109.89C268.407 109.89 284.322 116.639 297.788 130.137C311.259 143.64 317.995 159.576 317.995 177.946C317.995 196.22 311.245 212.111 297.747 225.618C284.245 239.125 268.308 245.879 249.938 245.879ZM99.5879 386.676V348.551C99.5879 340.071 101.877 332.63 106.456 326.229C111.035 319.824 117.141 314.37 124.773 309.87C143.624 299.068 163.784 291.083 185.254 285.913C206.724 280.744 228.262 278.159 249.869 278.159C271.477 278.159 293.04 280.792 314.56 286.058C336.081 291.323 356.456 299.222 375.687 309.753C383.155 314.501 389.141 320.089 393.647 326.518C398.157 332.946 400.412 340.364 400.412 348.771V386.676H99.5879Z" fill="#171717"/>
</g>
<defs>
<clipPath id="clip0_39_189">
<rect width="500" height="500" fill="white"/>
</clipPath>
</defs>
</svg>
