<svg width="500" height="500" viewBox="0 0 500 500" fill="none" xmlns="http://www.w3.org/2000/svg">
<g clip-path="url(#clip0_27_161)">
<rect width="500" height="500" rx="250" fill="#171717"/>
<path d="M249.63 476.985L250.004 477.396L250.373 476.981C269.171 455.891 284.079 434.334 295.09 412.312C306.097 390.298 315.266 365.31 322.599 337.352L322.763 336.725H322.115H177.885H177.237L177.401 337.352C185.192 367.141 194.725 392.969 206.005 414.831L206.449 414.602L206.005 414.831C217.29 436.695 231.833 457.413 249.63 476.985ZM226.589 475.084L228.023 475.256L227.002 474.234C212.4 459.632 198.951 439.804 186.665 414.732L186.23 414.945L186.665 414.732C174.374 389.665 165.2 363.793 159.141 337.115L159.053 336.725H158.654H40.522H39.7619L40.0628 337.423C57.0374 376.79 81.8174 408.32 114.404 431.998C146.986 455.677 184.385 470.038 226.589 475.084ZM273.656 474.265L272.87 475.197L274.084 475.086C314.014 471.414 350.617 457.185 383.884 432.406C417.148 407.63 442.727 375.971 460.618 337.436L460.948 336.725H460.165H342.129H341.758L341.651 337.081C333.353 364.527 323.029 390.599 310.679 415.298C298.327 440.002 285.985 459.654 273.656 474.265ZM34.5853 318.853L34.7053 319.181H35.0549H155.22H155.821L155.711 318.59C153.425 306.244 151.825 294.242 150.911 282.585C149.996 270.92 149.538 259.83 149.538 249.313C149.538 238.796 149.996 227.821 150.91 216.386C151.825 204.958 153.425 193.301 155.711 181.413L155.825 180.819H155.22H35.0549H34.711L34.588 181.14C30.892 190.794 28.1275 201.589 26.2915 213.523C24.4562 225.452 23.5385 237.383 23.5385 249.313C23.5385 261.701 24.4561 273.86 26.2915 285.79C28.1274 297.724 30.8914 308.745 34.5853 318.853ZM173.292 318.77L173.366 319.181H173.784H326.236H326.655L326.728 318.769C329.02 305.936 330.625 294.016 331.542 283.009C332.459 272.005 332.918 260.773 332.918 249.313C332.918 238.31 332.459 227.422 331.542 216.647C330.625 205.869 329.013 194.063 326.708 181.23L326.634 180.819H326.216H173.764H173.345L173.272 181.231C170.98 194.063 169.375 205.869 168.458 216.647C167.541 227.422 167.082 238.31 167.082 249.313C167.082 260.773 167.541 272.005 168.458 283.009C169.375 294.016 170.987 305.936 173.292 318.77ZM344.972 318.611L344.891 319.181H345.467H465.659H466.025L466.136 318.833C469.35 308.732 471.874 297.717 473.708 285.79C475.544 273.86 476.462 261.701 476.462 249.313C476.462 237.383 475.544 225.452 473.708 213.523C471.873 201.595 469.349 190.807 466.134 181.161L466.02 180.819H465.659H346.154H345.601L345.656 181.368C347.03 195.103 348.174 207.501 349.09 218.565C350.004 229.625 350.462 239.874 350.462 249.313C350.462 259.83 350.004 270.806 349.09 282.24C348.175 293.676 346.802 305.799 344.972 318.611ZM341.645 162.901L341.743 163.275H342.129H460.165H460.937L460.621 162.57C442.732 122.665 417.727 90.6581 385.602 66.5643C353.474 42.4681 316.071 28.129 273.405 23.5413L272.167 23.4082L272.969 24.3605C287.591 41.7245 300.964 62.5234 313.083 86.7621C325.201 110.998 334.722 136.377 341.645 162.901ZM177.403 162.64L177.226 163.275H177.885H322.802H323.464L323.283 162.638C315.492 135.267 305.751 109.744 294.061 86.0698C282.366 62.3856 267.803 40.682 250.375 20.9601L250.003 20.54L249.628 20.9567C233.115 39.3048 219.125 59.7165 207.659 82.1903C196.193 104.663 186.109 131.481 177.403 162.64ZM40.0611 162.581L39.7694 163.275H40.522H158.53H158.916L159.014 162.901C165.956 136.375 175.258 111.109 186.92 87.1003C198.581 63.0918 211.724 42.1782 226.348 24.3556L227.135 23.3961L225.903 23.5419C183.241 28.5879 145.841 42.9257 113.715 66.5615C81.5836 90.2008 57.0339 122.213 40.0611 162.581ZM250.206 499.5C215.793 499.5 183.397 492.988 153.013 479.966C122.62 466.941 96.0019 449.118 73.154 426.499C50.3079 403.881 32.4873 377.391 19.6915 347.024C6.89849 316.664 0.5 283.987 0.5 248.99C0.5 214.929 6.89779 182.593 19.6921 151.979C32.4876 121.361 50.3072 94.9755 73.1503 72.8177C95.9986 50.6548 122.607 33.06 152.979 20.0337C183.339 7.01216 215.786 0.5 250.323 0.5C284.383 0.5 316.603 7.01178 346.987 20.0337C377.382 33.0601 404.001 50.6549 426.85 72.8177C449.693 94.9753 467.512 121.392 480.308 152.074C493.102 182.753 499.5 215.165 499.5 249.313C499.5 284.232 493.102 316.835 480.309 347.127C467.513 377.425 449.692 403.881 426.846 426.499C403.998 449.118 377.328 466.94 346.83 479.966C316.344 492.988 284.137 499.5 250.206 499.5Z" fill="white" stroke="#171717"/>
</g>
<defs>
<clipPath id="clip0_27_161">
<rect width="500" height="500" fill="white"/>
</clipPath>
</defs>
</svg>
