<svg width="500" height="500" viewBox="0 0 500 500" fill="none" xmlns="http://www.w3.org/2000/svg">
<g clip-path="url(#clip0_59_129)">
<path d="M184.134 307.86H301.31V286.026H184.134V307.86ZM184.134 221.252H393.013V199.418H184.134V221.252ZM184.134 134.643H393.013V112.809H184.134V134.643ZM128.093 420.67C114.44 420.67 102.899 415.878 93.4716 406.295C84.0441 396.713 79.3304 385.25 79.3304 371.907V48.7627C79.3304 35.4197 84.0441 23.9568 93.4716 14.3741C102.899 4.79136 114.44 0 128.093 0H451.237C464.58 0 476.043 4.79136 485.626 14.3741C495.209 23.9568 500 35.4197 500 48.7627V371.907C500 385.25 495.209 396.713 485.626 406.295C476.043 415.878 464.58 420.67 451.237 420.67H128.093ZM48.7627 500C35.1092 500 23.5687 495.209 14.1412 485.626C4.71373 476.043 0 464.58 0 451.237V102.62H25.4731V451.237C25.4731 457.06 27.8991 462.397 32.7511 467.249C37.6031 472.101 42.9403 474.527 48.7627 474.527H397.38V500H48.7627Z" fill="#171717"/>
</g>
<defs>
<clipPath id="clip0_59_129">
<rect width="500" height="500" fill="white"/>
</clipPath>
</defs>
</svg>
