<svg width="500" height="500" viewBox="0 0 500 500" fill="none" xmlns="http://www.w3.org/2000/svg">
<path d="M149.155 160.448H286.62V110.697C286.62 89.5522 279.931 71.4138 266.552 56.2811C253.174 41.1484 236.93 33.5821 217.82 33.5821C198.71 33.5821 182.488 41.1484 169.155 56.2811C155.822 71.4138 149.155 89.5522 149.155 110.697V160.448ZM350.845 500C323.194 500 299.756 489.388 280.53 468.165C261.303 446.942 251.69 421.07 251.69 390.547C251.69 360.025 261.303 334.152 280.53 312.929C299.756 291.706 323.194 281.095 350.845 281.095C378.496 281.095 401.934 291.706 421.161 312.929C440.387 334.152 450 360.025 450 390.547C450 421.07 440.387 446.942 421.161 468.165C401.934 489.388 378.496 500 350.845 500ZM388.028 447.761L401.549 432.836L359.859 387.058V304.726H340.704V395.522L388.028 447.761ZM233.662 481.343H98.4507C84.6479 481.343 73.123 476.238 63.8761 466.026C54.6254 455.819 50 443.097 50 427.861V213.93C50 198.694 54.6254 185.97 63.8761 175.759C73.123 165.551 84.6479 160.448 98.4507 160.448H118.732V110.697C118.732 79.602 128.346 53.3789 147.572 32.0274C166.798 10.6758 190.237 0 217.887 0C245.538 0 268.977 10.6758 288.203 32.0274C307.429 53.3789 317.042 79.602 317.042 110.697V160.448H337.324C351.127 160.448 362.654 165.551 371.904 175.759C381.151 185.97 385.775 198.694 385.775 213.93V236.318C378.89 233.76 372.004 232.396 365.116 232.226C358.231 232.052 351.033 231.965 343.521 231.965C305.211 231.965 272.817 247.616 246.338 278.918C219.859 310.22 206.62 347.498 206.62 390.752C206.62 407.137 208.873 423.12 213.38 438.7C217.887 454.277 224.648 468.491 233.662 481.343Z" fill="#171717"/>
</svg>
