<svg width="500" height="500" viewBox="0 0 500 500" fill="none" xmlns="http://www.w3.org/2000/svg">
<path d="M98.4507 481.343C84.6554 481.343 73.1324 476.235 63.8817 466.02C54.6272 455.808 50 443.089 50 427.861V213.93C50 198.706 54.6272 185.987 63.8817 175.771C73.1324 165.556 84.6554 160.448 98.4507 160.448H118.732V110.697C118.732 79.83 128.346 53.665 147.572 32.2015C166.798 10.7338 190.237 0 217.887 0C245.538 0 268.977 10.7338 288.203 32.2015C307.429 53.665 317.042 79.83 317.042 110.697V160.448H337.324C351.116 160.448 362.639 165.556 371.893 175.771C381.147 185.987 385.775 198.706 385.775 213.93V236.318C381.643 234.66 376.988 233.624 371.808 233.209C366.629 232.794 361.144 232.587 355.352 232.587C315.916 228.856 281.268 243.366 251.408 276.119C221.549 308.872 206.62 347.015 206.62 390.547C206.62 402.57 209.155 418.429 214.225 438.122C219.296 457.815 225.775 472.222 233.662 481.343H98.4507ZM350.845 500C323.427 500 300.047 489.324 280.704 467.973C261.362 446.621 251.69 420.813 251.69 390.547C251.69 360.282 261.362 334.473 280.704 313.122C300.047 291.77 323.427 281.095 350.845 281.095C378.263 281.095 401.643 291.77 420.986 313.122C440.329 334.473 450 360.282 450 390.547C450 420.813 440.329 446.621 420.986 467.973C401.643 489.324 378.263 500 350.845 500ZM149.155 160.448H286.62V110.697C286.62 89.5522 279.931 71.4138 266.552 56.2811C253.174 41.1484 236.93 33.5821 217.82 33.5821C198.71 33.5821 182.488 41.1484 169.155 56.2811C155.822 71.4138 149.155 89.5522 149.155 110.697V160.448ZM350.845 390.547C360.61 390.547 368.779 386.92 375.352 379.664C381.925 372.409 385.211 363.391 385.211 352.612C385.211 341.833 381.925 332.815 375.352 325.56C368.779 318.304 360.61 314.677 350.845 314.677C341.08 314.677 332.911 318.304 326.338 325.56C319.765 332.815 316.479 341.833 316.479 352.612C316.479 363.391 319.765 372.409 326.338 379.664C332.911 386.92 341.08 390.547 350.845 390.547ZM350.845 466.418C362.387 466.418 373.161 463.516 383.166 457.711C393.168 451.907 401.362 443.615 407.746 432.836C399.108 427.446 389.906 423.3 380.141 420.398C370.376 417.496 360.61 416.045 350.845 416.045C341.08 416.045 331.315 417.496 321.549 420.398C311.784 423.3 302.582 427.446 293.944 432.836C300.329 443.615 308.522 451.907 318.524 457.711C328.53 463.516 339.303 466.418 350.845 466.418Z" fill="#171717"/>
</svg>
