<svg width="500" height="500" viewBox="0 0 500 500" fill="none" xmlns="http://www.w3.org/2000/svg">
<g clip-path="url(#clip0_100_141)">
<path d="M26.0078 26.9646V0H291.287V26.9646H26.0078ZM130.689 406.78H187.256V329.738H252.276V262.712H187.256V185.67H130.689V262.712H65.6697V329.738H130.689V406.78ZM43.5631 500C31.6428 500 21.4023 494.928 12.8414 484.784C4.28045 474.64 0 462.506 0 448.382V144.838C0 130.714 4.28045 118.58 12.8414 108.436C21.4023 98.2922 31.6428 93.2203 43.5631 93.2203H273.732C285.652 93.2203 295.893 98.2922 304.454 108.436C313.015 118.58 317.295 130.714 317.295 144.838V448.382C317.295 462.506 313.015 474.64 304.454 484.784C295.893 494.928 285.652 500 273.732 500H43.5631ZM425.228 302.612C409.623 293.988 397.052 280.401 387.516 261.849C377.98 243.297 373.212 222.26 373.212 198.737C373.212 168.85 379.389 143.79 391.743 123.559C404.096 103.333 419.159 93.2203 436.931 93.2203C454.27 93.2203 469.116 103.341 481.469 123.582C493.823 143.824 500 168.77 500 198.421C500 222.155 495.232 243.297 485.696 261.849C476.16 280.401 463.589 293.988 447.984 302.612V486.133C447.984 490.216 446.89 493.549 444.701 496.132C442.512 498.711 439.913 500 436.905 500C433.455 500 430.646 498.711 428.479 496.132C426.311 493.549 425.228 490.216 425.228 486.133V302.612Z" fill="#171717"/>
</g>
<defs>
<clipPath id="clip0_100_141">
<rect width="500" height="500" fill="white"/>
</clipPath>
</defs>
</svg>
