<svg width="500" height="500" viewBox="0 0 500 500" fill="none" xmlns="http://www.w3.org/2000/svg">
<g clip-path="url(#clip0_100_146)">
<path d="M249.475 354.167C237.202 354.167 226.687 349.748 217.929 340.911C209.171 332.078 204.791 321.276 204.791 308.503C204.791 295.736 209.217 284.979 218.068 276.235C226.914 267.49 237.476 263.117 249.753 263.117C262.54 263.117 273.442 267.536 282.457 276.373C291.473 285.206 295.981 296.008 295.981 308.781C295.981 321.548 291.427 332.305 282.318 341.049C273.215 349.794 262.267 354.167 249.475 354.167ZM142.195 122.685H357.805L418.856 0H80.3709L142.195 122.685ZM143.74 500H357.032C396.873 500 430.662 485.983 458.4 457.948C486.133 429.913 500 395.746 500 355.448C500 339.177 497.295 323.063 491.886 307.106C486.476 291.155 478.104 276.749 466.77 263.889L363.215 139.66H136.785L33.2303 263.889C21.8959 276.749 13.524 291.155 8.11437 307.106C2.70479 323.063 0 339.177 0 355.448C0 395.746 13.9104 429.913 41.7311 457.948C69.5518 485.983 103.555 500 143.74 500Z" fill="#171717"/>
</g>
<defs>
<clipPath id="clip0_100_146">
<rect width="500" height="500" fill="white"/>
</clipPath>
</defs>
</svg>
