<svg width="500" height="500" viewBox="0 0 500 500" fill="none" xmlns="http://www.w3.org/2000/svg">
<g clip-path="url(#clip0_204_133)">
<path d="M163.462 337.912H187.5L208.791 279.533H291.896L313.187 337.912H337.912L261.676 135.989H239.011L163.462 337.912ZM214.973 258.242L248.626 165.522H251.374L285.714 258.242H214.973ZM250 500C215.824 500 183.455 493.537 152.891 480.611C122.324 467.685 95.7303 449.979 73.1113 427.493C50.4876 405.007 32.6465 378.576 19.5879 348.201C6.52931 317.825 0 285.549 0 251.374C0 234.386 1.4881 217.891 4.46429 201.889C7.44048 185.886 12.1337 170.33 18.544 155.22L35.7143 173.077C31.5934 185.44 28.6172 198.008 26.7857 210.783C24.9542 223.562 24.0385 236.573 24.0385 249.815C24.0385 312.901 45.9936 366.364 89.9038 410.206C133.81 454.043 187.193 475.962 250.055 475.962C312.921 475.962 366.289 454.006 410.158 410.096C454.027 366.19 475.962 312.807 475.962 249.945C475.962 187.079 453.995 133.711 410.062 89.842C366.129 45.973 312.514 24.0385 249.217 24.0385C236.461 24.0385 223.668 25.0137 210.838 26.9643C198.008 28.9194 185.65 32.065 173.764 36.4011L153.846 17.8571C168.498 12.8205 183.608 8.58516 199.176 5.1511C214.744 1.71703 230.311 0 245.879 0C280.737 0 313.565 6.41026 344.361 19.2308C375.153 32.0513 402.141 49.9084 425.323 72.8022C448.5 95.696 466.742 122.363 480.048 152.802C493.349 183.242 500 215.721 500 250.24C500 284.421 493.427 316.715 480.282 347.122C467.136 377.534 449.318 404.073 426.827 426.738C404.341 449.407 377.793 467.285 347.184 480.371C316.575 493.457 284.18 500 250 500ZM79.2239 101.648C73.1113 101.648 67.88 99.3246 63.5302 94.6772C59.1804 90.0343 57.0055 84.6543 57.0055 78.5371C57.0055 72.4244 59.3292 67.1932 63.9766 62.8434C68.6195 58.4936 73.9995 56.3187 80.1168 56.3187C86.2294 56.3187 91.4606 58.6424 95.8104 63.2899C100.16 67.9327 102.335 73.3127 102.335 79.43C102.335 85.5426 100.011 90.7738 95.364 95.1236C90.7212 99.4734 85.3411 101.648 79.2239 101.648ZM74.8626 250C74.8626 201.694 91.9528 160.428 126.133 126.202C160.309 91.9757 201.632 74.8626 250.103 74.8626C298.569 74.8626 339.858 91.9757 373.97 126.202C408.081 160.428 425.137 201.694 425.137 250C425.137 298.306 408.086 339.572 373.984 373.798C339.881 408.024 298.473 425.137 249.76 425.137C201.385 425.137 160.142 408.024 126.03 373.798C91.9185 339.572 74.8626 298.306 74.8626 250Z" fill="#171717"/>
</g>
<defs>
<clipPath id="clip0_204_133">
<rect width="500" height="500" fill="white"/>
</clipPath>
</defs>
</svg>
