<svg width="500" height="500" viewBox="0 0 500 500" fill="none" xmlns="http://www.w3.org/2000/svg">
<g clip-path="url(#clip0_141_117)">
<path d="M485.616 311.554L310.959 486.933C306.279 491.747 301.071 495.128 295.336 497.077C289.6 499.026 283.792 500 277.911 500C272.03 500 266.377 498.968 260.952 496.905C255.527 494.842 250.507 491.518 245.89 486.933L14.3836 255.158C9.40183 251.119 5.75799 246.323 3.45206 240.77C1.15069 235.213 0 229.005 0 222.146V46.7675C0 33.9707 4.48174 22.9757 13.4452 13.7827C22.4041 4.59421 33.4475 0 46.5753 0H221.233C227.274 0 232.941 1.08895 238.233 3.26685C243.521 5.44475 248.813 8.7116 254.11 13.0674L485.616 244.842C490.164 249.418 493.699 254.622 496.219 260.454C498.74 266.286 500 272.276 500 278.425C500 284.574 498.694 290.44 496.082 296.025C493.475 301.614 489.986 306.79 485.616 311.554ZM100.164 126.547C107.553 126.547 113.71 123.943 118.637 118.735C123.564 113.531 126.027 107.274 126.027 99.9656C126.027 92.469 123.591 86.199 118.719 81.1554C113.852 76.1119 107.84 73.5901 100.685 73.5901C93.1507 73.5901 86.7009 76.0752 81.3356 81.0454C75.9703 86.0156 73.2877 92.1481 73.2877 99.4429C73.2877 106.93 75.9201 113.32 81.1849 118.611C86.4452 123.902 92.7717 126.547 100.164 126.547Z" fill="#171717"/>
</g>
<defs>
<clipPath id="clip0_141_117">
<rect width="500" height="500" fill="white"/>
</clipPath>
</defs>
</svg>
