<svg width="500" height="500" viewBox="0 0 500 500" fill="none" xmlns="http://www.w3.org/2000/svg">
<g clip-path="url(#clip0_48_129)">
<path d="M191.689 500L180.965 421.916C174.263 419.729 165.996 416.12 156.166 411.089C146.336 406.059 138.517 400.7 132.708 395.013L57.6408 425.853L0 323.491L61.6622 276.903C61.2154 272.528 60.6568 267.935 59.9866 263.123C59.3164 258.311 58.9812 253.718 58.9812 249.344C58.9812 245.844 59.3164 241.798 59.9866 237.205C60.6568 232.612 61.2154 227.472 61.6622 221.785L0 176.509L57.6408 76.7717L129.357 105.643C136.953 99.5188 145.442 93.9414 154.826 88.9108C164.209 83.8801 172.922 79.8338 180.965 76.7717L191.689 0H308.311L318.365 78.084C327.748 82.021 336.349 86.0674 344.169 90.2231C351.988 94.3788 359.92 99.7375 367.962 106.299L442.359 76.7717L500 176.509L434.316 225.066C435.657 229.878 436.439 234.471 436.662 238.845C436.886 243.22 436.997 247.157 436.997 250.656C436.997 253.718 436.774 257.437 436.327 261.811C435.88 266.185 435.433 271.435 434.987 277.559L497.989 323.491L440.349 425.853L364.611 394.357C357.015 400.481 349.531 405.731 342.158 410.105C334.786 414.479 327.078 417.979 319.035 420.604L308.311 500H191.689ZM246.649 325.459C268.543 325.459 286.975 318.132 301.944 303.478C316.912 288.823 324.397 270.779 324.397 249.344C324.397 227.909 316.912 209.864 301.944 195.21C286.975 180.556 268.543 173.228 246.649 173.228C225.201 173.228 206.881 180.556 191.689 195.21C176.497 209.864 168.901 227.909 168.901 249.344C168.901 270.779 176.497 288.823 191.689 303.478C206.881 318.132 225.201 325.459 246.649 325.459Z" fill="#171717"/>
</g>
<defs>
<clipPath id="clip0_48_129">
<rect width="500" height="500" fill="white"/>
</clipPath>
</defs>
</svg>
