<svg width="500" height="500" viewBox="0 0 500 500" fill="none" xmlns="http://www.w3.org/2000/svg">
<g clip-path="url(#clip0_140_137)">
<path d="M348.226 243.101H328.515L128.121 42.707H423.784C435.453 42.707 443.846 47.6632 448.962 57.5756C454.078 67.488 453.789 77.8625 448.095 88.6991L366.623 237.188C365.747 240.254 364.542 242.006 363.009 242.444C361.476 242.882 356.548 243.101 348.226 243.101ZM133.325 484.888C122.383 484.888 113.305 481.2 106.091 473.824C98.8765 466.448 95.2694 457.197 95.2694 446.071C95.2694 434.945 98.8918 425.712 106.137 418.371C113.377 411.029 122.466 407.359 133.403 407.359C144.336 407.359 153.526 411.047 160.972 418.423C168.419 425.799 172.142 435.05 172.142 446.176C172.142 457.302 168.454 466.535 161.078 473.876C153.701 481.218 144.45 484.888 133.325 484.888ZM483.574 500L333.771 350.197H130.749C116.294 350.197 105.563 344.284 98.5545 332.457C91.5462 320.631 91.3272 308.804 97.8975 296.978L141.919 222.076L84.0999 99.8686L0 16.4258L17.0828 0L500 483.574L483.574 500ZM310.775 327.201L226.675 243.101H155.88L122.865 300.92C119.36 307.49 119.251 313.513 122.536 318.988C125.821 324.463 130.749 327.201 137.319 327.201H310.775ZM379.934 484.888C369.746 484.888 360.819 481.2 353.154 473.824C345.488 466.448 341.656 457.197 341.656 446.071C341.656 434.945 345.506 425.712 353.206 418.371C360.907 411.029 369.851 407.359 380.039 407.359C390.223 407.359 399.185 411.047 406.925 418.423C414.661 425.799 418.528 435.05 418.528 446.176C418.528 457.302 414.643 466.535 406.873 473.876C399.098 481.218 390.118 484.888 379.934 484.888Z" fill="#171717"/>
</g>
<defs>
<clipPath id="clip0_140_137">
<rect width="500" height="500" fill="white"/>
</clipPath>
</defs>
</svg>
