<svg width="500" height="500" viewBox="0 0 500 500" fill="none" xmlns="http://www.w3.org/2000/svg">
<g clip-path="url(#clip0_37_174)">
<path d="M119.636 0H399.87V318.508L234.72 500L226.918 491.392C223.94 487.982 221.678 484.5 220.13 480.947C218.587 477.389 217.815 473.62 217.815 469.641V467.001L244.473 318.508H43.5631C32.2063 318.508 22.1066 313.63 13.264 303.874C4.42133 294.118 0 282.975 0 270.445V238.644C0 235.158 0.433463 231.327 1.30039 227.152C2.16732 222.972 3.03424 219.708 3.90117 217.36L74.5579 32.4605C78.7538 23.2449 85.0845 15.5308 93.5501 9.3185C102.016 3.10616 110.711 0 119.636 0ZM414.174 318.508V0H500V318.508H414.174Z" fill="#171717"/>
</g>
<defs>
<clipPath id="clip0_37_174">
<rect width="500" height="500" fill="white"/>
</clipPath>
</defs>
</svg>
