<svg width="500" height="500" viewBox="0 0 500 500" fill="none" xmlns="http://www.w3.org/2000/svg">
<g clip-path="url(#clip0_37_176)">
<path d="M380.364 500H100.13V181.492L265.28 0L273.732 8.60832C276.281 12.0182 278.327 15.4998 279.87 19.0531C281.413 22.6112 282.185 26.1406 282.185 29.6413V32.9986L255.527 181.492H456.437C467.794 181.492 477.893 186.37 486.736 196.126C495.579 205.882 500 217.025 500 229.555V261.356C500 264.842 499.567 268.673 498.7 272.848C497.833 277.028 496.966 280.292 496.099 282.64L425.442 467.539C421.246 476.755 414.915 484.469 406.45 490.682C397.984 496.894 389.289 500 380.364 500ZM85.8257 181.492V500H0V181.492H85.8257Z" fill="#171717"/>
</g>
<defs>
<clipPath id="clip0_37_176">
<rect width="500" height="500" fill="white"/>
</clipPath>
</defs>
</svg>
