<svg width="500" height="500" viewBox="0 0 500 500" fill="none" xmlns="http://www.w3.org/2000/svg">
<g clip-path="url(#clip0_27_136)">
<path d="M107.718 166.667H331.879V114.987C331.879 93.0233 323.911 74.1817 307.973 58.4625C292.036 42.7433 272.685 34.8837 249.919 34.8837C227.154 34.8837 207.83 42.7433 191.946 58.4625C176.063 74.1817 168.121 93.0233 168.121 114.987H131.879C131.879 82.6873 143.331 55.4479 166.235 33.2687C189.139 11.0896 217.06 0 250 0C282.94 0 310.861 11.0896 333.765 33.2687C356.669 55.4479 368.121 82.6873 368.121 114.987V166.667H392.282C408.725 166.667 422.456 171.968 433.477 182.571C444.492 193.178 450 206.395 450 222.222V444.444C450 460.271 444.492 473.486 433.477 484.089C422.456 494.696 408.725 500 392.282 500H107.718C91.2752 500 77.5459 494.696 66.5302 484.089C55.5101 473.486 50 460.271 50 444.444V222.222C50 206.395 55.5101 193.178 66.5302 182.571C77.5459 171.968 91.2752 166.667 107.718 166.667ZM250.107 378.553C263.011 378.553 273.826 374.32 282.55 365.853C291.275 357.386 295.638 346.942 295.638 334.522C295.638 322.102 291.239 311.693 282.443 303.295C273.647 294.897 262.796 290.698 249.893 290.698C236.989 290.698 226.175 294.931 217.45 303.398C208.725 311.865 204.362 322.308 204.362 334.729C204.362 347.149 208.761 357.558 217.557 365.956C226.353 374.354 237.204 378.553 250.107 378.553Z" fill="#171717"/>
</g>
<defs>
<clipPath id="clip0_27_136">
<rect width="500" height="500" fill="white"/>
</clipPath>
</defs>
</svg>
