<svg width="500" height="500" viewBox="0 0 500 500" fill="none" xmlns="http://www.w3.org/2000/svg">
<g clip-path="url(#clip0_36_163)">
<path d="M439.791 451.95L454.188 436.63L404.45 385.794V299.443H384.162V393.886L439.791 451.95ZM181.283 84.2618H295.157V46.6574C295.157 40.1578 293.194 34.8189 289.267 30.6407C285.34 26.4624 280.323 24.3733 274.215 24.3733H202.225C196.117 24.3733 191.099 26.4624 187.173 30.6407C183.246 34.8189 181.283 40.1578 181.283 46.6574V84.2618ZM395.288 500C366.056 500 341.296 489.206 321.008 467.618C300.72 446.031 290.576 419.684 290.576 388.579C290.576 357.474 300.72 331.128 321.008 309.54C341.296 287.953 366.056 277.159 395.288 277.159C424.52 277.159 449.28 287.953 469.568 309.54C489.856 331.128 500 357.474 500 388.579C500 419.684 489.856 446.031 469.568 467.618C449.28 489.206 424.52 500 395.288 500ZM43.8482 447.075C31.8499 447.075 21.5423 442.491 12.9254 433.322C4.30846 424.153 0 413.185 0 400.418V130.919C0 118.152 4.30846 107.184 12.9254 98.0153C21.5423 88.8463 31.8499 84.2618 43.8482 84.2618H158.377V46.6574C158.377 33.324 162.685 22.2145 171.302 13.3287C179.919 4.44291 190.227 0 202.225 0H274.215C286.213 0 296.52 4.44291 305.137 13.3287C313.754 22.2145 318.063 33.324 318.063 46.6574V84.2618H432.592C444.59 84.2618 454.897 88.8463 463.514 98.0153C472.131 107.184 476.44 118.152 476.44 130.919V252.089C464.223 243.733 451.128 237.233 437.153 232.591C423.178 227.948 409.223 225.627 395.288 225.627C353.46 225.627 317.478 241.425 287.343 273.022C257.212 304.624 242.147 343.143 242.147 388.579C242.147 398.329 243.237 408.078 245.419 417.827C247.6 427.577 250.654 437.326 254.581 447.075H43.8482Z" fill="#171717"/>
</g>
<defs>
<clipPath id="clip0_36_163">
<rect width="500" height="500" fill="white"/>
</clipPath>
</defs>
</svg>
