<svg width="500" height="500" viewBox="0 0 500 500" fill="none" xmlns="http://www.w3.org/2000/svg">
<g clip-path="url(#clip0_184_1095)">
<path d="M26.3158 0L0 26.3158" stroke="#CBD5E1" stroke-width="0.5"/>
<path d="M52.6317 0L26.3159 26.3158" stroke="#CBD5E1" stroke-width="0.5"/>
<path d="M78.9474 0L52.6316 26.3158" stroke="#CBD5E1" stroke-width="0.5"/>
<path d="M105.263 0L78.9473 26.3158" stroke="#CBD5E1" stroke-width="0.5"/>
<path d="M131.579 0L105.263 26.3158" stroke="#CBD5E1" stroke-width="0.5"/>
<path d="M157.895 0L131.579 26.3158" stroke="#CBD5E1" stroke-width="0.5"/>
<path d="M184.211 0L157.895 26.3158" stroke="#CBD5E1" stroke-width="0.5"/>
<path d="M210.526 0L184.21 26.3158" stroke="#CBD5E1" stroke-width="0.5"/>
<path d="M236.842 0L210.526 26.3158" stroke="#CBD5E1" stroke-width="0.5"/>
<path d="M263.158 0L236.842 26.3158" stroke="#CBD5E1" stroke-width="0.5"/>
<path d="M289.474 0L263.158 26.3158" stroke="#CBD5E1" stroke-width="0.5"/>
<path d="M315.79 0L289.474 26.3158" stroke="#CBD5E1" stroke-width="0.5"/>
<path d="M342.105 0L315.789 26.3158" stroke="#CBD5E1" stroke-width="0.5"/>
<path d="M368.421 0L342.105 26.3158" stroke="#CBD5E1" stroke-width="0.5"/>
<path d="M394.737 0L368.421 26.3158" stroke="#CBD5E1" stroke-width="0.5"/>
<path d="M421.053 0L394.737 26.3158" stroke="#CBD5E1" stroke-width="0.5"/>
<path d="M447.368 0L421.052 26.3158" stroke="#CBD5E1" stroke-width="0.5"/>
<path d="M473.684 0L447.368 26.3158" stroke="#CBD5E1" stroke-width="0.5"/>
<path d="M500 0L473.684 26.3158" stroke="#CBD5E1" stroke-width="0.5"/>
<path d="M26.3158 26.3159L0 52.6317" stroke="#CBD5E1" stroke-width="0.5"/>
<path d="M52.6317 26.3159L26.3159 52.6317" stroke="#CBD5E1" stroke-width="0.5"/>
<path d="M78.9474 26.3159L52.6316 52.6317" stroke="#CBD5E1" stroke-width="0.5"/>
<path d="M105.263 26.3159L78.9473 52.6317" stroke="#CBD5E1" stroke-width="0.5"/>
<path d="M131.579 26.3159L105.263 52.6317" stroke="#CBD5E1" stroke-width="0.5"/>
<path d="M157.895 26.3159L131.579 52.6317" stroke="#CBD5E1" stroke-width="0.5"/>
<path d="M184.211 26.3159L157.895 52.6317" stroke="#CBD5E1" stroke-width="0.5"/>
<path d="M210.526 26.3159L184.21 52.6317" stroke="#CBD5E1" stroke-width="0.5"/>
<path d="M236.842 26.3159L210.526 52.6317" stroke="#CBD5E1" stroke-width="0.5"/>
<path d="M263.158 26.3159L236.842 52.6317" stroke="#CBD5E1" stroke-width="0.5"/>
<path d="M289.474 26.3159L263.158 52.6317" stroke="#CBD5E1" stroke-width="0.5"/>
<path d="M315.79 26.3159L289.474 52.6317" stroke="#CBD5E1" stroke-width="0.5"/>
<path d="M342.105 26.3159L315.789 52.6317" stroke="#CBD5E1" stroke-width="0.5"/>
<path d="M368.421 26.3159L342.105 52.6317" stroke="#CBD5E1" stroke-width="0.5"/>
<path d="M394.737 26.3159L368.421 52.6317" stroke="#CBD5E1" stroke-width="0.5"/>
<path d="M421.053 26.3159L394.737 52.6317" stroke="#CBD5E1" stroke-width="0.5"/>
<path d="M447.368 26.3159L421.052 52.6317" stroke="#CBD5E1" stroke-width="0.5"/>
<path d="M473.684 26.3159L447.368 52.6317" stroke="#CBD5E1" stroke-width="0.5"/>
<path d="M500 26.3159L473.684 52.6317" stroke="#CBD5E1" stroke-width="0.5"/>
<path d="M26.3158 52.6316L0 78.9474" stroke="#CBD5E1" stroke-width="0.5"/>
<path d="M52.6317 52.6316L26.3159 78.9474" stroke="#CBD5E1" stroke-width="0.5"/>
<path d="M78.9474 52.6316L52.6316 78.9474" stroke="#CBD5E1" stroke-width="0.5"/>
<path d="M105.263 52.6316L78.9473 78.9474" stroke="#CBD5E1" stroke-width="0.5"/>
<path d="M131.579 52.6316L105.263 78.9474" stroke="#CBD5E1" stroke-width="0.5"/>
<path d="M157.895 52.6316L131.579 78.9474" stroke="#CBD5E1" stroke-width="0.5"/>
<path d="M184.211 52.6316L157.895 78.9474" stroke="#CBD5E1" stroke-width="0.5"/>
<path d="M210.526 52.6316L184.21 78.9474" stroke="#CBD5E1" stroke-width="0.5"/>
<path d="M236.842 52.6316L210.526 78.9474" stroke="#CBD5E1" stroke-width="0.5"/>
<path d="M263.158 52.6316L236.842 78.9474" stroke="#CBD5E1" stroke-width="0.5"/>
<path d="M289.474 52.6316L263.158 78.9474" stroke="#CBD5E1" stroke-width="0.5"/>
<path d="M315.79 52.6316L289.474 78.9474" stroke="#CBD5E1" stroke-width="0.5"/>
<path d="M342.105 52.6316L315.789 78.9474" stroke="#CBD5E1" stroke-width="0.5"/>
<path d="M368.421 52.6316L342.105 78.9474" stroke="#CBD5E1" stroke-width="0.5"/>
<path d="M394.737 52.6316L368.421 78.9474" stroke="#CBD5E1" stroke-width="0.5"/>
<path d="M421.053 52.6316L394.737 78.9474" stroke="#CBD5E1" stroke-width="0.5"/>
<path d="M447.368 52.6316L421.052 78.9474" stroke="#CBD5E1" stroke-width="0.5"/>
<path d="M473.684 52.6316L447.368 78.9474" stroke="#CBD5E1" stroke-width="0.5"/>
<path d="M500 52.6316L473.684 78.9474" stroke="#CBD5E1" stroke-width="0.5"/>
<path d="M26.3158 78.9473L0 105.263" stroke="#CBD5E1" stroke-width="0.5"/>
<path d="M52.6317 78.9473L26.3159 105.263" stroke="#CBD5E1" stroke-width="0.5"/>
<path d="M78.9474 78.9473L52.6316 105.263" stroke="#CBD5E1" stroke-width="0.5"/>
<path d="M105.263 78.9473L78.9473 105.263" stroke="#CBD5E1" stroke-width="0.5"/>
<path d="M131.579 78.9473L105.263 105.263" stroke="#CBD5E1" stroke-width="0.5"/>
<path d="M157.895 78.9473L131.579 105.263" stroke="#CBD5E1" stroke-width="0.5"/>
<path d="M184.211 78.9473L157.895 105.263" stroke="#CBD5E1" stroke-width="0.5"/>
<path d="M210.526 78.9473L184.21 105.263" stroke="#CBD5E1" stroke-width="0.5"/>
<path d="M236.842 78.9473L210.526 105.263" stroke="#CBD5E1" stroke-width="0.5"/>
<path d="M263.158 78.9473L236.842 105.263" stroke="#CBD5E1" stroke-width="0.5"/>
<path d="M289.474 78.9473L263.158 105.263" stroke="#CBD5E1" stroke-width="0.5"/>
<path d="M315.79 78.9473L289.474 105.263" stroke="#CBD5E1" stroke-width="0.5"/>
<path d="M342.105 78.9473L315.789 105.263" stroke="#CBD5E1" stroke-width="0.5"/>
<path d="M368.421 78.9473L342.105 105.263" stroke="#CBD5E1" stroke-width="0.5"/>
<path d="M394.737 78.9473L368.421 105.263" stroke="#CBD5E1" stroke-width="0.5"/>
<path d="M421.053 78.9473L394.737 105.263" stroke="#CBD5E1" stroke-width="0.5"/>
<path d="M447.368 78.9473L421.052 105.263" stroke="#CBD5E1" stroke-width="0.5"/>
<path d="M473.684 78.9473L447.368 105.263" stroke="#CBD5E1" stroke-width="0.5"/>
<path d="M500 78.9473L473.684 105.263" stroke="#CBD5E1" stroke-width="0.5"/>
<path d="M26.3158 105.263L0 131.579" stroke="#CBD5E1" stroke-width="0.5"/>
<path d="M52.6317 105.263L26.3159 131.579" stroke="#CBD5E1" stroke-width="0.5"/>
<path d="M78.9474 105.263L52.6316 131.579" stroke="#CBD5E1" stroke-width="0.5"/>
<path d="M105.263 105.263L78.9473 131.579" stroke="#CBD5E1" stroke-width="0.5"/>
<path d="M131.579 105.263L105.263 131.579" stroke="#CBD5E1" stroke-width="0.5"/>
<path d="M157.895 105.263L131.579 131.579" stroke="#CBD5E1" stroke-width="0.5"/>
<path d="M184.211 105.263L157.895 131.579" stroke="#CBD5E1" stroke-width="0.5"/>
<path d="M210.526 105.263L184.21 131.579" stroke="#CBD5E1" stroke-width="0.5"/>
<path d="M236.842 105.263L210.526 131.579" stroke="#CBD5E1" stroke-width="0.5"/>
<path d="M263.158 105.263L236.842 131.579" stroke="#CBD5E1" stroke-width="0.5"/>
<path d="M289.474 105.263L263.158 131.579" stroke="#CBD5E1" stroke-width="0.5"/>
<path d="M315.79 105.263L289.474 131.579" stroke="#CBD5E1" stroke-width="0.5"/>
<path d="M342.105 105.263L315.789 131.579" stroke="#CBD5E1" stroke-width="0.5"/>
<path d="M368.421 105.263L342.105 131.579" stroke="#CBD5E1" stroke-width="0.5"/>
<path d="M394.737 105.263L368.421 131.579" stroke="#CBD5E1" stroke-width="0.5"/>
<path d="M421.053 105.263L394.737 131.579" stroke="#CBD5E1" stroke-width="0.5"/>
<path d="M447.368 105.263L421.052 131.579" stroke="#CBD5E1" stroke-width="0.5"/>
<path d="M473.684 105.263L447.368 131.579" stroke="#CBD5E1" stroke-width="0.5"/>
<path d="M500 105.263L473.684 131.579" stroke="#CBD5E1" stroke-width="0.5"/>
<path d="M26.3158 131.579L0 157.895" stroke="#CBD5E1" stroke-width="0.5"/>
<path d="M52.6317 131.579L26.3159 157.895" stroke="#CBD5E1" stroke-width="0.5"/>
<path d="M78.9474 131.579L52.6316 157.895" stroke="#CBD5E1" stroke-width="0.5"/>
<path d="M105.263 131.579L78.9473 157.895" stroke="#CBD5E1" stroke-width="0.5"/>
<path d="M131.579 131.579L105.263 157.895" stroke="#CBD5E1" stroke-width="0.5"/>
<path d="M157.895 131.579L131.579 157.895" stroke="#CBD5E1" stroke-width="0.5"/>
<path d="M184.211 131.579L157.895 157.895" stroke="#CBD5E1" stroke-width="0.5"/>
<path d="M210.526 131.579L184.21 157.895" stroke="#CBD5E1" stroke-width="0.5"/>
<path d="M236.842 131.579L210.526 157.895" stroke="#CBD5E1" stroke-width="0.5"/>
<path d="M263.158 131.579L236.842 157.895" stroke="#CBD5E1" stroke-width="0.5"/>
<path d="M289.474 131.579L263.158 157.895" stroke="#CBD5E1" stroke-width="0.5"/>
<path d="M315.79 131.579L289.474 157.895" stroke="#CBD5E1" stroke-width="0.5"/>
<path d="M342.105 131.579L315.789 157.895" stroke="#CBD5E1" stroke-width="0.5"/>
<path d="M368.421 131.579L342.105 157.895" stroke="#CBD5E1" stroke-width="0.5"/>
<path d="M394.737 131.579L368.421 157.895" stroke="#CBD5E1" stroke-width="0.5"/>
<path d="M421.053 131.579L394.737 157.895" stroke="#CBD5E1" stroke-width="0.5"/>
<path d="M447.368 131.579L421.052 157.895" stroke="#CBD5E1" stroke-width="0.5"/>
<path d="M473.684 131.579L447.368 157.895" stroke="#CBD5E1" stroke-width="0.5"/>
<path d="M500 131.579L473.684 157.895" stroke="#CBD5E1" stroke-width="0.5"/>
<path d="M26.3158 157.895L0 184.211" stroke="#CBD5E1" stroke-width="0.5"/>
<path d="M52.6317 157.895L26.3159 184.211" stroke="#CBD5E1" stroke-width="0.5"/>
<path d="M78.9474 157.895L52.6316 184.211" stroke="#CBD5E1" stroke-width="0.5"/>
<path d="M105.263 157.895L78.9473 184.211" stroke="#CBD5E1" stroke-width="0.5"/>
<path d="M131.579 157.895L105.263 184.211" stroke="#CBD5E1" stroke-width="0.5"/>
<path d="M157.895 157.895L131.579 184.211" stroke="#CBD5E1" stroke-width="0.5"/>
<path d="M184.211 157.895L157.895 184.211" stroke="#CBD5E1" stroke-width="0.5"/>
<path d="M210.526 157.895L184.21 184.211" stroke="#CBD5E1" stroke-width="0.5"/>
<path d="M236.842 157.895L210.526 184.211" stroke="#CBD5E1" stroke-width="0.5"/>
<path d="M263.158 157.895L236.842 184.211" stroke="#CBD5E1" stroke-width="0.5"/>
<path d="M289.474 157.895L263.158 184.211" stroke="#CBD5E1" stroke-width="0.5"/>
<path d="M315.79 157.895L289.474 184.211" stroke="#CBD5E1" stroke-width="0.5"/>
<path d="M342.105 157.895L315.789 184.211" stroke="#CBD5E1" stroke-width="0.5"/>
<path d="M368.421 157.895L342.105 184.211" stroke="#CBD5E1" stroke-width="0.5"/>
<path d="M394.737 157.895L368.421 184.211" stroke="#CBD5E1" stroke-width="0.5"/>
<path d="M421.053 157.895L394.737 184.211" stroke="#CBD5E1" stroke-width="0.5"/>
<path d="M447.368 157.895L421.052 184.211" stroke="#CBD5E1" stroke-width="0.5"/>
<path d="M473.684 157.895L447.368 184.211" stroke="#CBD5E1" stroke-width="0.5"/>
<path d="M500 157.895L473.684 184.211" stroke="#CBD5E1" stroke-width="0.5"/>
<path d="M26.3158 184.21L0 210.526" stroke="#CBD5E1" stroke-width="0.5"/>
<path d="M52.6317 184.21L26.3159 210.526" stroke="#CBD5E1" stroke-width="0.5"/>
<path d="M78.9474 184.21L52.6316 210.526" stroke="#CBD5E1" stroke-width="0.5"/>
<path d="M105.263 184.21L78.9473 210.526" stroke="#CBD5E1" stroke-width="0.5"/>
<path d="M131.579 184.21L105.263 210.526" stroke="#CBD5E1" stroke-width="0.5"/>
<path d="M157.895 184.21L131.579 210.526" stroke="#CBD5E1" stroke-width="0.5"/>
<path d="M184.211 184.21L157.895 210.526" stroke="#CBD5E1" stroke-width="0.5"/>
<path d="M210.526 184.21L184.21 210.526" stroke="#CBD5E1" stroke-width="0.5"/>
<path d="M236.842 184.21L210.526 210.526" stroke="#CBD5E1" stroke-width="0.5"/>
<path d="M263.158 184.21L236.842 210.526" stroke="#CBD5E1" stroke-width="0.5"/>
<path d="M289.474 184.21L263.158 210.526" stroke="#CBD5E1" stroke-width="0.5"/>
<path d="M315.79 184.21L289.474 210.526" stroke="#CBD5E1" stroke-width="0.5"/>
<path d="M342.105 184.21L315.789 210.526" stroke="#CBD5E1" stroke-width="0.5"/>
<path d="M368.421 184.21L342.105 210.526" stroke="#CBD5E1" stroke-width="0.5"/>
<path d="M394.737 184.21L368.421 210.526" stroke="#CBD5E1" stroke-width="0.5"/>
<path d="M421.053 184.21L394.737 210.526" stroke="#CBD5E1" stroke-width="0.5"/>
<path d="M447.368 184.21L421.052 210.526" stroke="#CBD5E1" stroke-width="0.5"/>
<path d="M473.684 184.21L447.368 210.526" stroke="#CBD5E1" stroke-width="0.5"/>
<path d="M500 184.21L473.684 210.526" stroke="#CBD5E1" stroke-width="0.5"/>
<path d="M26.3158 210.526L0 236.842" stroke="#CBD5E1" stroke-width="0.5"/>
<path d="M52.6317 210.526L26.3159 236.842" stroke="#CBD5E1" stroke-width="0.5"/>
<path d="M78.9474 210.526L52.6316 236.842" stroke="#CBD5E1" stroke-width="0.5"/>
<path d="M105.263 210.526L78.9473 236.842" stroke="#CBD5E1" stroke-width="0.5"/>
<path d="M131.579 210.526L105.263 236.842" stroke="#CBD5E1" stroke-width="0.5"/>
<path d="M157.895 210.526L131.579 236.842" stroke="#CBD5E1" stroke-width="0.5"/>
<path d="M184.211 210.526L157.895 236.842" stroke="#CBD5E1" stroke-width="0.5"/>
<path d="M210.526 210.526L184.21 236.842" stroke="#CBD5E1" stroke-width="0.5"/>
<path d="M236.842 210.526L210.526 236.842" stroke="#CBD5E1" stroke-width="0.5"/>
<path d="M263.158 210.526L236.842 236.842" stroke="#CBD5E1" stroke-width="0.5"/>
<path d="M289.474 210.526L263.158 236.842" stroke="#CBD5E1" stroke-width="0.5"/>
<path d="M315.79 210.526L289.474 236.842" stroke="#CBD5E1" stroke-width="0.5"/>
<path d="M342.105 210.526L315.789 236.842" stroke="#CBD5E1" stroke-width="0.5"/>
<path d="M368.421 210.526L342.105 236.842" stroke="#CBD5E1" stroke-width="0.5"/>
<path d="M394.737 210.526L368.421 236.842" stroke="#CBD5E1" stroke-width="0.5"/>
<path d="M421.053 210.526L394.737 236.842" stroke="#CBD5E1" stroke-width="0.5"/>
<path d="M447.368 210.526L421.052 236.842" stroke="#CBD5E1" stroke-width="0.5"/>
<path d="M473.684 210.526L447.368 236.842" stroke="#CBD5E1" stroke-width="0.5"/>
<path d="M500 210.526L473.684 236.842" stroke="#CBD5E1" stroke-width="0.5"/>
<path d="M26.3158 236.842L0 263.158" stroke="#CBD5E1" stroke-width="0.5"/>
<path d="M52.6317 236.842L26.3159 263.158" stroke="#CBD5E1" stroke-width="0.5"/>
<path d="M78.9474 236.842L52.6316 263.158" stroke="#CBD5E1" stroke-width="0.5"/>
<path d="M105.263 236.842L78.9473 263.158" stroke="#CBD5E1" stroke-width="0.5"/>
<path d="M131.579 236.842L105.263 263.158" stroke="#CBD5E1" stroke-width="0.5"/>
<path d="M157.895 236.842L131.579 263.158" stroke="#CBD5E1" stroke-width="0.5"/>
<path d="M184.211 236.842L157.895 263.158" stroke="#CBD5E1" stroke-width="0.5"/>
<path d="M210.526 236.842L184.21 263.158" stroke="#CBD5E1" stroke-width="0.5"/>
<path d="M236.842 236.842L210.526 263.158" stroke="#CBD5E1" stroke-width="0.5"/>
<path d="M263.158 236.842L236.842 263.158" stroke="#CBD5E1" stroke-width="0.5"/>
<path d="M289.474 236.842L263.158 263.158" stroke="#CBD5E1" stroke-width="0.5"/>
<path d="M315.79 236.842L289.474 263.158" stroke="#CBD5E1" stroke-width="0.5"/>
<path d="M342.105 236.842L315.789 263.158" stroke="#CBD5E1" stroke-width="0.5"/>
<path d="M368.421 236.842L342.105 263.158" stroke="#CBD5E1" stroke-width="0.5"/>
<path d="M394.737 236.842L368.421 263.158" stroke="#CBD5E1" stroke-width="0.5"/>
<path d="M421.053 236.842L394.737 263.158" stroke="#CBD5E1" stroke-width="0.5"/>
<path d="M447.368 236.842L421.052 263.158" stroke="#CBD5E1" stroke-width="0.5"/>
<path d="M473.684 236.842L447.368 263.158" stroke="#CBD5E1" stroke-width="0.5"/>
<path d="M500 236.842L473.684 263.158" stroke="#CBD5E1" stroke-width="0.5"/>
<path d="M26.3158 263.158L0 289.474" stroke="#CBD5E1" stroke-width="0.5"/>
<path d="M52.6317 263.158L26.3159 289.474" stroke="#CBD5E1" stroke-width="0.5"/>
<path d="M78.9474 263.158L52.6316 289.474" stroke="#CBD5E1" stroke-width="0.5"/>
<path d="M105.263 263.158L78.9473 289.474" stroke="#CBD5E1" stroke-width="0.5"/>
<path d="M131.579 263.158L105.263 289.474" stroke="#CBD5E1" stroke-width="0.5"/>
<path d="M157.895 263.158L131.579 289.474" stroke="#CBD5E1" stroke-width="0.5"/>
<path d="M184.211 263.158L157.895 289.474" stroke="#CBD5E1" stroke-width="0.5"/>
<path d="M210.526 263.158L184.21 289.474" stroke="#CBD5E1" stroke-width="0.5"/>
<path d="M236.842 263.158L210.526 289.474" stroke="#CBD5E1" stroke-width="0.5"/>
<path d="M263.158 263.158L236.842 289.474" stroke="#CBD5E1" stroke-width="0.5"/>
<path d="M289.474 263.158L263.158 289.474" stroke="#CBD5E1" stroke-width="0.5"/>
<path d="M315.79 263.158L289.474 289.474" stroke="#CBD5E1" stroke-width="0.5"/>
<path d="M342.105 263.158L315.789 289.474" stroke="#CBD5E1" stroke-width="0.5"/>
<path d="M368.421 263.158L342.105 289.474" stroke="#CBD5E1" stroke-width="0.5"/>
<path d="M394.737 263.158L368.421 289.474" stroke="#CBD5E1" stroke-width="0.5"/>
<path d="M421.053 263.158L394.737 289.474" stroke="#CBD5E1" stroke-width="0.5"/>
<path d="M447.368 263.158L421.052 289.474" stroke="#CBD5E1" stroke-width="0.5"/>
<path d="M473.684 263.158L447.368 289.474" stroke="#CBD5E1" stroke-width="0.5"/>
<path d="M500 263.158L473.684 289.474" stroke="#CBD5E1" stroke-width="0.5"/>
<path d="M26.3158 289.474L0 315.79" stroke="#CBD5E1" stroke-width="0.5"/>
<path d="M52.6317 289.474L26.3159 315.79" stroke="#CBD5E1" stroke-width="0.5"/>
<path d="M78.9474 289.474L52.6316 315.79" stroke="#CBD5E1" stroke-width="0.5"/>
<path d="M105.263 289.474L78.9473 315.79" stroke="#CBD5E1" stroke-width="0.5"/>
<path d="M131.579 289.474L105.263 315.79" stroke="#CBD5E1" stroke-width="0.5"/>
<path d="M157.895 289.474L131.579 315.79" stroke="#CBD5E1" stroke-width="0.5"/>
<path d="M184.211 289.474L157.895 315.79" stroke="#CBD5E1" stroke-width="0.5"/>
<path d="M210.526 289.474L184.21 315.79" stroke="#CBD5E1" stroke-width="0.5"/>
<path d="M236.842 289.474L210.526 315.79" stroke="#CBD5E1" stroke-width="0.5"/>
<path d="M263.158 289.474L236.842 315.79" stroke="#CBD5E1" stroke-width="0.5"/>
<path d="M289.474 289.474L263.158 315.79" stroke="#CBD5E1" stroke-width="0.5"/>
<path d="M315.79 289.474L289.474 315.79" stroke="#CBD5E1" stroke-width="0.5"/>
<path d="M342.105 289.474L315.789 315.79" stroke="#CBD5E1" stroke-width="0.5"/>
<path d="M368.421 289.474L342.105 315.79" stroke="#CBD5E1" stroke-width="0.5"/>
<path d="M394.737 289.474L368.421 315.79" stroke="#CBD5E1" stroke-width="0.5"/>
<path d="M421.053 289.474L394.737 315.79" stroke="#CBD5E1" stroke-width="0.5"/>
<path d="M447.368 289.474L421.052 315.79" stroke="#CBD5E1" stroke-width="0.5"/>
<path d="M473.684 289.474L447.368 315.79" stroke="#CBD5E1" stroke-width="0.5"/>
<path d="M500 289.474L473.684 315.79" stroke="#CBD5E1" stroke-width="0.5"/>
<path d="M26.3158 315.789L0 342.105" stroke="#CBD5E1" stroke-width="0.5"/>
<path d="M52.6317 315.789L26.3159 342.105" stroke="#CBD5E1" stroke-width="0.5"/>
<path d="M78.9474 315.789L52.6316 342.105" stroke="#CBD5E1" stroke-width="0.5"/>
<path d="M105.263 315.789L78.9473 342.105" stroke="#CBD5E1" stroke-width="0.5"/>
<path d="M131.579 315.789L105.263 342.105" stroke="#CBD5E1" stroke-width="0.5"/>
<path d="M157.895 315.789L131.579 342.105" stroke="#CBD5E1" stroke-width="0.5"/>
<path d="M184.211 315.789L157.895 342.105" stroke="#CBD5E1" stroke-width="0.5"/>
<path d="M210.526 315.789L184.21 342.105" stroke="#CBD5E1" stroke-width="0.5"/>
<path d="M236.842 315.789L210.526 342.105" stroke="#CBD5E1" stroke-width="0.5"/>
<path d="M263.158 315.789L236.842 342.105" stroke="#CBD5E1" stroke-width="0.5"/>
<path d="M289.474 315.789L263.158 342.105" stroke="#CBD5E1" stroke-width="0.5"/>
<path d="M315.79 315.789L289.474 342.105" stroke="#CBD5E1" stroke-width="0.5"/>
<path d="M342.105 315.789L315.789 342.105" stroke="#CBD5E1" stroke-width="0.5"/>
<path d="M368.421 315.789L342.105 342.105" stroke="#CBD5E1" stroke-width="0.5"/>
<path d="M394.737 315.789L368.421 342.105" stroke="#CBD5E1" stroke-width="0.5"/>
<path d="M421.053 315.789L394.737 342.105" stroke="#CBD5E1" stroke-width="0.5"/>
<path d="M447.368 315.789L421.052 342.105" stroke="#CBD5E1" stroke-width="0.5"/>
<path d="M473.684 315.789L447.368 342.105" stroke="#CBD5E1" stroke-width="0.5"/>
<path d="M500 315.789L473.684 342.105" stroke="#CBD5E1" stroke-width="0.5"/>
<path d="M26.3158 342.105L0 368.421" stroke="#CBD5E1" stroke-width="0.5"/>
<path d="M52.6317 342.105L26.3159 368.421" stroke="#CBD5E1" stroke-width="0.5"/>
<path d="M78.9474 342.105L52.6316 368.421" stroke="#CBD5E1" stroke-width="0.5"/>
<path d="M105.263 342.105L78.9473 368.421" stroke="#CBD5E1" stroke-width="0.5"/>
<path d="M131.579 342.105L105.263 368.421" stroke="#CBD5E1" stroke-width="0.5"/>
<path d="M157.895 342.105L131.579 368.421" stroke="#CBD5E1" stroke-width="0.5"/>
<path d="M184.211 342.105L157.895 368.421" stroke="#CBD5E1" stroke-width="0.5"/>
<path d="M210.526 342.105L184.21 368.421" stroke="#CBD5E1" stroke-width="0.5"/>
<path d="M236.842 342.105L210.526 368.421" stroke="#CBD5E1" stroke-width="0.5"/>
<path d="M263.158 342.105L236.842 368.421" stroke="#CBD5E1" stroke-width="0.5"/>
<path d="M289.474 342.105L263.158 368.421" stroke="#CBD5E1" stroke-width="0.5"/>
<path d="M315.79 342.105L289.474 368.421" stroke="#CBD5E1" stroke-width="0.5"/>
<path d="M342.105 342.105L315.789 368.421" stroke="#CBD5E1" stroke-width="0.5"/>
<path d="M368.421 342.105L342.105 368.421" stroke="#CBD5E1" stroke-width="0.5"/>
<path d="M394.737 342.105L368.421 368.421" stroke="#CBD5E1" stroke-width="0.5"/>
<path d="M421.053 342.105L394.737 368.421" stroke="#CBD5E1" stroke-width="0.5"/>
<path d="M447.368 342.105L421.052 368.421" stroke="#CBD5E1" stroke-width="0.5"/>
<path d="M473.684 342.105L447.368 368.421" stroke="#CBD5E1" stroke-width="0.5"/>
<path d="M500 342.105L473.684 368.421" stroke="#CBD5E1" stroke-width="0.5"/>
<path d="M26.3158 368.421L0 394.737" stroke="#CBD5E1" stroke-width="0.5"/>
<path d="M52.6317 368.421L26.3159 394.737" stroke="#CBD5E1" stroke-width="0.5"/>
<path d="M78.9474 368.421L52.6316 394.737" stroke="#CBD5E1" stroke-width="0.5"/>
<path d="M105.263 368.421L78.9473 394.737" stroke="#CBD5E1" stroke-width="0.5"/>
<path d="M131.579 368.421L105.263 394.737" stroke="#CBD5E1" stroke-width="0.5"/>
<path d="M157.895 368.421L131.579 394.737" stroke="#CBD5E1" stroke-width="0.5"/>
<path d="M184.211 368.421L157.895 394.737" stroke="#CBD5E1" stroke-width="0.5"/>
<path d="M210.526 368.421L184.21 394.737" stroke="#CBD5E1" stroke-width="0.5"/>
<path d="M236.842 368.421L210.526 394.737" stroke="#CBD5E1" stroke-width="0.5"/>
<path d="M263.158 368.421L236.842 394.737" stroke="#CBD5E1" stroke-width="0.5"/>
<path d="M289.474 368.421L263.158 394.737" stroke="#CBD5E1" stroke-width="0.5"/>
<path d="M315.79 368.421L289.474 394.737" stroke="#CBD5E1" stroke-width="0.5"/>
<path d="M342.105 368.421L315.789 394.737" stroke="#CBD5E1" stroke-width="0.5"/>
<path d="M368.421 368.421L342.105 394.737" stroke="#CBD5E1" stroke-width="0.5"/>
<path d="M394.737 368.421L368.421 394.737" stroke="#CBD5E1" stroke-width="0.5"/>
<path d="M421.053 368.421L394.737 394.737" stroke="#CBD5E1" stroke-width="0.5"/>
<path d="M447.368 368.421L421.052 394.737" stroke="#CBD5E1" stroke-width="0.5"/>
<path d="M473.684 368.421L447.368 394.737" stroke="#CBD5E1" stroke-width="0.5"/>
<path d="M500 368.421L473.684 394.737" stroke="#CBD5E1" stroke-width="0.5"/>
<path d="M26.3158 394.737L0 421.053" stroke="#CBD5E1" stroke-width="0.5"/>
<path d="M52.6317 394.737L26.3159 421.053" stroke="#CBD5E1" stroke-width="0.5"/>
<path d="M78.9474 394.737L52.6316 421.053" stroke="#CBD5E1" stroke-width="0.5"/>
<path d="M105.263 394.737L78.9473 421.053" stroke="#CBD5E1" stroke-width="0.5"/>
<path d="M131.579 394.737L105.263 421.053" stroke="#CBD5E1" stroke-width="0.5"/>
<path d="M157.895 394.737L131.579 421.053" stroke="#CBD5E1" stroke-width="0.5"/>
<path d="M184.211 394.737L157.895 421.053" stroke="#CBD5E1" stroke-width="0.5"/>
<path d="M210.526 394.737L184.21 421.053" stroke="#CBD5E1" stroke-width="0.5"/>
<path d="M236.842 394.737L210.526 421.053" stroke="#CBD5E1" stroke-width="0.5"/>
<path d="M263.158 394.737L236.842 421.053" stroke="#CBD5E1" stroke-width="0.5"/>
<path d="M289.474 394.737L263.158 421.053" stroke="#CBD5E1" stroke-width="0.5"/>
<path d="M315.79 394.737L289.474 421.053" stroke="#CBD5E1" stroke-width="0.5"/>
<path d="M342.105 394.737L315.789 421.053" stroke="#CBD5E1" stroke-width="0.5"/>
<path d="M368.421 394.737L342.105 421.053" stroke="#CBD5E1" stroke-width="0.5"/>
<path d="M394.737 394.737L368.421 421.053" stroke="#CBD5E1" stroke-width="0.5"/>
<path d="M421.053 394.737L394.737 421.053" stroke="#CBD5E1" stroke-width="0.5"/>
<path d="M447.368 394.737L421.052 421.053" stroke="#CBD5E1" stroke-width="0.5"/>
<path d="M473.684 394.737L447.368 421.053" stroke="#CBD5E1" stroke-width="0.5"/>
<path d="M500 394.737L473.684 421.053" stroke="#CBD5E1" stroke-width="0.5"/>
<path d="M26.3158 421.052L0 447.368" stroke="#CBD5E1" stroke-width="0.5"/>
<path d="M52.6317 421.052L26.3159 447.368" stroke="#CBD5E1" stroke-width="0.5"/>
<path d="M78.9474 421.052L52.6316 447.368" stroke="#CBD5E1" stroke-width="0.5"/>
<path d="M105.263 421.052L78.9473 447.368" stroke="#CBD5E1" stroke-width="0.5"/>
<path d="M131.579 421.052L105.263 447.368" stroke="#CBD5E1" stroke-width="0.5"/>
<path d="M157.895 421.052L131.579 447.368" stroke="#CBD5E1" stroke-width="0.5"/>
<path d="M184.211 421.052L157.895 447.368" stroke="#CBD5E1" stroke-width="0.5"/>
<path d="M210.526 421.052L184.21 447.368" stroke="#CBD5E1" stroke-width="0.5"/>
<path d="M236.842 421.052L210.526 447.368" stroke="#CBD5E1" stroke-width="0.5"/>
<path d="M263.158 421.052L236.842 447.368" stroke="#CBD5E1" stroke-width="0.5"/>
<path d="M289.474 421.052L263.158 447.368" stroke="#CBD5E1" stroke-width="0.5"/>
<path d="M315.79 421.052L289.474 447.368" stroke="#CBD5E1" stroke-width="0.5"/>
<path d="M342.105 421.052L315.789 447.368" stroke="#CBD5E1" stroke-width="0.5"/>
<path d="M368.421 421.052L342.105 447.368" stroke="#CBD5E1" stroke-width="0.5"/>
<path d="M394.737 421.052L368.421 447.368" stroke="#CBD5E1" stroke-width="0.5"/>
<path d="M421.053 421.052L394.737 447.368" stroke="#CBD5E1" stroke-width="0.5"/>
<path d="M447.368 421.052L421.052 447.368" stroke="#CBD5E1" stroke-width="0.5"/>
<path d="M473.684 421.052L447.368 447.368" stroke="#CBD5E1" stroke-width="0.5"/>
<path d="M500 421.052L473.684 447.368" stroke="#CBD5E1" stroke-width="0.5"/>
<path d="M26.3158 447.368L0 473.684" stroke="#CBD5E1" stroke-width="0.5"/>
<path d="M52.6317 447.368L26.3159 473.684" stroke="#CBD5E1" stroke-width="0.5"/>
<path d="M78.9474 447.368L52.6316 473.684" stroke="#CBD5E1" stroke-width="0.5"/>
<path d="M105.263 447.368L78.9473 473.684" stroke="#CBD5E1" stroke-width="0.5"/>
<path d="M131.579 447.368L105.263 473.684" stroke="#CBD5E1" stroke-width="0.5"/>
<path d="M157.895 447.368L131.579 473.684" stroke="#CBD5E1" stroke-width="0.5"/>
<path d="M184.211 447.368L157.895 473.684" stroke="#CBD5E1" stroke-width="0.5"/>
<path d="M210.526 447.368L184.21 473.684" stroke="#CBD5E1" stroke-width="0.5"/>
<path d="M236.842 447.368L210.526 473.684" stroke="#CBD5E1" stroke-width="0.5"/>
<path d="M263.158 447.368L236.842 473.684" stroke="#CBD5E1" stroke-width="0.5"/>
<path d="M289.474 447.368L263.158 473.684" stroke="#CBD5E1" stroke-width="0.5"/>
<path d="M315.79 447.368L289.474 473.684" stroke="#CBD5E1" stroke-width="0.5"/>
<path d="M342.105 447.368L315.789 473.684" stroke="#CBD5E1" stroke-width="0.5"/>
<path d="M368.421 447.368L342.105 473.684" stroke="#CBD5E1" stroke-width="0.5"/>
<path d="M394.737 447.368L368.421 473.684" stroke="#CBD5E1" stroke-width="0.5"/>
<path d="M421.053 447.368L394.737 473.684" stroke="#CBD5E1" stroke-width="0.5"/>
<path d="M447.368 447.368L421.052 473.684" stroke="#CBD5E1" stroke-width="0.5"/>
<path d="M473.684 447.368L447.368 473.684" stroke="#CBD5E1" stroke-width="0.5"/>
<path d="M500 447.368L473.684 473.684" stroke="#CBD5E1" stroke-width="0.5"/>
<path d="M26.3158 473.684L0 500" stroke="#CBD5E1" stroke-width="0.5"/>
<path d="M52.6317 473.684L26.3159 500" stroke="#CBD5E1" stroke-width="0.5"/>
<path d="M78.9474 473.684L52.6316 500" stroke="#CBD5E1" stroke-width="0.5"/>
<path d="M105.263 473.684L78.9473 500" stroke="#CBD5E1" stroke-width="0.5"/>
<path d="M131.579 473.684L105.263 500" stroke="#CBD5E1" stroke-width="0.5"/>
<path d="M157.895 473.684L131.579 500" stroke="#CBD5E1" stroke-width="0.5"/>
<path d="M184.211 473.684L157.895 500" stroke="#CBD5E1" stroke-width="0.5"/>
<path d="M210.526 473.684L184.21 500" stroke="#CBD5E1" stroke-width="0.5"/>
<path d="M236.842 473.684L210.526 500" stroke="#CBD5E1" stroke-width="0.5"/>
<path d="M263.158 473.684L236.842 500" stroke="#CBD5E1" stroke-width="0.5"/>
<path d="M289.474 473.684L263.158 500" stroke="#CBD5E1" stroke-width="0.5"/>
<path d="M315.79 473.684L289.474 500" stroke="#CBD5E1" stroke-width="0.5"/>
<path d="M342.105 473.684L315.789 500" stroke="#CBD5E1" stroke-width="0.5"/>
<path d="M368.421 473.684L342.105 500" stroke="#CBD5E1" stroke-width="0.5"/>
<path d="M394.737 473.684L368.421 500" stroke="#CBD5E1" stroke-width="0.5"/>
<path d="M421.053 473.684L394.737 500" stroke="#CBD5E1" stroke-width="0.5"/>
<path d="M447.368 473.684L421.052 500" stroke="#CBD5E1" stroke-width="0.5"/>
<path d="M473.684 473.684L447.368 500" stroke="#CBD5E1" stroke-width="0.5"/>
<path d="M500 473.684L473.684 500" stroke="#CBD5E1" stroke-width="0.5"/>
</g>
<defs>
<clipPath id="clip0_184_1095">
<rect width="500" height="500" fill="white"/>
</clipPath>
</defs>
</svg>
