<svg width="500" height="500" viewBox="0 0 500 500" fill="none" xmlns="http://www.w3.org/2000/svg">
<g clip-path="url(#clip0_183_366)">
<path d="M26.3158 0H0V26.3158H26.3158V0Z" stroke="#CBD5E1" stroke-width="0.5"/>
<path d="M52.6316 0H26.3158V26.3158H52.6316V0Z" stroke="#CBD5E1" stroke-width="0.5"/>
<path d="M78.9474 0H52.6316V26.3158H78.9474V0Z" stroke="#CBD5E1" stroke-width="0.5"/>
<path d="M105.263 0H78.9474V26.3158H105.263V0Z" stroke="#CBD5E1" stroke-width="0.5"/>
<path d="M131.579 0H105.263V26.3158H131.579V0Z" stroke="#CBD5E1" stroke-width="0.5"/>
<path d="M157.895 0H131.579V26.3158H157.895V0Z" stroke="#CBD5E1" stroke-width="0.5"/>
<path d="M184.21 0H157.895V26.3158H184.21V0Z" stroke="#CBD5E1" stroke-width="0.5"/>
<path d="M210.526 0H184.211V26.3158H210.526V0Z" stroke="#CBD5E1" stroke-width="0.5"/>
<path d="M236.842 0H210.526V26.3158H236.842V0Z" stroke="#CBD5E1" stroke-width="0.5"/>
<path d="M263.158 0H236.842V26.3158H263.158V0Z" stroke="#CBD5E1" stroke-width="0.5"/>
<path d="M289.474 0H263.158V26.3158H289.474V0Z" stroke="#CBD5E1" stroke-width="0.5"/>
<path d="M315.789 0H289.474V26.3158H315.789V0Z" stroke="#CBD5E1" stroke-width="0.5"/>
<path d="M342.105 0H315.789V26.3158H342.105V0Z" stroke="#CBD5E1" stroke-width="0.5"/>
<path d="M368.421 0H342.105V26.3158H368.421V0Z" stroke="#CBD5E1" stroke-width="0.5"/>
<path d="M394.737 0H368.421V26.3158H394.737V0Z" stroke="#CBD5E1" stroke-width="0.5"/>
<path d="M421.053 0H394.737V26.3158H421.053V0Z" stroke="#CBD5E1" stroke-width="0.5"/>
<path d="M447.368 0H421.053V26.3158H447.368V0Z" stroke="#CBD5E1" stroke-width="0.5"/>
<path d="M473.684 0H447.368V26.3158H473.684V0Z" stroke="#CBD5E1" stroke-width="0.5"/>
<path d="M500 0H473.684V26.3158H500V0Z" stroke="#CBD5E1" stroke-width="0.5"/>
<path d="M26.3158 26.3159H0V52.6317H26.3158V26.3159Z" stroke="#CBD5E1" stroke-width="0.5"/>
<path d="M52.6316 26.3159H26.3158V52.6317H52.6316V26.3159Z" stroke="#CBD5E1" stroke-width="0.5"/>
<path d="M78.9474 26.3159H52.6316V52.6317H78.9474V26.3159Z" stroke="#CBD5E1" stroke-width="0.5"/>
<path d="M105.263 26.3159H78.9474V52.6317H105.263V26.3159Z" stroke="#CBD5E1" stroke-width="0.5"/>
<path d="M131.579 26.3159H105.263V52.6317H131.579V26.3159Z" stroke="#CBD5E1" stroke-width="0.5"/>
<path d="M157.895 26.3159H131.579V52.6317H157.895V26.3159Z" stroke="#CBD5E1" stroke-width="0.5"/>
<path d="M184.21 26.3159H157.895V52.6317H184.21V26.3159Z" stroke="#CBD5E1" stroke-width="0.5"/>
<path d="M210.526 26.3159H184.211V52.6317H210.526V26.3159Z" stroke="#CBD5E1" stroke-width="0.5"/>
<path d="M236.842 26.3159H210.526V52.6317H236.842V26.3159Z" stroke="#CBD5E1" stroke-width="0.5"/>
<path d="M263.158 26.3159H236.842V52.6317H263.158V26.3159Z" stroke="#CBD5E1" stroke-width="0.5"/>
<path d="M289.474 26.3159H263.158V52.6317H289.474V26.3159Z" stroke="#CBD5E1" stroke-width="0.5"/>
<path d="M315.789 26.3159H289.474V52.6317H315.789V26.3159Z" stroke="#CBD5E1" stroke-width="0.5"/>
<path d="M342.105 26.3159H315.789V52.6317H342.105V26.3159Z" stroke="#CBD5E1" stroke-width="0.5"/>
<path d="M368.421 26.3159H342.105V52.6317H368.421V26.3159Z" stroke="#CBD5E1" stroke-width="0.5"/>
<path d="M394.737 26.3159H368.421V52.6317H394.737V26.3159Z" stroke="#CBD5E1" stroke-width="0.5"/>
<path d="M421.053 26.3159H394.737V52.6317H421.053V26.3159Z" stroke="#CBD5E1" stroke-width="0.5"/>
<path d="M447.368 26.3159H421.053V52.6317H447.368V26.3159Z" stroke="#CBD5E1" stroke-width="0.5"/>
<path d="M473.684 26.3159H447.368V52.6317H473.684V26.3159Z" stroke="#CBD5E1" stroke-width="0.5"/>
<path d="M500 26.3159H473.684V52.6317H500V26.3159Z" stroke="#CBD5E1" stroke-width="0.5"/>
<path d="M26.3158 52.6316H0V78.9474H26.3158V52.6316Z" stroke="#CBD5E1" stroke-width="0.5"/>
<path d="M52.6316 52.6316H26.3158V78.9474H52.6316V52.6316Z" stroke="#CBD5E1" stroke-width="0.5"/>
<path d="M78.9474 52.6316H52.6316V78.9474H78.9474V52.6316Z" stroke="#CBD5E1" stroke-width="0.5"/>
<path d="M105.263 52.6316H78.9474V78.9474H105.263V52.6316Z" stroke="#CBD5E1" stroke-width="0.5"/>
<path d="M131.579 52.6316H105.263V78.9474H131.579V52.6316Z" stroke="#CBD5E1" stroke-width="0.5"/>
<path d="M157.895 52.6316H131.579V78.9474H157.895V52.6316Z" stroke="#CBD5E1" stroke-width="0.5"/>
<path d="M184.21 52.6316H157.895V78.9474H184.21V52.6316Z" stroke="#CBD5E1" stroke-width="0.5"/>
<path d="M210.526 52.6316H184.211V78.9474H210.526V52.6316Z" stroke="#CBD5E1" stroke-width="0.5"/>
<path d="M236.842 52.6316H210.526V78.9474H236.842V52.6316Z" stroke="#CBD5E1" stroke-width="0.5"/>
<path d="M263.158 52.6316H236.842V78.9474H263.158V52.6316Z" stroke="#CBD5E1" stroke-width="0.5"/>
<path d="M289.474 52.6316H263.158V78.9474H289.474V52.6316Z" stroke="#CBD5E1" stroke-width="0.5"/>
<path d="M315.789 52.6316H289.474V78.9474H315.789V52.6316Z" stroke="#CBD5E1" stroke-width="0.5"/>
<path d="M342.105 52.6316H315.789V78.9474H342.105V52.6316Z" stroke="#CBD5E1" stroke-width="0.5"/>
<path d="M368.421 52.6316H342.105V78.9474H368.421V52.6316Z" stroke="#CBD5E1" stroke-width="0.5"/>
<path d="M394.737 52.6316H368.421V78.9474H394.737V52.6316Z" stroke="#CBD5E1" stroke-width="0.5"/>
<path d="M421.053 52.6316H394.737V78.9474H421.053V52.6316Z" stroke="#CBD5E1" stroke-width="0.5"/>
<path d="M447.368 52.6316H421.053V78.9474H447.368V52.6316Z" stroke="#CBD5E1" stroke-width="0.5"/>
<path d="M473.684 52.6316H447.368V78.9474H473.684V52.6316Z" stroke="#CBD5E1" stroke-width="0.5"/>
<path d="M500 52.6316H473.684V78.9474H500V52.6316Z" stroke="#CBD5E1" stroke-width="0.5"/>
<path d="M26.3158 78.9473H0V105.263H26.3158V78.9473Z" stroke="#CBD5E1" stroke-width="0.5"/>
<path d="M52.6316 78.9473H26.3158V105.263H52.6316V78.9473Z" stroke="#CBD5E1" stroke-width="0.5"/>
<path d="M78.9474 78.9473H52.6316V105.263H78.9474V78.9473Z" stroke="#CBD5E1" stroke-width="0.5"/>
<path d="M105.263 78.9473H78.9474V105.263H105.263V78.9473Z" stroke="#CBD5E1" stroke-width="0.5"/>
<path d="M131.579 78.9473H105.263V105.263H131.579V78.9473Z" stroke="#CBD5E1" stroke-width="0.5"/>
<path d="M157.895 78.9473H131.579V105.263H157.895V78.9473Z" stroke="#CBD5E1" stroke-width="0.5"/>
<path d="M184.21 78.9473H157.895V105.263H184.21V78.9473Z" stroke="#CBD5E1" stroke-width="0.5"/>
<path d="M210.526 78.9473H184.211V105.263H210.526V78.9473Z" stroke="#CBD5E1" stroke-width="0.5"/>
<path d="M236.842 78.9473H210.526V105.263H236.842V78.9473Z" stroke="#CBD5E1" stroke-width="0.5"/>
<path d="M263.158 78.9473H236.842V105.263H263.158V78.9473Z" stroke="#CBD5E1" stroke-width="0.5"/>
<path d="M289.474 78.9473H263.158V105.263H289.474V78.9473Z" stroke="#CBD5E1" stroke-width="0.5"/>
<path d="M315.789 78.9473H289.474V105.263H315.789V78.9473Z" stroke="#CBD5E1" stroke-width="0.5"/>
<path d="M342.105 78.9473H315.789V105.263H342.105V78.9473Z" stroke="#CBD5E1" stroke-width="0.5"/>
<path d="M368.421 78.9473H342.105V105.263H368.421V78.9473Z" stroke="#CBD5E1" stroke-width="0.5"/>
<path d="M394.737 78.9473H368.421V105.263H394.737V78.9473Z" stroke="#CBD5E1" stroke-width="0.5"/>
<path d="M421.053 78.9473H394.737V105.263H421.053V78.9473Z" stroke="#CBD5E1" stroke-width="0.5"/>
<path d="M447.368 78.9473H421.053V105.263H447.368V78.9473Z" stroke="#CBD5E1" stroke-width="0.5"/>
<path d="M473.684 78.9473H447.368V105.263H473.684V78.9473Z" stroke="#CBD5E1" stroke-width="0.5"/>
<path d="M500 78.9473H473.684V105.263H500V78.9473Z" stroke="#CBD5E1" stroke-width="0.5"/>
<path d="M26.3158 105.263H0V131.579H26.3158V105.263Z" stroke="#CBD5E1" stroke-width="0.5"/>
<path d="M52.6316 105.263H26.3158V131.579H52.6316V105.263Z" stroke="#CBD5E1" stroke-width="0.5"/>
<path d="M78.9474 105.263H52.6316V131.579H78.9474V105.263Z" stroke="#CBD5E1" stroke-width="0.5"/>
<path d="M105.263 105.263H78.9474V131.579H105.263V105.263Z" stroke="#CBD5E1" stroke-width="0.5"/>
<path d="M131.579 105.263H105.263V131.579H131.579V105.263Z" stroke="#CBD5E1" stroke-width="0.5"/>
<path d="M157.895 105.263H131.579V131.579H157.895V105.263Z" stroke="#CBD5E1" stroke-width="0.5"/>
<path d="M184.21 105.263H157.895V131.579H184.21V105.263Z" stroke="#CBD5E1" stroke-width="0.5"/>
<path d="M210.526 105.263H184.211V131.579H210.526V105.263Z" stroke="#CBD5E1" stroke-width="0.5"/>
<path d="M236.842 105.263H210.526V131.579H236.842V105.263Z" stroke="#CBD5E1" stroke-width="0.5"/>
<path d="M263.158 105.263H236.842V131.579H263.158V105.263Z" stroke="#CBD5E1" stroke-width="0.5"/>
<path d="M289.474 105.263H263.158V131.579H289.474V105.263Z" stroke="#CBD5E1" stroke-width="0.5"/>
<path d="M315.789 105.263H289.474V131.579H315.789V105.263Z" stroke="#CBD5E1" stroke-width="0.5"/>
<path d="M342.105 105.263H315.789V131.579H342.105V105.263Z" stroke="#CBD5E1" stroke-width="0.5"/>
<path d="M368.421 105.263H342.105V131.579H368.421V105.263Z" stroke="#CBD5E1" stroke-width="0.5"/>
<path d="M394.737 105.263H368.421V131.579H394.737V105.263Z" stroke="#CBD5E1" stroke-width="0.5"/>
<path d="M421.053 105.263H394.737V131.579H421.053V105.263Z" stroke="#CBD5E1" stroke-width="0.5"/>
<path d="M447.368 105.263H421.053V131.579H447.368V105.263Z" stroke="#CBD5E1" stroke-width="0.5"/>
<path d="M473.684 105.263H447.368V131.579H473.684V105.263Z" stroke="#CBD5E1" stroke-width="0.5"/>
<path d="M500 105.263H473.684V131.579H500V105.263Z" stroke="#CBD5E1" stroke-width="0.5"/>
<path d="M26.3158 131.579H0V157.895H26.3158V131.579Z" stroke="#CBD5E1" stroke-width="0.5"/>
<path d="M52.6316 131.579H26.3158V157.895H52.6316V131.579Z" stroke="#CBD5E1" stroke-width="0.5"/>
<path d="M78.9474 131.579H52.6316V157.895H78.9474V131.579Z" stroke="#CBD5E1" stroke-width="0.5"/>
<path d="M105.263 131.579H78.9474V157.895H105.263V131.579Z" stroke="#CBD5E1" stroke-width="0.5"/>
<path d="M131.579 131.579H105.263V157.895H131.579V131.579Z" stroke="#CBD5E1" stroke-width="0.5"/>
<path d="M157.895 131.579H131.579V157.895H157.895V131.579Z" stroke="#CBD5E1" stroke-width="0.5"/>
<path d="M184.21 131.579H157.895V157.895H184.21V131.579Z" stroke="#CBD5E1" stroke-width="0.5"/>
<path d="M210.526 131.579H184.211V157.895H210.526V131.579Z" stroke="#CBD5E1" stroke-width="0.5"/>
<path d="M236.842 131.579H210.526V157.895H236.842V131.579Z" stroke="#CBD5E1" stroke-width="0.5"/>
<path d="M263.158 131.579H236.842V157.895H263.158V131.579Z" stroke="#CBD5E1" stroke-width="0.5"/>
<path d="M289.474 131.579H263.158V157.895H289.474V131.579Z" stroke="#CBD5E1" stroke-width="0.5"/>
<path d="M315.789 131.579H289.474V157.895H315.789V131.579Z" stroke="#CBD5E1" stroke-width="0.5"/>
<path d="M342.105 131.579H315.789V157.895H342.105V131.579Z" stroke="#CBD5E1" stroke-width="0.5"/>
<path d="M368.421 131.579H342.105V157.895H368.421V131.579Z" stroke="#CBD5E1" stroke-width="0.5"/>
<path d="M394.737 131.579H368.421V157.895H394.737V131.579Z" stroke="#CBD5E1" stroke-width="0.5"/>
<path d="M421.053 131.579H394.737V157.895H421.053V131.579Z" stroke="#CBD5E1" stroke-width="0.5"/>
<path d="M447.368 131.579H421.053V157.895H447.368V131.579Z" stroke="#CBD5E1" stroke-width="0.5"/>
<path d="M473.684 131.579H447.368V157.895H473.684V131.579Z" stroke="#CBD5E1" stroke-width="0.5"/>
<path d="M500 131.579H473.684V157.895H500V131.579Z" stroke="#CBD5E1" stroke-width="0.5"/>
<path d="M26.3158 157.895H0V184.211H26.3158V157.895Z" stroke="#CBD5E1" stroke-width="0.5"/>
<path d="M52.6316 157.895H26.3158V184.211H52.6316V157.895Z" stroke="#CBD5E1" stroke-width="0.5"/>
<path d="M78.9474 157.895H52.6316V184.211H78.9474V157.895Z" stroke="#CBD5E1" stroke-width="0.5"/>
<path d="M105.263 157.895H78.9474V184.211H105.263V157.895Z" stroke="#CBD5E1" stroke-width="0.5"/>
<path d="M131.579 157.895H105.263V184.211H131.579V157.895Z" stroke="#CBD5E1" stroke-width="0.5"/>
<path d="M157.895 157.895H131.579V184.211H157.895V157.895Z" stroke="#CBD5E1" stroke-width="0.5"/>
<path d="M184.21 157.895H157.895V184.211H184.21V157.895Z" stroke="#CBD5E1" stroke-width="0.5"/>
<path d="M210.526 157.895H184.211V184.211H210.526V157.895Z" stroke="#CBD5E1" stroke-width="0.5"/>
<path d="M236.842 157.895H210.526V184.211H236.842V157.895Z" stroke="#CBD5E1" stroke-width="0.5"/>
<path d="M263.158 157.895H236.842V184.211H263.158V157.895Z" stroke="#CBD5E1" stroke-width="0.5"/>
<path d="M289.474 157.895H263.158V184.211H289.474V157.895Z" stroke="#CBD5E1" stroke-width="0.5"/>
<path d="M315.789 157.895H289.474V184.211H315.789V157.895Z" stroke="#CBD5E1" stroke-width="0.5"/>
<path d="M342.105 157.895H315.789V184.211H342.105V157.895Z" stroke="#CBD5E1" stroke-width="0.5"/>
<path d="M368.421 157.895H342.105V184.211H368.421V157.895Z" stroke="#CBD5E1" stroke-width="0.5"/>
<path d="M394.737 157.895H368.421V184.211H394.737V157.895Z" stroke="#CBD5E1" stroke-width="0.5"/>
<path d="M421.053 157.895H394.737V184.211H421.053V157.895Z" stroke="#CBD5E1" stroke-width="0.5"/>
<path d="M447.368 157.895H421.053V184.211H447.368V157.895Z" stroke="#CBD5E1" stroke-width="0.5"/>
<path d="M473.684 157.895H447.368V184.211H473.684V157.895Z" stroke="#CBD5E1" stroke-width="0.5"/>
<path d="M500 157.895H473.684V184.211H500V157.895Z" stroke="#CBD5E1" stroke-width="0.5"/>
<path d="M26.3158 184.21H0V210.526H26.3158V184.21Z" stroke="#CBD5E1" stroke-width="0.5"/>
<path d="M52.6316 184.21H26.3158V210.526H52.6316V184.21Z" stroke="#CBD5E1" stroke-width="0.5"/>
<path d="M78.9474 184.21H52.6316V210.526H78.9474V184.21Z" stroke="#CBD5E1" stroke-width="0.5"/>
<path d="M105.263 184.21H78.9474V210.526H105.263V184.21Z" stroke="#CBD5E1" stroke-width="0.5"/>
<path d="M131.579 184.21H105.263V210.526H131.579V184.21Z" stroke="#CBD5E1" stroke-width="0.5"/>
<path d="M157.895 184.21H131.579V210.526H157.895V184.21Z" stroke="#CBD5E1" stroke-width="0.5"/>
<path d="M184.21 184.21H157.895V210.526H184.21V184.21Z" stroke="#CBD5E1" stroke-width="0.5"/>
<path d="M210.526 184.21H184.211V210.526H210.526V184.21Z" stroke="#CBD5E1" stroke-width="0.5"/>
<path d="M236.842 184.21H210.526V210.526H236.842V184.21Z" stroke="#CBD5E1" stroke-width="0.5"/>
<path d="M263.158 184.21H236.842V210.526H263.158V184.21Z" stroke="#CBD5E1" stroke-width="0.5"/>
<path d="M289.474 184.21H263.158V210.526H289.474V184.21Z" stroke="#CBD5E1" stroke-width="0.5"/>
<path d="M315.789 184.21H289.474V210.526H315.789V184.21Z" stroke="#CBD5E1" stroke-width="0.5"/>
<path d="M342.105 184.21H315.789V210.526H342.105V184.21Z" stroke="#CBD5E1" stroke-width="0.5"/>
<path d="M368.421 184.21H342.105V210.526H368.421V184.21Z" stroke="#CBD5E1" stroke-width="0.5"/>
<path d="M394.737 184.21H368.421V210.526H394.737V184.21Z" stroke="#CBD5E1" stroke-width="0.5"/>
<path d="M421.053 184.21H394.737V210.526H421.053V184.21Z" stroke="#CBD5E1" stroke-width="0.5"/>
<path d="M447.368 184.21H421.053V210.526H447.368V184.21Z" stroke="#CBD5E1" stroke-width="0.5"/>
<path d="M473.684 184.21H447.368V210.526H473.684V184.21Z" stroke="#CBD5E1" stroke-width="0.5"/>
<path d="M500 184.21H473.684V210.526H500V184.21Z" stroke="#CBD5E1" stroke-width="0.5"/>
<path d="M26.3158 210.526H0V236.842H26.3158V210.526Z" stroke="#CBD5E1" stroke-width="0.5"/>
<path d="M52.6316 210.526H26.3158V236.842H52.6316V210.526Z" stroke="#CBD5E1" stroke-width="0.5"/>
<path d="M78.9474 210.526H52.6316V236.842H78.9474V210.526Z" stroke="#CBD5E1" stroke-width="0.5"/>
<path d="M105.263 210.526H78.9474V236.842H105.263V210.526Z" stroke="#CBD5E1" stroke-width="0.5"/>
<path d="M131.579 210.526H105.263V236.842H131.579V210.526Z" stroke="#CBD5E1" stroke-width="0.5"/>
<path d="M157.895 210.526H131.579V236.842H157.895V210.526Z" stroke="#CBD5E1" stroke-width="0.5"/>
<path d="M184.21 210.526H157.895V236.842H184.21V210.526Z" stroke="#CBD5E1" stroke-width="0.5"/>
<path d="M210.526 210.526H184.211V236.842H210.526V210.526Z" stroke="#CBD5E1" stroke-width="0.5"/>
<path d="M236.842 210.526H210.526V236.842H236.842V210.526Z" stroke="#CBD5E1" stroke-width="0.5"/>
<path d="M263.158 210.526H236.842V236.842H263.158V210.526Z" stroke="#CBD5E1" stroke-width="0.5"/>
<path d="M289.474 210.526H263.158V236.842H289.474V210.526Z" stroke="#CBD5E1" stroke-width="0.5"/>
<path d="M315.789 210.526H289.474V236.842H315.789V210.526Z" stroke="#CBD5E1" stroke-width="0.5"/>
<path d="M342.105 210.526H315.789V236.842H342.105V210.526Z" stroke="#CBD5E1" stroke-width="0.5"/>
<path d="M368.421 210.526H342.105V236.842H368.421V210.526Z" stroke="#CBD5E1" stroke-width="0.5"/>
<path d="M394.737 210.526H368.421V236.842H394.737V210.526Z" stroke="#CBD5E1" stroke-width="0.5"/>
<path d="M421.053 210.526H394.737V236.842H421.053V210.526Z" stroke="#CBD5E1" stroke-width="0.5"/>
<path d="M447.368 210.526H421.053V236.842H447.368V210.526Z" stroke="#CBD5E1" stroke-width="0.5"/>
<path d="M473.684 210.526H447.368V236.842H473.684V210.526Z" stroke="#CBD5E1" stroke-width="0.5"/>
<path d="M500 210.526H473.684V236.842H500V210.526Z" stroke="#CBD5E1" stroke-width="0.5"/>
<path d="M26.3158 236.842H0V263.158H26.3158V236.842Z" stroke="#CBD5E1" stroke-width="0.5"/>
<path d="M52.6316 236.842H26.3158V263.158H52.6316V236.842Z" stroke="#CBD5E1" stroke-width="0.5"/>
<path d="M78.9474 236.842H52.6316V263.158H78.9474V236.842Z" stroke="#CBD5E1" stroke-width="0.5"/>
<path d="M105.263 236.842H78.9474V263.158H105.263V236.842Z" stroke="#CBD5E1" stroke-width="0.5"/>
<path d="M131.579 236.842H105.263V263.158H131.579V236.842Z" stroke="#CBD5E1" stroke-width="0.5"/>
<path d="M157.895 236.842H131.579V263.158H157.895V236.842Z" stroke="#CBD5E1" stroke-width="0.5"/>
<path d="M184.21 236.842H157.895V263.158H184.21V236.842Z" stroke="#CBD5E1" stroke-width="0.5"/>
<path d="M210.526 236.842H184.211V263.158H210.526V236.842Z" stroke="#CBD5E1" stroke-width="0.5"/>
<path d="M236.842 236.842H210.526V263.158H236.842V236.842Z" stroke="#CBD5E1" stroke-width="0.5"/>
<path d="M263.158 236.842H236.842V263.158H263.158V236.842Z" stroke="#CBD5E1" stroke-width="0.5"/>
<path d="M289.474 236.842H263.158V263.158H289.474V236.842Z" stroke="#CBD5E1" stroke-width="0.5"/>
<path d="M315.789 236.842H289.474V263.158H315.789V236.842Z" stroke="#CBD5E1" stroke-width="0.5"/>
<path d="M342.105 236.842H315.789V263.158H342.105V236.842Z" stroke="#CBD5E1" stroke-width="0.5"/>
<path d="M368.421 236.842H342.105V263.158H368.421V236.842Z" stroke="#CBD5E1" stroke-width="0.5"/>
<path d="M394.737 236.842H368.421V263.158H394.737V236.842Z" stroke="#CBD5E1" stroke-width="0.5"/>
<path d="M421.053 236.842H394.737V263.158H421.053V236.842Z" stroke="#CBD5E1" stroke-width="0.5"/>
<path d="M447.368 236.842H421.053V263.158H447.368V236.842Z" stroke="#CBD5E1" stroke-width="0.5"/>
<path d="M473.684 236.842H447.368V263.158H473.684V236.842Z" stroke="#CBD5E1" stroke-width="0.5"/>
<path d="M500 236.842H473.684V263.158H500V236.842Z" stroke="#CBD5E1" stroke-width="0.5"/>
<path d="M26.3158 263.158H0V289.474H26.3158V263.158Z" stroke="#CBD5E1" stroke-width="0.5"/>
<path d="M52.6316 263.158H26.3158V289.474H52.6316V263.158Z" stroke="#CBD5E1" stroke-width="0.5"/>
<path d="M78.9474 263.158H52.6316V289.474H78.9474V263.158Z" stroke="#CBD5E1" stroke-width="0.5"/>
<path d="M105.263 263.158H78.9474V289.474H105.263V263.158Z" stroke="#CBD5E1" stroke-width="0.5"/>
<path d="M131.579 263.158H105.263V289.474H131.579V263.158Z" stroke="#CBD5E1" stroke-width="0.5"/>
<path d="M157.895 263.158H131.579V289.474H157.895V263.158Z" stroke="#CBD5E1" stroke-width="0.5"/>
<path d="M184.21 263.158H157.895V289.474H184.21V263.158Z" stroke="#CBD5E1" stroke-width="0.5"/>
<path d="M210.526 263.158H184.211V289.474H210.526V263.158Z" stroke="#CBD5E1" stroke-width="0.5"/>
<path d="M236.842 263.158H210.526V289.474H236.842V263.158Z" stroke="#CBD5E1" stroke-width="0.5"/>
<path d="M263.158 263.158H236.842V289.474H263.158V263.158Z" stroke="#CBD5E1" stroke-width="0.5"/>
<path d="M289.474 263.158H263.158V289.474H289.474V263.158Z" stroke="#CBD5E1" stroke-width="0.5"/>
<path d="M315.789 263.158H289.474V289.474H315.789V263.158Z" stroke="#CBD5E1" stroke-width="0.5"/>
<path d="M342.105 263.158H315.789V289.474H342.105V263.158Z" stroke="#CBD5E1" stroke-width="0.5"/>
<path d="M368.421 263.158H342.105V289.474H368.421V263.158Z" stroke="#CBD5E1" stroke-width="0.5"/>
<path d="M394.737 263.158H368.421V289.474H394.737V263.158Z" stroke="#CBD5E1" stroke-width="0.5"/>
<path d="M421.053 263.158H394.737V289.474H421.053V263.158Z" stroke="#CBD5E1" stroke-width="0.5"/>
<path d="M447.368 263.158H421.053V289.474H447.368V263.158Z" stroke="#CBD5E1" stroke-width="0.5"/>
<path d="M473.684 263.158H447.368V289.474H473.684V263.158Z" stroke="#CBD5E1" stroke-width="0.5"/>
<path d="M500 263.158H473.684V289.474H500V263.158Z" stroke="#CBD5E1" stroke-width="0.5"/>
<path d="M26.3158 289.474H0V315.79H26.3158V289.474Z" stroke="#CBD5E1" stroke-width="0.5"/>
<path d="M52.6316 289.474H26.3158V315.79H52.6316V289.474Z" stroke="#CBD5E1" stroke-width="0.5"/>
<path d="M78.9474 289.474H52.6316V315.79H78.9474V289.474Z" stroke="#CBD5E1" stroke-width="0.5"/>
<path d="M105.263 289.474H78.9474V315.79H105.263V289.474Z" stroke="#CBD5E1" stroke-width="0.5"/>
<path d="M131.579 289.474H105.263V315.79H131.579V289.474Z" stroke="#CBD5E1" stroke-width="0.5"/>
<path d="M157.895 289.474H131.579V315.79H157.895V289.474Z" stroke="#CBD5E1" stroke-width="0.5"/>
<path d="M184.21 289.474H157.895V315.79H184.21V289.474Z" stroke="#CBD5E1" stroke-width="0.5"/>
<path d="M210.526 289.474H184.211V315.79H210.526V289.474Z" stroke="#CBD5E1" stroke-width="0.5"/>
<path d="M236.842 289.474H210.526V315.79H236.842V289.474Z" stroke="#CBD5E1" stroke-width="0.5"/>
<path d="M263.158 289.474H236.842V315.79H263.158V289.474Z" stroke="#CBD5E1" stroke-width="0.5"/>
<path d="M289.474 289.474H263.158V315.79H289.474V289.474Z" stroke="#CBD5E1" stroke-width="0.5"/>
<path d="M315.789 289.474H289.474V315.79H315.789V289.474Z" stroke="#CBD5E1" stroke-width="0.5"/>
<path d="M342.105 289.474H315.789V315.79H342.105V289.474Z" stroke="#CBD5E1" stroke-width="0.5"/>
<path d="M368.421 289.474H342.105V315.79H368.421V289.474Z" stroke="#CBD5E1" stroke-width="0.5"/>
<path d="M394.737 289.474H368.421V315.79H394.737V289.474Z" stroke="#CBD5E1" stroke-width="0.5"/>
<path d="M421.053 289.474H394.737V315.79H421.053V289.474Z" stroke="#CBD5E1" stroke-width="0.5"/>
<path d="M447.368 289.474H421.053V315.79H447.368V289.474Z" stroke="#CBD5E1" stroke-width="0.5"/>
<path d="M473.684 289.474H447.368V315.79H473.684V289.474Z" stroke="#CBD5E1" stroke-width="0.5"/>
<path d="M500 289.474H473.684V315.79H500V289.474Z" stroke="#CBD5E1" stroke-width="0.5"/>
<path d="M26.3158 315.789H0V342.105H26.3158V315.789Z" stroke="#CBD5E1" stroke-width="0.5"/>
<path d="M52.6316 315.789H26.3158V342.105H52.6316V315.789Z" stroke="#CBD5E1" stroke-width="0.5"/>
<path d="M78.9474 315.789H52.6316V342.105H78.9474V315.789Z" stroke="#CBD5E1" stroke-width="0.5"/>
<path d="M105.263 315.789H78.9474V342.105H105.263V315.789Z" stroke="#CBD5E1" stroke-width="0.5"/>
<path d="M131.579 315.789H105.263V342.105H131.579V315.789Z" stroke="#CBD5E1" stroke-width="0.5"/>
<path d="M157.895 315.789H131.579V342.105H157.895V315.789Z" stroke="#CBD5E1" stroke-width="0.5"/>
<path d="M184.21 315.789H157.895V342.105H184.21V315.789Z" stroke="#CBD5E1" stroke-width="0.5"/>
<path d="M210.526 315.789H184.211V342.105H210.526V315.789Z" stroke="#CBD5E1" stroke-width="0.5"/>
<path d="M236.842 315.789H210.526V342.105H236.842V315.789Z" stroke="#CBD5E1" stroke-width="0.5"/>
<path d="M263.158 315.789H236.842V342.105H263.158V315.789Z" stroke="#CBD5E1" stroke-width="0.5"/>
<path d="M289.474 315.789H263.158V342.105H289.474V315.789Z" stroke="#CBD5E1" stroke-width="0.5"/>
<path d="M315.789 315.789H289.474V342.105H315.789V315.789Z" stroke="#CBD5E1" stroke-width="0.5"/>
<path d="M342.105 315.789H315.789V342.105H342.105V315.789Z" stroke="#CBD5E1" stroke-width="0.5"/>
<path d="M368.421 315.789H342.105V342.105H368.421V315.789Z" stroke="#CBD5E1" stroke-width="0.5"/>
<path d="M394.737 315.789H368.421V342.105H394.737V315.789Z" stroke="#CBD5E1" stroke-width="0.5"/>
<path d="M421.053 315.789H394.737V342.105H421.053V315.789Z" stroke="#CBD5E1" stroke-width="0.5"/>
<path d="M447.368 315.789H421.053V342.105H447.368V315.789Z" stroke="#CBD5E1" stroke-width="0.5"/>
<path d="M473.684 315.789H447.368V342.105H473.684V315.789Z" stroke="#CBD5E1" stroke-width="0.5"/>
<path d="M500 315.789H473.684V342.105H500V315.789Z" stroke="#CBD5E1" stroke-width="0.5"/>
<path d="M26.3158 342.105H0V368.421H26.3158V342.105Z" stroke="#CBD5E1" stroke-width="0.5"/>
<path d="M52.6316 342.105H26.3158V368.421H52.6316V342.105Z" stroke="#CBD5E1" stroke-width="0.5"/>
<path d="M78.9474 342.105H52.6316V368.421H78.9474V342.105Z" stroke="#CBD5E1" stroke-width="0.5"/>
<path d="M105.263 342.105H78.9474V368.421H105.263V342.105Z" stroke="#CBD5E1" stroke-width="0.5"/>
<path d="M131.579 342.105H105.263V368.421H131.579V342.105Z" stroke="#CBD5E1" stroke-width="0.5"/>
<path d="M157.895 342.105H131.579V368.421H157.895V342.105Z" stroke="#CBD5E1" stroke-width="0.5"/>
<path d="M184.21 342.105H157.895V368.421H184.21V342.105Z" stroke="#CBD5E1" stroke-width="0.5"/>
<path d="M210.526 342.105H184.211V368.421H210.526V342.105Z" stroke="#CBD5E1" stroke-width="0.5"/>
<path d="M236.842 342.105H210.526V368.421H236.842V342.105Z" stroke="#CBD5E1" stroke-width="0.5"/>
<path d="M263.158 342.105H236.842V368.421H263.158V342.105Z" stroke="#CBD5E1" stroke-width="0.5"/>
<path d="M289.474 342.105H263.158V368.421H289.474V342.105Z" stroke="#CBD5E1" stroke-width="0.5"/>
<path d="M315.789 342.105H289.474V368.421H315.789V342.105Z" stroke="#CBD5E1" stroke-width="0.5"/>
<path d="M342.105 342.105H315.789V368.421H342.105V342.105Z" stroke="#CBD5E1" stroke-width="0.5"/>
<path d="M368.421 342.105H342.105V368.421H368.421V342.105Z" stroke="#CBD5E1" stroke-width="0.5"/>
<path d="M394.737 342.105H368.421V368.421H394.737V342.105Z" stroke="#CBD5E1" stroke-width="0.5"/>
<path d="M421.053 342.105H394.737V368.421H421.053V342.105Z" stroke="#CBD5E1" stroke-width="0.5"/>
<path d="M447.368 342.105H421.053V368.421H447.368V342.105Z" stroke="#CBD5E1" stroke-width="0.5"/>
<path d="M473.684 342.105H447.368V368.421H473.684V342.105Z" stroke="#CBD5E1" stroke-width="0.5"/>
<path d="M500 342.105H473.684V368.421H500V342.105Z" stroke="#CBD5E1" stroke-width="0.5"/>
<path d="M26.3158 368.421H0V394.737H26.3158V368.421Z" stroke="#CBD5E1" stroke-width="0.5"/>
<path d="M52.6316 368.421H26.3158V394.737H52.6316V368.421Z" stroke="#CBD5E1" stroke-width="0.5"/>
<path d="M78.9474 368.421H52.6316V394.737H78.9474V368.421Z" stroke="#CBD5E1" stroke-width="0.5"/>
<path d="M105.263 368.421H78.9474V394.737H105.263V368.421Z" stroke="#CBD5E1" stroke-width="0.5"/>
<path d="M131.579 368.421H105.263V394.737H131.579V368.421Z" stroke="#CBD5E1" stroke-width="0.5"/>
<path d="M157.895 368.421H131.579V394.737H157.895V368.421Z" stroke="#CBD5E1" stroke-width="0.5"/>
<path d="M184.21 368.421H157.895V394.737H184.21V368.421Z" stroke="#CBD5E1" stroke-width="0.5"/>
<path d="M210.526 368.421H184.211V394.737H210.526V368.421Z" stroke="#CBD5E1" stroke-width="0.5"/>
<path d="M236.842 368.421H210.526V394.737H236.842V368.421Z" stroke="#CBD5E1" stroke-width="0.5"/>
<path d="M263.158 368.421H236.842V394.737H263.158V368.421Z" stroke="#CBD5E1" stroke-width="0.5"/>
<path d="M289.474 368.421H263.158V394.737H289.474V368.421Z" stroke="#CBD5E1" stroke-width="0.5"/>
<path d="M315.789 368.421H289.474V394.737H315.789V368.421Z" stroke="#CBD5E1" stroke-width="0.5"/>
<path d="M342.105 368.421H315.789V394.737H342.105V368.421Z" stroke="#CBD5E1" stroke-width="0.5"/>
<path d="M368.421 368.421H342.105V394.737H368.421V368.421Z" stroke="#CBD5E1" stroke-width="0.5"/>
<path d="M394.737 368.421H368.421V394.737H394.737V368.421Z" stroke="#CBD5E1" stroke-width="0.5"/>
<path d="M421.053 368.421H394.737V394.737H421.053V368.421Z" stroke="#CBD5E1" stroke-width="0.5"/>
<path d="M447.368 368.421H421.053V394.737H447.368V368.421Z" stroke="#CBD5E1" stroke-width="0.5"/>
<path d="M473.684 368.421H447.368V394.737H473.684V368.421Z" stroke="#CBD5E1" stroke-width="0.5"/>
<path d="M500 368.421H473.684V394.737H500V368.421Z" stroke="#CBD5E1" stroke-width="0.5"/>
<path d="M26.3158 394.737H0V421.053H26.3158V394.737Z" stroke="#CBD5E1" stroke-width="0.5"/>
<path d="M52.6316 394.737H26.3158V421.053H52.6316V394.737Z" stroke="#CBD5E1" stroke-width="0.5"/>
<path d="M78.9474 394.737H52.6316V421.053H78.9474V394.737Z" stroke="#CBD5E1" stroke-width="0.5"/>
<path d="M105.263 394.737H78.9474V421.053H105.263V394.737Z" stroke="#CBD5E1" stroke-width="0.5"/>
<path d="M131.579 394.737H105.263V421.053H131.579V394.737Z" stroke="#CBD5E1" stroke-width="0.5"/>
<path d="M157.895 394.737H131.579V421.053H157.895V394.737Z" stroke="#CBD5E1" stroke-width="0.5"/>
<path d="M184.21 394.737H157.895V421.053H184.21V394.737Z" stroke="#CBD5E1" stroke-width="0.5"/>
<path d="M210.526 394.737H184.211V421.053H210.526V394.737Z" stroke="#CBD5E1" stroke-width="0.5"/>
<path d="M236.842 394.737H210.526V421.053H236.842V394.737Z" stroke="#CBD5E1" stroke-width="0.5"/>
<path d="M263.158 394.737H236.842V421.053H263.158V394.737Z" stroke="#CBD5E1" stroke-width="0.5"/>
<path d="M289.474 394.737H263.158V421.053H289.474V394.737Z" stroke="#CBD5E1" stroke-width="0.5"/>
<path d="M315.789 394.737H289.474V421.053H315.789V394.737Z" stroke="#CBD5E1" stroke-width="0.5"/>
<path d="M342.105 394.737H315.789V421.053H342.105V394.737Z" stroke="#CBD5E1" stroke-width="0.5"/>
<path d="M368.421 394.737H342.105V421.053H368.421V394.737Z" stroke="#CBD5E1" stroke-width="0.5"/>
<path d="M394.737 394.737H368.421V421.053H394.737V394.737Z" stroke="#CBD5E1" stroke-width="0.5"/>
<path d="M421.053 394.737H394.737V421.053H421.053V394.737Z" stroke="#CBD5E1" stroke-width="0.5"/>
<path d="M447.368 394.737H421.053V421.053H447.368V394.737Z" stroke="#CBD5E1" stroke-width="0.5"/>
<path d="M473.684 394.737H447.368V421.053H473.684V394.737Z" stroke="#CBD5E1" stroke-width="0.5"/>
<path d="M500 394.737H473.684V421.053H500V394.737Z" stroke="#CBD5E1" stroke-width="0.5"/>
<path d="M26.3158 421.052H0V447.368H26.3158V421.052Z" stroke="#CBD5E1" stroke-width="0.5"/>
<path d="M52.6316 421.052H26.3158V447.368H52.6316V421.052Z" stroke="#CBD5E1" stroke-width="0.5"/>
<path d="M78.9474 421.052H52.6316V447.368H78.9474V421.052Z" stroke="#CBD5E1" stroke-width="0.5"/>
<path d="M105.263 421.052H78.9474V447.368H105.263V421.052Z" stroke="#CBD5E1" stroke-width="0.5"/>
<path d="M131.579 421.052H105.263V447.368H131.579V421.052Z" stroke="#CBD5E1" stroke-width="0.5"/>
<path d="M157.895 421.052H131.579V447.368H157.895V421.052Z" stroke="#CBD5E1" stroke-width="0.5"/>
<path d="M184.21 421.052H157.895V447.368H184.21V421.052Z" stroke="#CBD5E1" stroke-width="0.5"/>
<path d="M210.526 421.052H184.211V447.368H210.526V421.052Z" stroke="#CBD5E1" stroke-width="0.5"/>
<path d="M236.842 421.052H210.526V447.368H236.842V421.052Z" stroke="#CBD5E1" stroke-width="0.5"/>
<path d="M263.158 421.052H236.842V447.368H263.158V421.052Z" stroke="#CBD5E1" stroke-width="0.5"/>
<path d="M289.474 421.052H263.158V447.368H289.474V421.052Z" stroke="#CBD5E1" stroke-width="0.5"/>
<path d="M315.789 421.052H289.474V447.368H315.789V421.052Z" stroke="#CBD5E1" stroke-width="0.5"/>
<path d="M342.105 421.052H315.789V447.368H342.105V421.052Z" stroke="#CBD5E1" stroke-width="0.5"/>
<path d="M368.421 421.052H342.105V447.368H368.421V421.052Z" stroke="#CBD5E1" stroke-width="0.5"/>
<path d="M394.737 421.052H368.421V447.368H394.737V421.052Z" stroke="#CBD5E1" stroke-width="0.5"/>
<path d="M421.053 421.052H394.737V447.368H421.053V421.052Z" stroke="#CBD5E1" stroke-width="0.5"/>
<path d="M447.368 421.052H421.053V447.368H447.368V421.052Z" stroke="#CBD5E1" stroke-width="0.5"/>
<path d="M473.684 421.052H447.368V447.368H473.684V421.052Z" stroke="#CBD5E1" stroke-width="0.5"/>
<path d="M500 421.052H473.684V447.368H500V421.052Z" stroke="#CBD5E1" stroke-width="0.5"/>
<path d="M26.3158 447.368H0V473.684H26.3158V447.368Z" stroke="#CBD5E1" stroke-width="0.5"/>
<path d="M52.6316 447.368H26.3158V473.684H52.6316V447.368Z" stroke="#CBD5E1" stroke-width="0.5"/>
<path d="M78.9474 447.368H52.6316V473.684H78.9474V447.368Z" stroke="#CBD5E1" stroke-width="0.5"/>
<path d="M105.263 447.368H78.9474V473.684H105.263V447.368Z" stroke="#CBD5E1" stroke-width="0.5"/>
<path d="M131.579 447.368H105.263V473.684H131.579V447.368Z" stroke="#CBD5E1" stroke-width="0.5"/>
<path d="M157.895 447.368H131.579V473.684H157.895V447.368Z" stroke="#CBD5E1" stroke-width="0.5"/>
<path d="M184.21 447.368H157.895V473.684H184.21V447.368Z" stroke="#CBD5E1" stroke-width="0.5"/>
<path d="M210.526 447.368H184.211V473.684H210.526V447.368Z" stroke="#CBD5E1" stroke-width="0.5"/>
<path d="M236.842 447.368H210.526V473.684H236.842V447.368Z" stroke="#CBD5E1" stroke-width="0.5"/>
<path d="M263.158 447.368H236.842V473.684H263.158V447.368Z" stroke="#CBD5E1" stroke-width="0.5"/>
<path d="M289.474 447.368H263.158V473.684H289.474V447.368Z" stroke="#CBD5E1" stroke-width="0.5"/>
<path d="M315.789 447.368H289.474V473.684H315.789V447.368Z" stroke="#CBD5E1" stroke-width="0.5"/>
<path d="M342.105 447.368H315.789V473.684H342.105V447.368Z" stroke="#CBD5E1" stroke-width="0.5"/>
<path d="M368.421 447.368H342.105V473.684H368.421V447.368Z" stroke="#CBD5E1" stroke-width="0.5"/>
<path d="M394.737 447.368H368.421V473.684H394.737V447.368Z" stroke="#CBD5E1" stroke-width="0.5"/>
<path d="M421.053 447.368H394.737V473.684H421.053V447.368Z" stroke="#CBD5E1" stroke-width="0.5"/>
<path d="M447.368 447.368H421.053V473.684H447.368V447.368Z" stroke="#CBD5E1" stroke-width="0.5"/>
<path d="M473.684 447.368H447.368V473.684H473.684V447.368Z" stroke="#CBD5E1" stroke-width="0.5"/>
<path d="M500 447.368H473.684V473.684H500V447.368Z" stroke="#CBD5E1" stroke-width="0.5"/>
<path d="M26.3158 473.684H0V500H26.3158V473.684Z" stroke="#CBD5E1" stroke-width="0.5"/>
<path d="M52.6316 473.684H26.3158V500H52.6316V473.684Z" stroke="#CBD5E1" stroke-width="0.5"/>
<path d="M78.9474 473.684H52.6316V500H78.9474V473.684Z" stroke="#CBD5E1" stroke-width="0.5"/>
<path d="M105.263 473.684H78.9474V500H105.263V473.684Z" stroke="#CBD5E1" stroke-width="0.5"/>
<path d="M131.579 473.684H105.263V500H131.579V473.684Z" stroke="#CBD5E1" stroke-width="0.5"/>
<path d="M157.895 473.684H131.579V500H157.895V473.684Z" stroke="#CBD5E1" stroke-width="0.5"/>
<path d="M184.21 473.684H157.895V500H184.21V473.684Z" stroke="#CBD5E1" stroke-width="0.5"/>
<path d="M210.526 473.684H184.211V500H210.526V473.684Z" stroke="#CBD5E1" stroke-width="0.5"/>
<path d="M236.842 473.684H210.526V500H236.842V473.684Z" stroke="#CBD5E1" stroke-width="0.5"/>
<path d="M263.158 473.684H236.842V500H263.158V473.684Z" stroke="#CBD5E1" stroke-width="0.5"/>
<path d="M289.474 473.684H263.158V500H289.474V473.684Z" stroke="#CBD5E1" stroke-width="0.5"/>
<path d="M315.789 473.684H289.474V500H315.789V473.684Z" stroke="#CBD5E1" stroke-width="0.5"/>
<path d="M342.105 473.684H315.789V500H342.105V473.684Z" stroke="#CBD5E1" stroke-width="0.5"/>
<path d="M368.421 473.684H342.105V500H368.421V473.684Z" stroke="#CBD5E1" stroke-width="0.5"/>
<path d="M394.737 473.684H368.421V500H394.737V473.684Z" stroke="#CBD5E1" stroke-width="0.5"/>
<path d="M421.053 473.684H394.737V500H421.053V473.684Z" stroke="#CBD5E1" stroke-width="0.5"/>
<path d="M447.368 473.684H421.053V500H447.368V473.684Z" stroke="#CBD5E1" stroke-width="0.5"/>
<path d="M473.684 473.684H447.368V500H473.684V473.684Z" stroke="#CBD5E1" stroke-width="0.5"/>
<path d="M500 473.684H473.684V500H500V473.684Z" stroke="#CBD5E1" stroke-width="0.5"/>
</g>
<defs>
<clipPath id="clip0_183_366">
<rect width="500" height="500" fill="white"/>
</clipPath>
</defs>
</svg>
